<svg width="15" height="19" viewBox="0 0 15 19" fill="none" xmlns="http://www.w3.org/2000/svg">
<path d="M1.25207 7.63875C1.43583 7.62173 1.55555 7.67096 1.68724 7.80044L4.24084 10.5051C4.55944 10.8322 5.63079 11.7002 4.72129 12.0036C4.29777 12.0907 3.60739 11.1584 3.3297 10.8636L1.31636 8.72617C1.12921 8.53526 0.819434 8.33017 0.898359 8.01823L0.93122 7.91295C0.993265 7.7709 1.11437 7.69406 1.25207 7.63875Z" fill="#FF99F5"/>
<path d="M12.7491 7.65244C12.9606 7.62334 13.1896 7.70462 13.2791 7.9151L13.2921 7.94719C13.412 8.27071 13.0572 8.5194 12.8719 8.71891L9.85842 11.8578C9.7871 11.9247 9.71107 11.9719 9.61821 12.002C9.27047 12.1015 8.96074 11.6979 9.1078 11.3802C9.16261 11.2617 9.27076 11.1639 9.36092 11.0723L12.0966 8.20784C12.2916 7.99831 12.4673 7.74358 12.7491 7.65244Z" fill="#FF99F5"/>
<path d="M8.90089 12.7248L9.01451 12.7129C9.73808 12.7145 10.3026 13.2488 10.497 13.9196C10.5618 14.1432 10.5598 14.3373 10.5604 14.5707L10.5614 17.1733C10.5606 18.104 10.1625 18.7821 9.17293 18.9756C9.00368 19.0087 8.82776 18.9985 8.65614 18.9987L5.25787 18.9978L5.00561 18.9794C4.19081 18.8931 3.58602 18.0878 3.57678 17.2936L3.57617 14.6449C3.57719 13.7459 3.90021 12.9611 4.88037 12.7457C5.02604 12.7137 5.19227 12.7266 5.34129 12.7263L8.90089 12.7248Z" fill="white"/>
<path d="M7.96937 14.6106L8.07499 14.6114C8.39551 14.6353 8.5637 14.9136 8.52528 15.2188C8.49802 15.4356 8.31123 15.5655 8.1569 15.6956L7.75953 16.0343C7.37157 16.3786 6.99015 16.9427 6.43984 16.865C6.15173 16.8244 6.02216 16.6186 5.85961 16.4058C5.6696 16.2097 5.36154 16.0741 5.35177 15.7597C5.34343 15.4901 5.5854 15.1565 5.87465 15.166C6.17834 15.1759 6.41679 15.4677 6.60979 15.6742C6.71536 15.618 6.8126 15.5099 6.90129 15.4297L7.34124 15.0422C7.53065 14.8765 7.71915 14.6739 7.96937 14.6106Z" fill="#FF99F5"/>
<path d="M6.98999 0.00566182C10.57 -0.143216 13.6057 2.66306 14.0888 6.16737C14.1213 6.40349 14.1729 6.72253 14.1303 6.95717L14.1267 6.97557C14.0864 7.19702 13.9188 7.3782 13.6874 7.3932C13.2957 7.41867 13.2301 7.01034 13.0941 6.73247C12.735 5.99877 11.8839 6.01212 11.3954 6.58959C11.2199 6.79707 11.165 7.07313 11.0605 7.31828C10.8821 7.7366 10.5485 8.07496 10.2793 8.43369L9.09444 10.0262C8.60944 10.6616 7.96517 11.889 7.11461 11.9634C6.58151 11.9749 6.30444 11.6642 5.98142 11.2783C5.51944 10.7265 5.13311 10.1162 4.7064 9.53756L3.69824 8.16507C3.3919 7.73817 3.17041 7.49149 3.02678 6.98199C2.75641 6.02306 1.49312 5.84993 1.08926 6.7049C0.994435 6.90564 0.977351 7.14294 0.795018 7.28894C0.553461 7.48228 0.259383 7.41748 0.0815872 7.17047C-0.0219021 7.02669 -0.00914941 6.67466 0.023426 6.50231L0.0999804 5.96113C0.636719 2.61737 3.59426 0.0216056 6.98999 0.00566182Z" fill="#FF99F5"/>
<path d="M5.36888 6.07593L5.51692 6.08221C6.06939 6.12791 6.50926 6.72465 6.61725 7.2395C6.64378 7.36602 6.63895 7.49723 6.6392 7.62581L6.62759 9.98253L6.56939 10.6043L6.14178 9.94411L4.60611 7.84627C4.50553 7.70125 4.24231 7.3696 4.22825 7.19758C4.17973 6.60429 4.80337 6.10687 5.36888 6.07593Z" fill="#FEFEFD"/>
<path d="M8.70587 6.07548C9.14284 6.05564 9.58688 6.2309 9.80207 6.63742L9.81233 6.65711C10.0563 7.1203 9.87638 7.43141 9.5962 7.83592L8.11219 9.80794L7.77099 10.2559C7.70249 10.3476 7.642 10.4522 7.55723 10.5295L7.54697 10.463C7.52126 10.2563 7.53654 10.0311 7.5363 9.82212L7.53495 7.70171C7.53495 7.54827 7.51901 7.37725 7.54599 7.22685C7.65311 6.62986 8.09466 6.14345 8.70587 6.07548Z" fill="#FEFEFD"/>
</svg>
