<svg width="35" height="35" viewBox="0 0 35 35" fill="none" xmlns="http://www.w3.org/2000/svg">
<path d="M9.67503 15.9302C9.91959 15.9076 10.0789 15.9731 10.2542 16.1454L13.6526 19.745C14.0766 20.1803 15.5024 21.3354 14.292 21.7391C13.7284 21.8551 12.8096 20.6144 12.44 20.222L9.76059 17.3774C9.51151 17.1233 9.09925 16.8504 9.20429 16.4353L9.24802 16.2952C9.3306 16.1061 9.49177 16.0038 9.67503 15.9302Z" fill="#FF99F5"/>
<path d="M24.9749 15.9484C25.2565 15.9097 25.5612 16.0178 25.6804 16.298L25.6976 16.3407C25.8572 16.7712 25.3851 17.1022 25.1384 17.3677L21.128 21.5451C21.033 21.6341 20.9319 21.6969 20.8083 21.737C20.3455 21.8694 19.9333 21.3322 20.129 20.9095C20.2019 20.7518 20.3459 20.6215 20.4659 20.4998L24.1067 16.6875C24.3661 16.4087 24.6 16.0697 24.9749 15.9484Z" fill="#FF99F5"/>
<path d="M19.8539 22.699L20.0052 22.6831C20.9681 22.6852 21.7194 23.3963 21.9781 24.2891C22.0643 24.5866 22.0617 24.845 22.0624 25.1556L22.0638 28.6193C22.0627 29.8578 21.533 30.7602 20.216 31.0178C19.9908 31.0619 19.7566 31.0483 19.5282 31.0485L15.0057 31.0474L14.6699 31.0229C13.5856 30.908 12.7807 29.8363 12.7684 28.7793L12.7676 25.2543C12.7689 24.0578 13.1988 23.0135 14.5033 22.7267C14.6971 22.6841 14.9184 22.7013 15.1167 22.701L19.8539 22.699Z" fill="#4F378A"/>
<path d="M18.6148 25.2089L18.7553 25.2099C19.1819 25.2417 19.4057 25.6121 19.3546 26.0183C19.3183 26.3069 19.0697 26.4796 18.8643 26.6528L18.3355 27.1036C17.8192 27.5618 17.3116 28.3125 16.5792 28.2091C16.1958 28.155 16.0233 27.8812 15.807 27.598C15.5541 27.337 15.1441 27.1565 15.1311 26.7382C15.12 26.3794 15.4421 25.9353 15.827 25.948C16.2312 25.9611 16.5485 26.3496 16.8054 26.6244C16.9459 26.5495 17.0753 26.4057 17.1933 26.2989L17.7788 25.7833C18.0309 25.5627 18.2818 25.2931 18.6148 25.2089Z" fill="#FF00E5" fill-opacity="0.4"/>
<path d="M17.3104 5.7717C22.0749 5.57356 26.1149 9.30828 26.7578 13.972C26.8011 14.2862 26.8697 14.7108 26.813 15.0231L26.8082 15.0476C26.7546 15.3423 26.5316 15.5834 26.2236 15.6034C25.7023 15.6373 25.615 15.0938 25.434 14.724C24.9561 13.7476 23.8235 13.7654 23.1734 14.5339C22.9398 14.81 22.8667 15.1774 22.7276 15.5037C22.4902 16.0604 22.0462 16.5107 21.688 16.9881L20.1111 19.1075C19.4657 19.9531 18.6082 21.5866 17.4763 21.6856C16.7668 21.7009 16.398 21.2874 15.9682 20.7738C15.3533 20.0394 14.8392 19.2273 14.2713 18.4572L12.9296 16.6306C12.5219 16.0625 12.2271 15.7342 12.036 15.0561C11.6762 13.7799 9.99493 13.5495 9.45745 14.6873C9.33125 14.9545 9.30851 15.2703 9.06586 15.4646C8.74438 15.7219 8.35301 15.6357 8.11639 15.307C7.97866 15.1156 7.99564 14.6471 8.03899 14.4177L8.14087 13.6975C8.85519 9.24747 12.7912 5.79291 17.3104 5.7717Z" fill="#FF99F5"/>
<path d="M15.1524 13.8502L15.3494 13.8586C16.0847 13.9194 16.6701 14.7136 16.8138 15.3988C16.8491 15.5671 16.8427 15.7418 16.843 15.9129L16.8276 19.0493L16.7501 19.8767L16.181 18.9982L14.1373 16.2063C14.0034 16.0133 13.6531 15.5719 13.6344 15.343C13.5698 14.5534 14.3998 13.8914 15.1524 13.8502Z" fill="#FEFEFD"/>
<path d="M19.5938 13.8495C20.1754 13.8231 20.7663 14.0564 21.0527 14.5974L21.0664 14.6236C21.391 15.24 21.1516 15.6541 20.7787 16.1924L18.8037 18.8169L18.3497 19.413C18.2585 19.535 18.178 19.6743 18.0652 19.7771L18.0515 19.6886C18.0173 19.4136 18.0376 19.1138 18.0373 18.8357L18.0355 16.0138C18.0355 15.8096 18.0143 15.582 18.0502 15.3818C18.1928 14.5873 18.7804 13.94 19.5938 13.8495Z" fill="#FEFEFD"/>
</svg>
