<svg width="35" height="35" viewBox="0 0 35 35" fill="none" xmlns="http://www.w3.org/2000/svg">
<path d="M6.34309 19.5626C6.28874 19.4665 6.27906 19.3429 6.26571 19.2349L6.21513 11.9181C6.21507 11.6294 6.18177 11.2936 6.23673 11.0113C6.38351 10.2566 6.97567 9.54826 7.77831 9.47558C8.04289 9.45163 8.32076 9.46781 8.58676 9.46858L19.0354 9.47175C19.2167 9.4723 19.43 9.45699 19.6075 9.49483C20.8545 9.76039 21.0846 10.6876 21.0859 11.7639L21.0851 12.8295C21.085 12.9215 21.0603 13.139 21.1048 13.2076C21.0616 13.3694 21.0865 13.5841 21.0865 13.7514L21.0884 19.4028L20.7179 19.4116L9.11657 19.4138L6.94389 19.4167C6.81488 19.4203 6.66225 19.4165 6.54527 19.4758L6.34309 19.5626Z" fill="#FF99F5"/>
<path d="M21.0976 13.2075L24.4035 13.213C25.4576 13.215 25.6761 13.6221 26.3142 14.405L28.8616 17.4962C29.5833 18.3677 30.053 18.6977 30.0619 19.9093L30.0628 21.8692C30.0613 22.5376 29.8859 23.2263 29.1344 23.424L28.9755 23.4562C28.7818 23.4896 28.5449 23.4962 28.354 23.4487L28.3117 23.4381C28.0283 24.2981 27.5403 24.9907 26.7169 25.4078C25.1088 26.2223 22.9993 25.4447 22.554 23.6572C22.5404 23.603 22.538 23.5209 22.498 23.4808L14.2935 23.4795L14.244 23.6588C14.2165 23.7896 14.1528 23.92 14.0949 24.0399C12.9221 26.4732 9.32625 26.288 8.52185 23.4829C8.0371 23.4464 7.13077 23.5424 6.71662 23.4362L6.5799 23.3922C5.61363 23.0093 5.55013 22.3107 5.54981 21.3867C5.54959 20.6373 5.58579 19.9999 6.34359 19.5625L6.54577 19.4757C6.66275 19.4164 6.81538 19.4202 6.94439 19.4166L9.11707 19.4136L20.7184 19.4109L21.0889 19.4027L21.087 13.7513C21.087 13.584 21.0621 13.3693 21.0976 13.2075Z" fill="#4F378A"/>
<path d="M9.11719 19.4146L20.7185 19.411L12.3995 19.419C12.3149 19.4185 12.2378 19.4492 12.159 19.4766L12.658 19.5143C12.58 19.5341 12.4757 19.5226 12.3946 19.5228L10.3365 19.5201C10.0333 19.5189 9.71706 19.5355 9.41709 19.4917L10.1775 19.4803C10.1118 19.4291 9.9888 19.4276 9.90791 19.4239L9.39948 19.4174C9.30805 19.4179 9.20753 19.4278 9.11719 19.4146Z" fill="#FF00E5"/>
<path d="M11.3281 21.4885C13.0016 21.3201 13.3116 23.9315 11.4992 24.1823C10.2393 24.1918 9.62899 22.8981 10.3391 22.0019C10.5978 21.6755 10.9236 21.5342 11.3281 21.4885Z" fill="#FF99F5"/>
<path d="M25.3386 21.4719C26.9906 21.3341 27.2903 23.964 25.48 24.1994C24.7533 24.2099 24.159 23.7822 24.0438 23.0358L24.0284 22.9247C23.9694 22.1334 24.575 21.5453 25.3386 21.4719Z" fill="#FF99F5"/>
</svg>
