<svg width="20" height="20" viewBox="0 0 20 20" fill="none" xmlns="http://www.w3.org/2000/svg">
<g filter="url(#filter0_i_43_88372)">
<mask id="mask0_43_88372" style="mask-type:alpha" maskUnits="userSpaceOnUse" x="1" y="1" width="18" height="18">
<circle cx="10" cy="10" r="9" fill="#D9D9D9"/>
</mask>
<g mask="url(#mask0_43_88372)">
<path fill-rule="evenodd" clip-rule="evenodd" d="M1 1V19H25V1H1Z" fill="#F7FCFF"/>
<mask id="mask1_43_88372" style="mask-type:luminance" maskUnits="userSpaceOnUse" x="1" y="1" width="24" height="18">
<path fill-rule="evenodd" clip-rule="evenodd" d="M1 1V19H25V1H1Z" fill="white"/>
</mask>
<g mask="url(#mask1_43_88372)">
<path fill-rule="evenodd" clip-rule="evenodd" d="M1 1V10H25V1H1Z" fill="#E31D1C"/>
<path d="M3.8877 5.78027C3.88788 2.61928 6.62015 2.38589 7.65039 2.64648C7.61936 2.65869 5.53144 3.48837 5.53125 5.78027C5.53125 8.07384 7.6219 8.93082 7.65039 8.94238C6.57885 9.53831 3.8877 8.9416 3.8877 5.78027ZM9.0918 7.27832H9.77637L9.27148 7.84375L9.42383 8.55957L8.80176 8.19238L8.19434 8.55957L8.33301 7.84375L7.82617 7.30762L8.51172 7.27832L8.80176 6.60938L9.0918 7.27832ZM11.3008 7.23828H11.9854L11.4805 7.80273L11.6328 8.51953L11.0107 8.15234L10.4033 8.51953L10.542 7.80273L10.0352 7.2666L10.7207 7.23828L11.0107 6.56934L11.3008 7.23828ZM8.31641 5.50195H9.00098L8.49609 6.06738L8.64844 6.7832L8.02637 6.41602L7.41895 6.7832L7.55762 6.06738L7.05078 5.53125L7.73633 5.50195L8.02637 4.83301L8.31641 5.50195ZM12.3359 5.46973H13.0205L12.5146 6.03516L12.667 6.75098L12.0459 6.38379L11.4375 6.75098L11.5762 6.03516L11.0703 5.49902L11.7559 5.46973L12.0459 4.80078L12.3359 5.46973ZM10.3633 4.0459H11.0479L10.543 4.61133L10.6943 5.32715L10.0732 4.95996L9.46582 5.32715L9.60449 4.61133L9.09766 4.0752L9.7832 4.0459L10.0732 3.37695L10.3633 4.0459Z" fill="#F1F9FF"/>
</g>
</g>
</g>
<defs>
<filter id="filter0_i_43_88372" x="-1" y="-1" width="21" height="21" filterUnits="userSpaceOnUse" color-interpolation-filters="sRGB">
<feFlood flood-opacity="0" result="BackgroundImageFix"/>
<feBlend mode="normal" in="SourceGraphic" in2="BackgroundImageFix" result="shape"/>
<feColorMatrix in="SourceAlpha" type="matrix" values="0 0 0 0 0 0 0 0 0 0 0 0 0 0 0 0 0 0 127 0" result="hardAlpha"/>
<feOffset dx="-1" dy="-1"/>
<feGaussianBlur stdDeviation="1"/>
<feComposite in2="hardAlpha" operator="arithmetic" k2="-1" k3="1"/>
<feColorMatrix type="matrix" values="0 0 0 0 0.25 0 0 0 0 0 0 0 0 0 1 0 0 0 0.25 0"/>
<feBlend mode="normal" in2="shape" result="effect1_innerShadow_43_88372"/>
</filter>
</defs>
</svg>
