<svg width="446" height="172" viewBox="0 0 446 172" fill="none" xmlns="http://www.w3.org/2000/svg">
<mask id="mask0_960_4575" style="mask-type:alpha" maskUnits="userSpaceOnUse" x="0" y="-1" width="466" height="173">
<path d="M0.5 148.217L0.5 23.5365C0.5 10.5379 10.7743 -0.000152588 23.4483 -0.000152588L442.719 -0.000152588C455.393 -0.000152588 465.667 10.5379 465.667 23.5365V148.217C465.667 161.216 455.393 171.754 442.719 171.754L23.4483 171.754C10.7743 171.754 0.5 161.216 0.5 148.217Z" fill="#0A090F"/>
</mask>
<g mask="url(#mask0_960_4575)">
<path d="M168.868 231.741L172.578 228.62C180.301 222.381 187.706 215.742 194.763 208.729C244.516 155.887 270.723 92.324 272.689 19.8034C272.822 14.208 271.847 10.3785 269.644 8.07066L269.556 7.98033C267.308 5.68773 263.48 4.55669 257.864 4.52616L257.464 4.51217C242.92 4.4511 227.814 4.42057 213.122 4.51217C204.12 4.64703 199.967 8.8849 199.685 18.2194C198.148 78.1487 174.824 128.306 130.378 167.348C119.506 176.669 107.682 184.769 95.1103 191.507C90.2769 194.176 89.4641 195.82 89.6267 197.976C89.7893 200.133 90.8091 200.6 95.7607 202.305C118.928 210.178 141.353 220.167 162.763 232.148C165.69 233.807 166.769 233.49 168.868 231.741Z" fill="url(#paint0_linear_960_4575)"/>
<path d="M59.3055 12.4743C68.6915 24.7948 66.4889 45.4091 54.2355 59.3886C42.3368 72.9759 28.354 78.1636 11.5333 75.2381L11.149 75.1777L10.6464 74.9365C-3.8685 68.3011 -7.80023 57.3227 -8.56886 49.2999C-9.91392 34.9588 -2.03557 18.6269 10.6021 9.56341C28.561 -3.32959 48.1163 -2.1693 59.3055 12.4743Z" fill="url(#paint1_linear_960_4575)"/>
<path d="M9.93961 183.484C46.9659 182.292 79.7501 170.258 107.317 147.773C147.935 114.627 169.175 70.8491 170.461 17.6301C170.76 15.8553 170.645 14.0322 170.124 12.3108C169.603 10.5882 168.691 9.01698 167.463 7.72183C166.234 6.42795 164.724 5.44703 163.054 4.86053C161.384 4.27402 159.603 4.09718 157.852 4.34527C141.254 4.11881 125.113 4.1188 109.829 4.36053C101.656 4.49539 97.65 8.43173 97.5909 16.4546C97.381 41.0256 87.6946 64.5229 70.6286 81.861C53.5628 99.1991 30.4907 108.982 6.40691 109.093C-2.84599 109.093 -4.93004 115.622 -4.98916 121.051C-5.1731 131.138 -5.16931 141.362 -5.16551 151.46V151.466L-5.16547 151.47L-5.16544 151.478C-5.16435 154.357 -5.16329 157.226 -5.16655 160.079L-5.10742 171.872C-5.13038 173.428 -4.84216 174.973 -4.26017 176.412C-3.67819 177.851 -2.81472 179.154 -1.72261 180.241C0.908394 182.775 4.27847 183.74 9.93961 183.484Z" fill="url(#paint2_linear_960_4575)"/>
<path d="M217.773 326.4C206.126 347.91 196.458 370.477 188.892 393.808L188.774 394.201C187.103 399.161 186.439 400.142 184.561 400.398C183.927 400.506 183.275 400.446 182.67 400.225C182.065 400.004 181.525 399.627 181.102 399.132C179.988 397.885 179.053 396.483 178.324 394.969C170.761 380.359 161.49 366.737 150.713 354.404C113.494 312.571 66.5055 290.297 11.0769 288.216C-1.98956 287.734 -4.99014 284.552 -5.03448 271.236C-5.04434 260.368 -5.04434 249.5 -5.03447 238.632L-5.04923 230.595C-5.03443 223.462 -3.83715 218.802 -1.59043 216.6C0.656286 214.398 4.91319 213.433 11.4316 213.659C82.9863 216.178 143.677 242.719 196.963 294.821C198.47 296.601 200.066 298.531 201.752 300.582C202.304 301.245 202.863 301.918 203.431 302.6L203.433 302.602C207.687 307.713 212.376 313.346 217.213 318.919C219.37 321.423 219.755 322.84 217.773 326.4Z" fill="url(#paint3_linear_960_4575)"/>
<path d="M155.074 496.988H153.892C151.325 496.994 148.742 497 146.145 497.008L145.644 497.009C134.224 497.04 122.571 497.07 111.101 496.972C106.194 496.913 102.765 495.887 100.681 493.761C98.5965 491.634 97.606 488.302 97.34 483.476C94.5315 431.057 59.4712 395.317 8.04808 392.377C-1.57434 391.849 -5.01832 388.154 -5.10702 378.261C-5.25484 363.241 -5.21048 347.875 -5.13659 333.412C-5.0479 327.29 -3.86542 323.067 -1.69262 320.851C0.480189 318.633 4.38235 317.669 10.1322 317.834C53.2926 319.192 91.1763 335.856 122.748 367.313C152.74 398.966 168.821 437.119 170.314 480.565C170.55 486.929 169.515 491.121 167.387 493.474C165.258 495.827 161.223 496.958 155.074 496.988Z" fill="url(#paint4_linear_960_4575)"/>
<path d="M199.953 482.419C202.761 396.794 236.624 326.052 300.567 272.156C305.238 268.235 307.78 267.993 312.864 270.949C332.723 282.216 353.602 291.498 375.21 298.667L376.822 299.194C382.128 300.929 382.734 301.637 382.868 303.613C383.103 306.538 381.537 307.805 375.905 310.866C358.819 320.159 343.202 332.024 329.582 346.063C293.663 383.462 274.626 428.824 273.015 480.896C272.616 493.699 269.32 497.002 256.934 497.002L246.218 497.017C235.684 497.048 225.145 497.043 214.601 497.002C209.19 496.973 205.274 495.781 202.998 493.459L202.879 493.338C200.765 491.091 199.775 487.426 199.953 482.419Z" fill="url(#paint5_linear_960_4575)"/>
<path d="M474.256 320.91C476.562 323.231 477.671 327.168 477.671 333.199C477.731 347.526 477.789 362.787 477.524 378.049C477.524 388.303 474.109 391.877 463.822 392.42C413.374 395.12 377.678 431.629 375.062 483.249C374.574 493.307 371.056 496.896 361.582 497.002C346.948 497.152 332.107 497.092 316.056 496.971C310.986 496.896 307.556 495.961 305.295 493.655C303.034 491.347 302.059 487.697 302.072 482.374C302.147 438.989 321.732 396.175 358.684 358.474C383.324 334.029 420.987 319.281 462.106 317.893C468.078 317.622 471.95 318.588 474.256 320.91Z" fill="url(#paint6_linear_960_4575)"/>
<path d="M65.0434 472.21C65.598 461.303 61.9239 450.61 54.8149 442.442C44.6753 432.097 34.8902 426.578 24.8687 425.522C20.3468 424.775 15.7159 425.132 11.3546 426.56C6.99327 427.989 3.02521 430.451 -0.225325 433.743C-3.47588 437.037 -5.91665 441.068 -7.34826 445.507C-8.77985 449.947 -9.16173 454.668 -8.46245 459.286C-6.31921 482.103 15.0097 501.331 37.0925 500.516C44.4321 500.393 51.4404 497.378 56.6502 492.102C61.86 486.826 64.8676 479.697 65.0434 472.21Z" fill="url(#paint7_linear_960_4575)"/>
<path d="M328.528 4.33019C323.818 4.34927 319.103 4.35435 314.382 4.34417C312.678 4.27038 310.977 4.55791 309.387 5.18894C307.796 5.81871 306.353 6.77927 305.144 8.00954C302.928 10.4523 301.922 13.7703 302.011 18.8974C302.011 61.122 319.836 103.256 350.36 134.397C380.955 165.613 422.166 183.529 463.464 183.438C473.707 183.453 477.55 179.532 477.609 169.006C477.743 153.097 477.713 137.443 477.565 122.484C477.416 113.285 473.87 109.424 464.735 108.881C412.764 105.805 378.414 70.7281 375.043 17.3746C374.496 8.40138 370.728 4.49558 362.361 4.43578C351.202 4.29965 339.761 4.23986 328.528 4.33019Z" fill="url(#paint8_linear_960_4575)"/>
<path d="M284.1 106.546C285.342 102.836 286.864 101.283 287.825 101.087C288.682 100.906 290.514 101.63 292.895 104.269C294.476 106.878 296.043 109.622 297.625 112.412C301.461 119.403 305.701 126.156 310.322 132.635C348.634 183.908 399.924 211.082 462.758 213.329C474.154 213.736 477.642 217.386 477.672 228.967V231.983C477.701 245.435 477.731 259.339 477.642 273.002C477.598 278.596 476.267 282.729 474.066 284.885C471.863 287.041 468.242 288.052 463.29 287.886C389.414 285.322 326.861 258.268 276.917 207.312C269.93 200.184 263.2 192.594 256.726 184.541C253.326 180.318 253.133 178.011 255.764 173.276C267.265 152 276.752 129.656 284.1 106.546Z" fill="url(#paint9_linear_960_4575)"/>
</g>
<defs>
<linearGradient id="paint0_linear_960_4575" x1="1.99903" y1="160.769" x2="425.418" y2="60.3106" gradientUnits="userSpaceOnUse">
<stop stop-color="#FF00E5"/>
<stop offset="1" stop-color="#4F378A"/>
</linearGradient>
<linearGradient id="paint1_linear_960_4575" x1="1.99903" y1="160.769" x2="425.418" y2="60.3106" gradientUnits="userSpaceOnUse">
<stop stop-color="#FF00E5"/>
<stop offset="1" stop-color="#4F378A"/>
</linearGradient>
<linearGradient id="paint2_linear_960_4575" x1="1.99903" y1="160.769" x2="425.418" y2="60.3106" gradientUnits="userSpaceOnUse">
<stop stop-color="#FF00E5"/>
<stop offset="1" stop-color="#4F378A"/>
</linearGradient>
<linearGradient id="paint3_linear_960_4575" x1="1.99903" y1="160.769" x2="425.418" y2="60.3106" gradientUnits="userSpaceOnUse">
<stop stop-color="#FF00E5"/>
<stop offset="1" stop-color="#4F378A"/>
</linearGradient>
<linearGradient id="paint4_linear_960_4575" x1="1.99903" y1="160.769" x2="425.418" y2="60.3106" gradientUnits="userSpaceOnUse">
<stop stop-color="#FF00E5"/>
<stop offset="1" stop-color="#4F378A"/>
</linearGradient>
<linearGradient id="paint5_linear_960_4575" x1="1.99903" y1="160.769" x2="425.418" y2="60.3106" gradientUnits="userSpaceOnUse">
<stop stop-color="#FF00E5"/>
<stop offset="1" stop-color="#4F378A"/>
</linearGradient>
<linearGradient id="paint6_linear_960_4575" x1="1.99903" y1="160.769" x2="425.418" y2="60.3106" gradientUnits="userSpaceOnUse">
<stop stop-color="#FF00E5"/>
<stop offset="1" stop-color="#4F378A"/>
</linearGradient>
<linearGradient id="paint7_linear_960_4575" x1="1.99903" y1="160.769" x2="425.418" y2="60.3106" gradientUnits="userSpaceOnUse">
<stop stop-color="#FF00E5"/>
<stop offset="1" stop-color="#4F378A"/>
</linearGradient>
<linearGradient id="paint8_linear_960_4575" x1="1.99903" y1="160.769" x2="425.418" y2="60.3106" gradientUnits="userSpaceOnUse">
<stop stop-color="#FF00E5"/>
<stop offset="1" stop-color="#4F378A"/>
</linearGradient>
<linearGradient id="paint9_linear_960_4575" x1="1.99903" y1="160.769" x2="425.418" y2="60.3106" gradientUnits="userSpaceOnUse">
<stop stop-color="#FF00E5"/>
<stop offset="1" stop-color="#4F378A"/>
</linearGradient>
</defs>
</svg>
