<svg width="82" height="15" viewBox="0 0 82 15" fill="none" xmlns="http://www.w3.org/2000/svg">
<path d="M5.30486 5.29553L7.27034 8.86742L4.08519 14.693L3.91836 14.9987H0L0.480857 14.118L5.30486 5.29553ZM17.0277 14.9987H13.1079L12.9411 14.693L10.0083 9.32741L8.57132 6.69933L8.51384 6.59415L6.54836 3.02225L6.55537 3.01102L6.71238 2.72354L7.99093 0.384346L8.14093 0.0561905H8.89096L9.03676 0.382942L10.3167 2.72354L16.5468 14.118L17.0277 14.9987Z" fill="#F58800"/>
<path d="M35.6368 0.00140376V14.9986H32.5119V6.94606L30.8548 8.62331L30.217 9.26842L30.0445 9.44232L29.4726 10.0201L29.059 10.438L26.9561 8.30918L25.5135 6.84929L22.3887 3.68689V0H23.1653L26.1374 3.00814L29.059 5.96578L34.9527 0H35.6368V0.00140376ZM22.3887 6.80582L25.5135 9.9626V15H22.3887V6.80582Z" fill="#F58800"/>
<path d="M44.1229 0.0799484V14.9986H40.998V0.0799484H44.1229Z" fill="#F58800"/>
<path d="M61.1913 11.8361V14.9985H49.4839V0.00128174H52.6088V11.8361H61.1913Z" fill="#F58800"/>
<path d="M81.2107 7.57993C81.2107 11.6707 77.9218 15 73.8815 15C69.8397 15 66.5522 11.6721 66.5522 7.57993C66.5522 3.48775 69.8397 0.159874 73.8815 0.159874C77.9232 0.159874 81.2107 3.48775 81.2107 7.57993ZM73.8815 3.25635C71.5262 3.25635 69.6112 5.19586 69.6112 7.57852C69.6112 9.96119 71.5262 11.9007 73.8815 11.9007C76.2367 11.9007 78.1517 9.96119 78.1517 7.57852C78.1517 5.19586 76.2367 3.25635 73.8815 3.25635Z" fill="#F58800"/>
</svg>
