<svg width="73" height="26" viewBox="0 0 73 26" fill="none" xmlns="http://www.w3.org/2000/svg">
<path d="M2.20294 0.562386C2.63549 0.562386 2.97861 0.676761 3.23232 0.905511C3.49018 1.13426 3.61911 1.45035 3.61911 1.85378C3.61911 2.25306 3.49018 2.56707 3.23232 2.79582C2.97861 3.02457 2.63549 3.13894 2.20294 3.13894H1.32953V4.67988H0.655762V0.562386H2.20294ZM2.10312 2.57746C2.37762 2.57746 2.58142 2.51716 2.71451 2.39654C2.85176 2.27177 2.92038 2.09085 2.92038 1.85378C2.92038 1.61256 2.85176 1.43164 2.71451 1.31102C2.58142 1.18625 2.37762 1.12386 2.10312 1.12386H1.32953V2.57746H2.10312Z" fill="#1A1A1A"/>
<path d="M6.14766 0.5C6.53861 0.5 6.8755 0.585261 7.15832 0.755784C7.44113 0.926307 7.65949 1.16961 7.81337 1.4857C7.96726 1.80179 8.0442 2.18027 8.0442 2.62113C8.0442 3.05784 7.96726 3.43632 7.81337 3.75657C7.65949 4.07266 7.44113 4.31596 7.15832 4.48649C6.8755 4.65701 6.53861 4.74227 6.14766 4.74227C5.7567 4.74227 5.41982 4.65701 5.137 4.48649C4.85418 4.31596 4.63583 4.07266 4.48194 3.75657C4.32806 3.43632 4.25111 3.05784 4.25111 2.62113C4.25111 2.18027 4.32806 1.80179 4.48194 1.4857C4.63583 1.16961 4.85418 0.926307 5.137 0.755784C5.41982 0.585261 5.7567 0.5 6.14766 0.5ZM6.14766 1.07395C5.89811 1.07395 5.68392 1.13634 5.50508 1.26111C5.32624 1.38173 5.18899 1.55641 5.09333 1.78516C4.99767 2.01391 4.94984 2.29257 4.94984 2.62113C4.94984 2.94554 4.99767 3.2242 5.09333 3.45711C5.18899 3.68586 5.32624 3.86262 5.50508 3.98739C5.68392 4.10801 5.89811 4.16831 6.14766 4.16831C6.3972 4.16831 6.60932 4.10801 6.784 3.98739C6.96284 3.86262 7.10009 3.68586 7.19575 3.45711C7.29557 3.2242 7.34548 2.94554 7.34548 2.62113C7.34548 2.29257 7.29557 2.01391 7.19575 1.78516C7.10009 1.55641 6.96284 1.38173 6.784 1.26111C6.60932 1.13634 6.3972 1.07395 6.14766 1.07395Z" fill="#1A1A1A"/>
<path d="M9.71474 4.67988L8.51692 0.562386H9.23437L10.1327 4.09969L11.0124 0.562386H11.6924L12.5783 4.10593L13.4704 0.562386H14.1566L12.9651 4.67988H12.1852L11.5489 2.22186L11.3493 1.26735H11.3368L11.1371 2.22186L10.507 4.67988H9.71474Z" fill="#1A1A1A"/>
<path d="M14.912 4.67988V0.562386H17.8067V1.1301H15.5858V2.32168H17.3326V2.87692H15.5858V4.11217H17.8941V4.67988H14.912Z" fill="#1A1A1A"/>
<path d="M20.4035 0.562386C20.836 0.562386 21.1771 0.672602 21.4266 0.893034C21.6803 1.10931 21.8072 1.4046 21.8072 1.77892C21.8072 2.03678 21.7489 2.25306 21.6325 2.42774C21.5202 2.60242 21.358 2.73759 21.1459 2.83325C20.9338 2.92891 20.6863 2.98713 20.4035 3.00793L20.3411 3.03288H19.4178V4.67988H18.7502V0.562386H20.4035ZM20.3411 2.48388C20.5906 2.48388 20.7799 2.42982 20.9088 2.32168C21.0419 2.20938 21.1084 2.03678 21.1084 1.80387C21.1084 1.56681 21.0419 1.3942 20.9088 1.28607C20.7757 1.17793 20.5865 1.12386 20.3411 1.12386H19.4178V2.48388H20.3411ZM20.7466 2.62113L22.038 4.67988H21.2644L20.1726 2.87068L20.7466 2.62113Z" fill="#1A1A1A"/>
<path d="M22.8321 4.67988V0.562386H25.7269V1.1301H23.5059V2.32168H25.2527V2.87692H23.5059V4.11217H25.8142V4.67988H22.8321Z" fill="#1A1A1A"/>
<path d="M28.1115 0.562386C28.7395 0.562386 29.2261 0.741227 29.5713 1.09891C29.9165 1.45243 30.0891 1.95776 30.0891 2.6149C30.0891 3.28035 29.9165 3.79192 29.5713 4.1496C29.2261 4.50312 28.7395 4.67988 28.1115 4.67988H26.6704V0.562386H28.1115ZM28.099 4.11841C28.5024 4.11841 28.8165 3.99363 29.041 3.74409C29.2698 3.49038 29.3842 3.11399 29.3842 2.6149C29.3842 2.28217 29.3322 2.00559 29.2282 1.78516C29.1284 1.56473 28.9807 1.40044 28.7853 1.29231C28.5939 1.18001 28.3652 1.12386 28.099 1.12386H27.3441V4.11841H28.099Z" fill="#1A1A1A"/>
<path d="M33.0247 4.67988V0.562386H34.6406C35.1105 0.562386 35.4557 0.662204 35.6762 0.86184C35.9008 1.05732 36.0131 1.32974 36.0131 1.6791C36.0131 1.89121 35.9528 2.08461 35.8321 2.25929C35.7115 2.43398 35.5264 2.54419 35.2769 2.58994V2.59618C35.5431 2.63777 35.749 2.74799 35.8945 2.92683C36.0401 3.10567 36.1129 3.31362 36.1129 3.55069C36.1129 3.90005 35.9902 4.17663 35.7448 4.38043C35.4994 4.58006 35.1438 4.67988 34.678 4.67988H33.0247ZM33.686 4.13712H34.6655C34.9109 4.13712 35.096 4.08305 35.2207 3.97492C35.3455 3.86678 35.4079 3.71289 35.4079 3.51326C35.4079 3.30946 35.3455 3.15558 35.2207 3.0516C35.096 2.94346 34.9109 2.8894 34.6655 2.8894H33.686V4.13712ZM33.686 2.3404H34.5657C34.8152 2.3404 35.0003 2.29049 35.1209 2.19067C35.2457 2.08669 35.3081 1.93281 35.3081 1.72901C35.3081 1.52521 35.2457 1.37341 35.1209 1.27359C35.0003 1.16961 34.8152 1.11762 34.5657 1.11762H33.686V2.3404Z" fill="#1A1A1A"/>
<path d="M39.8997 0.562386L38.4836 3.10775V4.67988H37.8098V3.10775L36.3936 0.562386H37.136L37.8223 1.86626L38.1467 2.52132L38.4773 1.86626L39.1636 0.562386H39.8997Z" fill="#1A1A1A"/>
<path d="M41.205 18.1515H40.4126L39.4457 16.5669L38.4787 18.1515H37.7051L39.0838 16.0615L37.8111 14.034H38.6034L39.5018 15.5375L40.4002 14.034H41.1426L39.8636 16.0366L41.205 18.1515Z" fill="#1A1A1A"/>
<path fill-rule="evenodd" clip-rule="evenodd" d="M0 18.3139L2.39607 13.944C2.39607 13.944 2.02418 13.7152 1.8152 13.5313C1.62925 13.3677 1.5317 13.2657 1.37955 13.07C1.21504 12.8585 1.13136 12.7297 1.01651 12.4874C0.92153 12.2869 0.881381 12.1673 0.822892 11.9533C0.741972 11.6571 0.733005 11.4819 0.701878 11.1764C0.642294 10.5916 0.647276 10.2565 0.701878 9.67122C0.73663 9.29874 0.741804 9.08329 0.847095 8.72441C0.930845 8.43895 0.991841 8.27955 1.13753 8.02037C1.35508 7.63333 1.52872 7.43712 1.86361 7.14639C2.13716 6.9089 2.63809 6.63656 2.63809 6.63656L3.26737 6.36951H31.2699L33.7386 10.8365V10.9094H33.1577L33.2545 14.3567L33.1819 15.7163L32.8673 16.5417L32.238 17.3428L34.2468 17.2943L34.7067 17.3428V17.3914L30.4712 21.1544L30.3986 21.2758L30.5922 21.4457L32.4074 23.2665L32.7947 23.6549L33.5692 24.4318L33.7628 24.626L33.9564 24.8202L34.5615 25.5H30.3744H30.3502H30.2776L27.4459 22.6838L26.4294 22.7081L26.4536 25.5H26.3083H26.2841H26.2357H26.1873H26.1147H26.0663H26.0179H25.9453H25.9211H25.7517H25.7275H25.4612H25.4128H25.3644H25.316H25.1466H25.1224H25.0256H25.0014H24.953H24.9288H24.2511H24.1785H23.9365H23.9123H23.8155H23.7913H23.5976H23.5734H23.525H23.4766H23.4282H23.404H23.0894H23.0652H23.0168H22.9926H22.8958H22.8716H22.8232H22.7747H22.7263H22.6779H22.6053H22.5569H22.5085H22.4601H22.4117H22.3633H22.3149H22.2665H22.1939H22.1697H22.0729H22.0487H22.0003H21.9519H21.8792H21.855H21.492H21.4436H21.371H21.3468L15.2719 21.4943L15.2235 25.4757L0.726081 25.4272L0.750284 18.3625H0V18.3139ZM1.91201 12.9001H1.88781L1.96042 12.9729L2.00882 13.0215L2.03303 13.07H2.08143H2.03303L2.46868 13.3856H2.49288L2.6623 13.507L3.63041 13.8712H3.65461L4.71953 14.2596L2.7107 14.2354L0.774487 17.8527L1.21014 17.9255L1.18593 24.9659L1.30695 24.9173L14.7637 25.0145V20.6445L15.6107 21.1301L16.0222 21.4214L16.3368 21.6399L16.4336 21.7127L16.4578 21.6642V21.7127L16.5547 21.7856L16.6031 21.8099H16.6273L16.7967 21.9312L17.1355 22.1497L17.1839 22.1983H17.2081V22.2226L17.3775 22.3197L17.5712 22.4411H17.5954V22.4653L17.6438 22.4896L17.7648 22.5867H17.789L17.9584 22.7081L18.1036 22.8052H18.152V22.8295L18.6603 23.1694L18.7329 23.2422L18.8297 23.2179L18.8055 23.2908L19.0475 23.4122L19.1201 23.4607H19.1443L19.459 23.6792L19.9188 23.9948L20.2335 24.189L20.7901 24.5532L20.8627 24.6017L21.3468 24.9416L21.4194 24.9173L21.4436 25.0145L25.9937 25.0387L25.9695 22.2468L27.6153 22.2226L27.8089 22.3925L28.0267 22.611L28.7286 23.2908L28.7528 23.2422V23.2908L28.9948 23.5578H29.019V23.5821L29.1643 23.7035L29.3821 23.9463H29.4063L29.4305 23.9705L29.5031 24.0434L29.5757 24.1405L29.6967 24.2376L30.4954 25.0387L30.568 24.9902L33.4723 25.063L29.7209 21.2515L33.5449 17.8284L30.81 17.8041L31.996 16.9301L32.4316 16.3717L32.6737 15.8376L32.7947 15.2793L32.6979 10.4481H32.9883L30.9553 6.75795L18.2488 6.68512L17.4502 6.83078V6.68512L6.36531 6.61229H4.4291L3.77562 6.7094C3.77562 6.7094 3.16396 6.88325 2.80751 7.07356C2.53678 7.2181 2.38619 7.30947 2.15404 7.51055C1.96682 7.67271 1.86645 7.77302 1.71839 7.97181C1.50841 8.25375 1.41739 8.4389 1.30695 8.77296C1.20716 9.07479 1.20021 9.25847 1.16173 9.57411C1.08143 10.2329 1.05664 10.6183 1.16173 11.2735C1.22218 11.6504 1.24568 11.8731 1.40376 12.2203C1.48996 12.4097 1.53792 12.5211 1.66999 12.6816C1.74656 12.7747 1.88781 12.9001 1.88781 12.9001H1.91201ZM19.1443 14.6481L19.6284 14.7937L19.7252 14.7452L21.0079 14.8423H28.1962C28.1962 14.8423 28.495 14.7989 28.6802 14.7452C28.8152 14.706 28.8949 14.6898 29.019 14.6238C29.1794 14.5385 29.2883 14.4885 29.3821 14.3325C29.4192 14.2706 29.4365 14.2324 29.4547 14.1625C29.493 14.0155 29.4305 13.7741 29.4305 13.7741H25.2434L26.623 11.1521H32.2138L32.3106 15.255L32.117 15.9348L31.8024 16.4446L31.2457 16.9544L30.447 17.3428L29.7451 17.5128C29.7451 17.5128 23.1485 17.8995 18.9507 17.5128C18.4871 17.4701 18.2144 17.5126 17.7648 17.3914C17.3357 17.2757 17.0894 17.1839 16.7241 16.9301C16.4108 16.7126 16.2444 16.5609 16.0222 16.2504C15.9012 16.0813 15.8355 15.9814 15.756 15.7891C15.6664 15.5725 15.6517 15.4374 15.6107 15.2064C15.5064 14.6184 15.6107 13.677 15.6107 13.677L15.4655 13.6041L14.9089 13.5799L14.8605 13.6527L14.9815 13.9926L14.9573 14.1625L14.4732 14.0654L14.3038 13.9197L14.1102 13.5799H11.4479L11.7141 14.7695L15.4413 14.818C15.4413 14.818 15.4546 15.3009 15.5381 15.5949C15.6147 15.8643 15.6791 16.0137 15.8286 16.2504C15.9827 16.4945 16.0921 16.6229 16.3126 16.8087C16.4692 16.9407 16.7483 17.1001 16.7483 17.1001L16.7241 17.1729C16.7241 17.1729 16.4368 17.3259 16.24 17.3914C16.0201 17.4646 15.6592 17.5128 15.6592 17.5128L1.57318 17.4642L3.04954 14.7452L9.36645 14.7209L10.383 14.818L10.3104 14.6238L9.65688 14.5752L9.43906 14.3325V13.944L9.56007 13.7741L9.8021 13.7012L9.77789 13.5556L4.04185 13.507L3.04954 13.24L2.6865 13.0458L2.17824 12.5845C2.17824 12.5845 1.9605 12.3032 1.86361 12.099C1.74923 11.8579 1.72581 11.7045 1.66999 11.4435C1.52726 10.776 1.56967 10.3739 1.64578 9.6955C1.67793 9.40896 1.6769 9.24106 1.7668 8.96718C1.84216 8.73758 1.90132 8.61121 2.03303 8.40881C2.19393 8.16152 2.31467 8.03888 2.54128 7.85043C2.81838 7.62 3.00892 7.53077 3.33997 7.38916C3.59568 7.27978 4.01765 7.17066 4.01765 7.17066L4.55011 7.09783H6.89777L17.547 7.21922L17.5712 7.26777C17.5712 7.26777 17.0289 7.3871 16.7241 7.5591C16.4372 7.72099 16.2876 7.84485 16.0706 8.0932C15.858 8.33656 15.7703 8.50347 15.6349 8.79724C15.458 9.18145 15.3445 9.84116 15.3445 9.84116L11.6899 9.81689L11.4721 11.055L14.0618 11.0793L14.328 10.7394L14.5458 10.5695L14.7879 10.4967L14.9573 10.618L14.8605 11.055L15.3445 11.0065L15.3203 11.055L16.2884 11.1764C16.2884 11.1764 16.6676 11.2676 16.8935 11.3706C17.1252 11.4763 17.2502 11.5526 17.4502 11.7105C17.7129 11.9181 17.8527 12.0579 18.031 12.3417C18.1845 12.5861 18.3214 13.0215 18.3214 13.0215L18.3941 13.8226L18.6603 14.3082L18.7813 14.4538L19.1443 14.6481ZM32.3832 9.20995H32.4074V9.18568H32.3832V9.20995ZM2.46868 13.4099H2.49288V13.3856H2.46868V13.4099ZM2.63809 13.5313H2.6623V13.507H2.63809V13.5313ZM2.10564 13.7012H2.12984V13.677H2.10564V13.7012ZM3.63041 13.8955H3.65461V13.8712H3.63041V13.8955ZM20.9837 22.781L21.3952 23.0966L21.371 18.2897L22.7021 18.2654L22.7263 24.5775L21.5646 24.5532L14.2796 19.7706V24.5532H12.9484V18.2411L14.086 18.2168L14.4006 18.4353L14.8605 18.7509L15.0299 18.7995V18.8723L15.5623 19.2122L16.3126 19.6977L16.4336 19.7706L16.9177 20.1104L16.9661 20.1347L16.9903 20.159H17.0145L17.1839 20.2804L17.2081 20.3047V20.2804L17.789 20.6688L18.152 20.9116L18.3457 21.0573H18.3699L18.6603 21.2515L19.1201 21.5428L19.5316 21.8341L20.2335 22.2954L20.6933 22.5867V22.611H20.7175L20.8143 22.6838L20.9837 22.781ZM15.5381 21.1301H15.5623V21.1058H15.5381V21.1301ZM15.5865 21.1544H15.6107V21.1301H15.5865V21.1544ZM15.6107 21.1786H15.6349V21.1544H15.6107V21.1786ZM16.4336 21.737H16.4578V21.7127H16.4336V21.737ZM16.6031 21.8341H16.6273V21.8099H16.6031V21.8341ZM16.4094 22.2226H16.4336V22.1983H16.4094V22.2226ZM17.1839 22.2226H17.2081V22.1983H17.1839V22.2226ZM17.5712 22.4653H17.5954V22.4411H17.5712V22.4653ZM17.7648 22.611H17.789V22.5867H17.7648V22.611ZM31.7297 23.9463L32.3106 24.6017H30.6648L27.8573 21.8099L25.5097 21.7856V24.6017L24.1059 24.5775L24.0817 18.2897L25.2918 18.2411L25.4854 18.2897L25.5339 20.7902L27.6879 20.8388H27.9057L30.568 18.3139L31.5361 18.2654L32.238 18.3139L29.019 21.2272L29.3337 21.4943L29.3821 21.5428L29.4789 21.6399L29.5273 21.6885L29.5757 21.737L29.7209 21.907L29.7693 21.9312L30.0598 22.2226L30.1082 22.2954L30.2534 22.4168L30.3018 22.4896L30.4954 22.6838L30.6406 22.8295L30.689 22.8781L30.7374 22.9266L31.7297 23.9463ZM31.1247 22.611H31.1489V22.5867H31.1247V22.611ZM27.4459 22.6596H27.4701V22.6353H27.4459V22.6596ZM27.6395 22.781H27.6637V22.7567H27.6395V22.781ZM27.6395 22.781L27.5911 22.8052H27.6395V22.781ZM18.152 22.8052H18.1036L18.152 22.8295V22.8052ZM27.6395 22.8295H27.6637V22.8052H27.6395V22.8295ZM31.5119 22.9994H31.5361V22.9752H31.5119V22.9994ZM17.7648 23.0966H17.789V23.0723H17.7648V23.0966ZM28.0025 23.1937H28.0267V23.1694H28.0025V23.1937ZM28.7286 23.3151H28.7528V23.2908H28.7286V23.3151ZM19.1201 23.485H19.1443V23.4607H19.1201V23.485ZM28.9948 23.5821H29.019V23.5578H28.9948V23.5821ZM29.3821 23.9705H29.4063V23.9463H29.3821V23.9705ZM19.1201 23.9948H19.1443V23.9705H19.1201V23.9948ZM29.4063 23.9948H29.4305V23.9705H29.4063V23.9948ZM20.6691 24.9416H20.6933V24.9173H20.6691V24.9416ZM20.6691 25.0145H20.6933V24.9902H20.6691V25.0145ZM30.2292 25.3301H30.2534V25.3058H30.2292V25.3301ZM26.2841 25.5H26.3083V25.4757H26.2841V25.5ZM30.3502 25.5H30.3744V25.4757H30.3502V25.5ZM30.5922 21.4214H30.6164V21.4457H30.5922V21.4214ZM16.4336 21.7127L16.4578 21.6642V21.7127H16.4336ZM28.7286 23.2908L28.7528 23.2422V23.2908H28.7286ZM32.4074 23.2422H32.4316V23.2665H32.4074V23.2422ZM32.7947 23.6307H32.8189V23.6549H32.7947V23.6307ZM33.5692 24.4075H33.5934V24.4318H33.5692V24.4075ZM33.7628 24.6017H33.787V24.626H33.7628V24.6017ZM4.23547 7.09783H4.25968V7.12211H4.23547V7.09783ZM31.996 9.59839L32.1654 9.98683L21.4678 9.914L19.4348 9.96255L18.7813 10.2539L18.4667 10.6909L18.3457 11.3706V12.7302C18.3457 12.7302 18.1465 12.2364 17.9342 11.9776C17.7297 11.7282 17.5802 11.6109 17.3049 11.4435C17.0587 11.2937 16.9003 11.2438 16.6273 11.1521C16.2247 11.017 15.5623 10.9336 15.5623 10.9336L15.4655 9.88972C15.4655 9.88972 15.5088 9.48261 15.5865 9.23423C15.6512 9.02756 15.7 8.91404 15.8044 8.72441C15.9159 8.52177 15.9911 8.41291 16.1432 8.23886C16.2799 8.0825 16.3682 8.00417 16.5304 7.87471C16.8911 7.58681 17.1314 7.45472 17.5712 7.31633C17.7834 7.24953 17.9079 7.22843 18.1278 7.19494C18.4461 7.14649 18.9507 7.14639 18.9507 7.14639L29.3821 7.21922L30.6164 7.2435L30.7616 7.34061L30.8342 7.51055L31.1247 8.02037L31.3909 8.50591L31.5845 8.82152V8.87007L31.996 9.59839ZM7.21241 12.6573L7.67226 12.7302L9.05181 12.6816L9.63268 12.7787L9.8263 13.0458L10.0925 13.7498L10.0199 13.8712L9.65688 14.0169V14.2354L9.72949 14.3325H10.1893L10.4798 14.4296L10.867 15.1093L11.3995 16.1775L11.6657 16.4931L11.8351 16.5174L11.0606 12.9001L11.0848 12.7544L12.3918 12.7302L13.5777 12.6088L13.7713 12.7302L14.086 13.1672L14.5458 13.8469L14.7152 13.9197L14.4006 12.7059L14.5458 12.4874L14.9089 12.366L14.5216 12.1961L14.4006 12.0504L14.691 10.788L14.3764 11.0308L13.9166 11.7348L13.5777 12.0504L11.0606 11.8562L11.8109 8.11748L11.5931 8.14176L11.3995 8.36025L10.4556 10.2053L9.65688 10.351V10.6423L9.97151 10.7394L10.0683 10.9822L9.56007 11.9047L7.23661 11.929L6.72835 12.1232L6.60734 12.3174L6.67995 12.3903L7.21241 12.6573ZM6.67995 11.055L9.26964 10.9822L9.77789 11.055L9.8021 10.9579L9.63268 10.9336L9.46326 10.788L9.43906 10.2782L9.53587 10.1325L9.70529 10.0597L10.2861 10.0354L10.4072 9.86544L10.383 9.79261L6.31691 9.76833H4.40489L4.4291 10.9579L6.67995 11.055ZM4.40489 10.9822H4.4291V10.9579H4.40489V10.9822ZM11.1817 11.7591H11.2059V11.7348H11.1817V11.7591ZM8.13211 11.7833H8.15631V11.7591H8.13211V11.7833ZM13.1421 11.9047H13.1663V11.8805H13.1421V11.9047ZM14.6184 12.1232H14.6426V12.099H14.6184V12.1232ZM2.27505 12.5359H2.29926V12.5117H2.27505V12.5359ZM2.39607 12.7302H2.42027V12.7059H2.39607V12.7302ZM2.95273 13.0943H2.97693V13.07H2.95273V13.0943ZM3.07374 13.1186H3.09795V13.0943H3.07374V13.1186ZM3.63041 13.3128H3.65461V13.2885H3.63041V13.3128ZM18.7571 14.4781H18.7813V14.4538H18.7571V14.4781ZM16.9903 16.9787H17.0145V16.9544H16.9903V16.9787ZM16.9419 17.003H16.9661V16.9787H16.9419V17.003ZM29.7935 17.3914H29.8177V17.3671H29.7935V17.3914ZM31.4877 7.65621H31.5119V7.63193H31.4877V7.65621ZM31.1005 8.04465H31.1247V8.02037H31.1005V8.04465ZM30.8342 7.48627H30.8584V7.51055H30.8342V7.48627ZM31.3667 8.40881H31.3909V8.43308H31.3667V8.40881ZM31.996 9.57411H32.0202V9.59839H31.996V9.57411ZM1.88781 12.8758H1.91201V12.9001H1.88781V12.8758ZM1.91201 12.9001H1.93622V12.9244H1.91201V12.9001ZM1.96042 12.9487H1.98462V12.9729H1.96042V12.9487ZM2.00882 12.9972H2.03303V13.0215H2.00882V12.9972ZM2.08143 13.07H2.10564V13.0943H2.08143V13.07ZM2.42027 13.3371H2.44447V13.3614H2.42027V13.3371ZM2.46868 13.3614H2.49288V13.3856H2.46868V13.3614ZM2.6865 13.4585H2.7107V13.4828H2.6865V13.4585ZM3.63041 13.8469H3.65461V13.8712H3.63041V13.8469ZM3.82403 13.8955H3.84823V13.9197H3.82403V13.8955ZM18.6603 14.2839H18.6845V14.3082H18.6603V14.2839ZM2.6623 18.144L3.09795 18.1925V23.5093L4.98576 23.5821L8.9066 23.5578L9.07602 23.6307V23.8249L9.05181 24.5532L1.66999 24.5289V18.2168L2.6623 18.144ZM10.8186 18.1925L11.5689 18.2411V24.3832L11.5447 24.5532L10.1409 24.5289V18.2654L10.8186 18.1925ZM15.4413 21.0815H15.4655V21.0573H15.4413V21.0815ZM16.2884 19.722H16.3126V19.6977H16.2884V19.722ZM14.4732 19.7706H14.4974V19.7463H14.4732V19.7706ZM16.4094 19.7948H16.4336V19.7706H16.4094V19.7948ZM15.0541 20.1104H15.0783V20.0862H15.0541V20.1104ZM16.9903 20.1833H17.0145V20.159H16.9903V20.1833ZM15.2477 20.3047H15.2719V20.2804H15.2477V20.3047ZM15.2961 20.3047H15.3203V20.2804H15.2961V20.3047ZM17.2081 20.3289H17.2323V20.3047H17.2081V20.3289ZM17.3049 20.4018H17.3291V20.3775H17.3049V20.4018ZM15.5139 20.4989H15.5381V20.4746H15.5139V20.4989ZM15.756 20.6688H15.7802V20.6445H15.756V20.6688ZM15.8286 20.6688H15.8528V20.6445H15.8286V20.6688ZM17.7648 20.6931H17.789V20.6688H17.7648V20.6931ZM18.3457 21.0815H18.3699V21.0573H18.3457V21.0815ZM16.7483 21.2758H16.7725V21.2515H16.7483V21.2758ZM18.6361 21.2758H18.6603V21.2515H18.6361V21.2758ZM16.7483 21.3486H16.7725V21.3243H16.7483V21.3486ZM19.0959 21.5671H19.1201V21.5428H19.0959V21.5671ZM17.1839 21.5914H17.2081V21.5671H17.1839V21.5914ZM17.2807 21.6642H17.3049V21.6399H17.2807V21.6642ZM19.2169 21.6642H19.2411V21.6399H19.2169V21.6642ZM19.5074 21.8584H19.5316V21.8341H19.5074V21.8584ZM17.9584 22.0526H17.9826V22.0284H17.9584V22.0526ZM17.9584 22.1255H17.9826V22.1012H17.9584V22.1255ZM20.2093 22.3197H20.2335V22.2954H20.2093V22.3197ZM18.5393 22.4411H18.5635V22.4168H18.5393V22.4411ZM20.6691 22.611H20.6933V22.5867H20.6691V22.611ZM18.7571 22.6353H18.7813V22.611H18.7571V22.6353ZM20.6933 22.6353H20.7175V22.611H20.6933V22.6353ZM20.7901 22.7081H20.8143V22.6838H20.7901V22.7081ZM18.8781 22.7324H18.9023V22.7081H18.8781V22.7324ZM19.1201 22.8052H19.1443V22.781H19.1201V22.8052ZM20.9595 22.8052H20.9837V22.781H20.9595V22.8052ZM19.0717 22.8295H19.0959V22.8052H19.0717V22.8295ZM19.5074 22.9994H19.5316V22.9752H19.5074V22.9994ZM19.3138 23.0237H19.338V22.9994H19.3138V23.0237ZM19.5074 23.0723H19.5316V23.048H19.5074V23.0723ZM20.2819 23.6064H20.3061V23.5821H20.2819V23.6064ZM20.3787 23.6792H20.4029V23.6549H20.3787V23.6792ZM20.6691 23.8734H20.6933V23.8491H20.6691V23.8734ZM20.8627 23.9705H20.8869V23.9463H20.8627V23.9705ZM21.2016 24.2619H21.2258V24.2376H21.2016V24.2619ZM27.3975 22.611H27.4217V22.5867H27.3975V22.611ZM29.3095 21.5185H29.3337V21.4943H29.3095V21.5185ZM29.3579 21.5671H29.3821V21.5428H29.3579V21.5671ZM29.4547 21.6642H29.4789V21.6399H29.4547V21.6642ZM29.5031 21.7127H29.5273V21.6885H29.5031V21.7127ZM29.5515 21.7613H29.5757V21.737H29.5515V21.7613ZM29.6967 21.9312H29.7209V21.907H29.6967V21.9312ZM30.084 22.3197H30.1082V22.2954H30.084V22.3197ZM30.2776 22.5139H30.3018V22.4896H30.2776V22.5139ZM30.4712 22.7081H30.4954V22.6838H30.4712V22.7081ZM30.6164 22.8538H30.6406V22.8295H30.6164V22.8538ZM30.6648 22.9023H30.689V22.8781H30.6648V22.9023ZM30.7132 22.9509H30.7374V22.9266H30.7132V22.9509ZM31.7055 23.9705H31.7297V23.9463H31.7055V23.9705ZM14.8605 18.7266H14.8847V18.7509H14.8605V18.7266ZM16.9177 20.0862H16.9419V20.1104H16.9177V20.0862ZM16.9661 20.1347L17.0145 20.159H16.9903L16.9661 20.1347ZM17.1839 20.2561H17.2081V20.2804H17.1839V20.2561ZM18.152 20.8873H18.1762V20.9116H18.152V20.8873ZM18.3457 21.033H18.3699V21.0573H18.3457V21.033ZM16.0222 21.3971H16.0464V21.4214H16.0222V21.3971ZM16.2158 21.5185H16.24V21.5428H16.2158V21.5185ZM16.5547 21.7613H16.5789V21.7856H16.5547V21.7613ZM16.6031 21.7856H16.6273V21.8099H16.6031V21.7856ZM16.7967 21.907H16.8209V21.9312H16.7967V21.907ZM16.9903 22.0284H17.0145V22.0526H16.9903V22.0284ZM17.0145 22.0526H17.0387V22.0769H17.0145V22.0526ZM17.1355 22.1255H17.1597V22.1497H17.1355V22.1255ZM17.1839 22.174H17.2081V22.1983H17.1839V22.174ZM17.2081 22.1983H17.2323V22.2226H17.2081V22.1983ZM30.0598 22.1983H30.084V22.2226H30.0598V22.1983ZM17.2807 22.2226H17.3049V22.2468H17.2807V22.2226ZM17.3775 22.2954H17.4017V22.3197H17.3775V22.2954ZM27.7605 22.2954H27.7847V22.3197H27.7605V22.2954ZM27.8089 22.3682H27.8331V22.3925H27.8089V22.3682ZM30.2534 22.3925H30.2776V22.4168H30.2534V22.3925ZM17.5712 22.4168H17.5954V22.4411H17.5712V22.4168ZM17.5954 22.4411H17.6196V22.4653H17.5954V22.4411ZM17.6438 22.4653H17.668V22.4896H17.6438V22.4653ZM27.9541 22.4653H27.9783V22.4896H27.9541V22.4653ZM17.6922 22.4896H17.7164V22.5139H17.6922V22.4896ZM17.7648 22.5625H17.789V22.5867H17.7648V22.5625ZM20.6933 22.5867H20.7175V22.611H20.6933V22.5867ZM28.0267 22.5867H28.0509V22.611H28.0267V22.5867ZM17.9584 22.6838H17.9826V22.7081H17.9584V22.6838ZM18.152 22.8052H18.1762V22.8295H18.152V22.8052ZM18.3457 22.9266H18.3699V22.9509H18.3457V22.9266ZM30.8584 23.0237H30.8827V23.048H30.8584V23.0237ZM30.8827 23.048H30.9069V23.0723H30.8827V23.048ZM18.6603 23.1451H18.6845V23.1694H18.6603V23.1451ZM18.8781 23.2665H18.9023V23.2908H18.8781V23.2665ZM19.0475 23.3879H19.0717V23.4122H19.0475V23.3879ZM19.1201 23.4364H19.1443V23.4607H19.1201V23.4364ZM28.9948 23.5335H29.019V23.5578H28.9948V23.5335ZM29.019 23.5578H29.0432V23.5821H29.019V23.5578ZM29.1159 23.6307H29.1401V23.6549H29.1159V23.6307ZM19.459 23.6549H19.4832V23.6792H19.459V23.6549ZM29.1643 23.6792H29.1885V23.7035H29.1643V23.6792ZM19.701 23.8006H19.7252V23.8249H19.701V23.8006ZM29.3095 23.8249H29.3337V23.8491H29.3095V23.8249ZM29.3821 23.922H29.4063V23.9463H29.3821V23.922ZM29.4063 23.9463H29.4305V23.9705H29.4063V23.9463ZM19.9188 23.9705H19.943V23.9948H19.9188V23.9705ZM29.5031 24.0191H29.5273V24.0434H29.5031V24.0191ZM29.5757 24.1162H29.5999V24.1405H29.5757V24.1162ZM20.2335 24.1648H20.2577V24.189H20.2335V24.1648ZM20.2819 24.189H20.3061V24.2133H20.2819V24.189ZM29.6967 24.2133H29.7209V24.2376H29.6967V24.2133ZM29.8903 24.3832H29.9145V24.4075H29.8903V24.3832ZM20.6207 24.4075H20.6449V24.4318H20.6207V24.4075ZM20.7901 24.5289H20.8143V24.5532H20.7901V24.5289ZM20.8627 24.5775H20.8869V24.6017H20.8627V24.5775ZM30.084 24.5775H30.1082V24.6017H30.084V24.5775ZM30.2776 24.7717H30.3018V24.796H30.2776V24.7717ZM1.28274 24.8931H1.30695V24.9173H1.28274V24.8931ZM21.4436 24.9416H21.4678V24.9659H21.4436V24.9416ZM30.4712 24.9416H30.4954V24.9659H30.4712V24.9416ZM7.26081 12.6088H7.28501V12.6331H7.26081V12.6088ZM14.086 13.1429H14.1102V13.1672H14.086V13.1429ZM10.867 15.0851H10.8912V15.1093H10.867V15.0851ZM11.0364 15.4007H11.0606V15.4249H11.0364V15.4007Z" fill="#2C92C6"/>
<path d="M69.8284 9.97834C73.9414 14.2117 73.2583 18.939 69.7466 22.3512C66.32 25.6808 61.3868 26.0688 57.4443 22.0111L59.7515 19.7694C62.4142 22.5097 65.4078 22.2304 67.5793 20.1207C69.8186 17.945 70.2011 14.944 67.5384 12.2038C64.8757 9.46346 61.8826 9.77666 59.6433 11.9528L57.4587 9.70463C60.97 6.29193 65.9027 5.9383 69.8284 9.97834Z" fill="#F58800"/>
<path d="M49.8865 10.3543L50.307 9.16604H54.4697L52.7025 6.41971H48.5705H48.544C48.0467 6.41971 47.6039 6.73291 47.438 7.20132L40.9839 25.4145H44.891L45.9171 22.3368L50.0798 22.2708L50.3967 21.7597H50.4051L51.5896 19.8493H46.7419L49.8865 10.3543Z" fill="#1A1A1A"/>
<path d="M56.7918 7.48525C56.3633 6.82446 55.6296 6.42575 54.8419 6.42575H52.7968H52.0068L57.9154 15.9626L52.0068 25.5H54.8419C55.631 25.5 56.3666 25.0994 56.7941 24.4363L61.8671 16.5746C62.1148 16.1903 62.1144 15.6964 61.8658 15.313L56.7918 7.48525Z" fill="#1A1A1A"/>
<path d="M58.9444 15.1784L57.6883 13.2406L55.679 10.1411V10.1416C55.6785 10.1402 55.6776 10.1393 55.6771 10.1379L55.4708 9.81955L53.9578 7.4854C53.5293 6.82461 52.7956 6.4259 52.0079 6.4259H49.9623H49.1724L55.0809 15.9628L49.1724 25.5001H52.0075C52.0999 25.5001 52.1919 25.4941 52.283 25.4834C52.6813 25.4314 53.4294 25.2269 53.9601 24.4364L58.9737 16.6663L59.0327 16.5748C59.0582 16.5348 59.081 16.4935 59.1014 16.4512C59.212 16.2007 59.3041 15.7472 58.9444 15.1784Z" fill="#F58800"/>
</svg>
