<svg width="44" height="45" viewBox="0 0 44 45" fill="none" xmlns="http://www.w3.org/2000/svg">
<path d="M9.93394 17.5831C9.91764 17.4195 10.1446 17.1918 10.2473 17.0658L11.8374 15.2087L16.4277 9.55578C16.7404 9.15566 17.0533 8.72583 17.4176 8.37204C18.2913 7.52368 19.6663 8.45881 19.3251 9.54237L19.3148 9.57586C19.2067 9.90991 18.8772 10.1932 18.6472 10.4521L12.7619 17.3862C12.7219 17.4431 12.6698 17.5057 12.6568 17.575L9.93394 17.5831Z" fill="#FF99F5"/>
<path d="M31.3678 17.5827C30.8079 16.764 30.1548 16.0273 29.5195 15.2713L25.5943 10.6813C24.9641 9.97106 24.0449 9.04184 25.2441 8.24888C26.389 7.49191 27.1655 9.00355 27.7697 9.74426L33.6381 16.8348C33.815 17.0511 34.0905 17.3037 34.1642 17.5812L31.3678 17.5827Z" fill="#FF99F5"/>
<path d="M12.6569 17.5828L31.3677 17.5834L34.1642 17.5829L36.0071 17.5823C36.4141 17.5824 36.8839 17.5291 37.2766 17.6302C38.0177 17.821 38.5802 18.4567 38.6966 19.2097L38.7021 19.2444C38.8589 20.2906 38.032 21.2604 37.0116 21.409C36.694 21.4552 36.3461 21.4338 36.0244 21.4363L8.05565 21.4347C7.72338 21.4359 7.35185 21.4696 7.02426 21.4217C4.87093 21.1075 4.7619 18.0984 6.83871 17.6213C7.18493 17.5418 7.6197 17.5843 7.9759 17.584L9.93403 17.5834L12.6569 17.5828Z" fill="#4F378A"/>
<path d="M8.05566 21.4423L36.0244 21.4351C36.0092 21.4486 36.0186 21.4423 35.9918 21.4548L35.9686 21.4654C35.9723 21.8412 35.8429 22.245 35.7678 22.6125L35.2734 24.7922L33.9336 30.1326C33.493 32.1065 33.3342 34.1187 31.0273 34.8727C30.6398 34.9994 30.1951 35.0945 29.7876 35.1138L14.6183 35.1259C12.9337 35.1253 11.4164 34.3602 10.7637 32.7099C10.6231 32.3547 10.5384 31.9838 10.4475 31.6138L8.23936 22.4849C8.1603 22.1366 8.07175 21.8013 8.05566 21.4423Z" fill="#FF99F5"/>
<path d="M21.8638 24.1137C22.6112 24.0468 23.1671 24.4613 23.4635 25.1428C23.6208 25.5045 23.5617 25.919 23.5621 26.3038L23.5539 30.8398C23.5495 30.9379 23.5339 31.0275 23.4971 31.1194L23.4823 31.1551C23.2604 31.7041 22.8543 32.0311 22.2631 32.1421C21.4542 32.1996 20.6074 31.7832 20.4731 30.9017C20.435 30.6517 20.4609 30.3656 20.4606 30.1114L20.4595 26.4866C20.4596 26.1356 20.4292 25.7492 20.4808 25.4028L20.4869 25.3651C20.5905 24.6891 21.2221 24.2234 21.8638 24.1137Z" fill="url(#paint0_linear_123_5018)"/>
<path d="M14.5112 31.4058L14.4392 31.2739C14.2516 30.8451 14.3055 30.3881 14.3057 29.9319L14.3017 26.5705C14.3006 26.2123 14.2848 25.846 14.3079 25.4885C14.4064 23.9687 16.6536 23.4748 17.3273 25.2025C17.3674 25.3053 17.3919 25.4157 17.3965 25.5262L17.4025 30.1502C17.4036 30.5208 17.4519 30.8666 17.3041 31.2152C16.6767 32.3795 15.0697 32.5399 14.5112 31.4058Z" fill="url(#paint1_linear_123_5018)"/>
<path d="M28.1012 24.0939C28.5057 24.0756 28.8329 24.162 29.1497 24.4197C29.8996 25.03 29.7565 25.6462 29.7536 26.4958L29.7536 30.1809C29.7534 30.4377 29.7809 30.7314 29.739 30.9831C29.6271 31.6534 28.9956 32.1366 28.3364 32.1735C27.6179 32.1645 26.8201 31.7328 26.7007 30.9723C26.6304 30.5244 26.656 30.0556 26.6555 29.6032L26.6545 26.2133C26.6565 25.177 26.8157 24.2971 28.1012 24.0939Z" fill="url(#paint2_linear_123_5018)"/>
<defs>
<linearGradient id="paint0_linear_123_5018" x1="21.8998" y1="24.1306" x2="22.1023" y2="32.1033" gradientUnits="userSpaceOnUse">
<stop stop-color="#4F378A"/>
<stop offset="1" stop-color="#FF00E5"/>
</linearGradient>
<linearGradient id="paint1_linear_123_5018" x1="16.1939" y1="24.1171" x2="15.4999" y2="32.1312" gradientUnits="userSpaceOnUse">
<stop stop-color="#4F378A"/>
<stop offset="1" stop-color="#FF00E5"/>
</linearGradient>
<linearGradient id="paint2_linear_123_5018" x1="28.2574" y1="24.1261" x2="28.1251" y2="32.1221" gradientUnits="userSpaceOnUse">
<stop stop-color="#4F378A"/>
<stop offset="1" stop-color="#FF00E5"/>
</linearGradient>
</defs>
</svg>
