<svg width="50" height="50" viewBox="0 0 50 50" fill="none" xmlns="http://www.w3.org/2000/svg">
<path d="M17.9966 19.5938L18.0191 19.9069L23.2082 19.9118C23.5769 19.9124 23.9831 19.9009 24.3421 19.9934C26.3186 20.1712 28.0434 22.3409 28.2199 24.2559C28.2849 24.9614 28.2781 26.4497 28.2185 27.1513L28.1984 27.4173L28.135 27.4044C27.9932 27.5382 28.0275 27.894 28.0273 28.0675L28.0274 28.818C28.0276 29.2544 28.0579 29.718 28.0075 30.1509C27.7102 32.7038 25.7941 34.0166 23.3879 34.0263L18.3743 34.0365C18.0023 34.0524 17.7331 34.4227 17.4873 34.6707L16.2015 35.9913C15.3107 36.9066 14.4023 37.8399 13.0177 37.0969C11.6426 36.3589 12.1002 34.8116 11.2598 34.5805L10.5431 34.3656C10.0417 34.1913 9.56618 33.9366 9.12899 33.6372C7.37093 32.3372 7.21147 31.228 7.2134 29.133L7.21822 25.1864C7.21892 24.8603 7.19968 24.5159 7.25026 24.1932C7.63143 21.761 9.30235 20.1398 11.8202 19.9252C12.3963 19.8761 13.0058 19.9133 13.5857 19.9132L17.3884 19.9135C17.9113 19.9133 17.9872 20.0509 17.9966 19.5938Z" fill="#FFD6FA"/>
<path d="M13.1789 25.9804C14.3615 25.9264 14.8554 27.4907 13.5767 27.931C12.235 28.2146 11.9372 26.2636 13.1789 25.9804Z" fill="#4F378A"/>
<path d="M16.7158 26.0057C18.0101 25.8667 18.4504 27.4538 17.1144 27.9032C15.8946 28.2171 15.3567 26.4303 16.7158 26.0057Z" fill="#4F378A"/>
<path d="M20.4579 25.9816C21.6983 25.8973 22.0869 27.5717 20.737 27.9151C19.3752 28.037 19.0758 26.2686 20.4579 25.9816Z" fill="#4F378A"/>
<path d="M9.12945 33.6376L8.99688 33.4597C8.96406 33.4318 8.94922 33.4102 8.91016 33.3871L9.00078 33.392C9.40469 33.2803 9.2382 32.9938 9.18219 32.7227C9.31703 32.7922 9.60086 32.9793 9.77438 33.0813C10.258 33.3653 10.7718 33.5361 11.3145 33.6671C12.0762 33.851 12.1262 33.7094 12.3052 34.5345C12.4987 35.4262 12.7716 36.2413 13.7225 36.4945L13.7826 36.5114C14.5586 36.6991 15.0673 36.0256 15.5273 35.5215L16.9246 34.012C17.4423 33.4882 17.5617 33.2202 18.302 33.2017L22.3649 33.1927C22.8864 33.1929 23.438 33.2259 23.9565 33.1711L24.3552 33.1148C25.749 32.8494 26.9173 31.7916 27.1281 30.3684C27.1712 30.0774 27.1483 29.7602 27.1484 29.4663L27.1516 25.4814C27.1543 24.9084 27.2054 24.346 27.0955 23.7793L27.0259 23.5122C26.7207 22.5881 25.9436 21.8294 25.1223 21.3498L24.7317 21.1302C24.6055 21.0508 24.4432 20.9804 24.3023 20.9334L24.268 20.9227C24.2248 20.9088 24.1596 20.906 24.1214 20.886L24.085 20.8618C23.8916 20.8566 23.5488 20.7061 23.3359 20.653L23.2914 20.6424C23.0927 20.5873 22.8546 20.6544 22.6741 20.6001C22.6069 20.5798 22.614 20.5081 22.5184 20.5163C22.3849 20.5278 22.2023 20.5403 22.088 20.4609L22.0627 20.4425C21.9283 20.3486 21.8118 20.2509 21.965 20.1213L21.9622 20.0313C21.9168 20.0348 21.8584 20.0392 21.8145 20.0298L21.7736 20.0137C21.7127 19.9962 21.676 19.9967 21.6216 19.9593L21.6402 19.9277L23.6015 20.0061C23.5396 20.0161 23.5085 20.0393 23.4759 20.0912C23.4319 20.1609 23.3556 20.1102 23.284 20.1824L23.4606 20.2269C23.5129 20.2679 23.563 20.2893 23.6305 20.2794L23.6669 20.2716C23.7141 20.2988 24.729 20.3818 24.7905 20.3519L24.7857 20.2854L24.6477 20.2052C24.6355 20.2112 24.0829 20.0465 24.0182 20.0309L23.9112 20.0602C23.9466 19.9338 24.221 20.0045 24.3426 19.9969C26.3191 20.1716 28.0439 22.3413 28.2204 24.2563C28.2854 24.9618 28.2786 26.4501 28.219 27.1517L28.1988 27.4177L28.1355 27.4048C27.9937 27.5386 28.028 27.8944 28.0278 28.0679L28.0279 28.8184C28.028 29.2548 28.0584 29.7184 28.008 30.1513C27.7107 32.7041 25.7946 34.017 23.3884 34.0267L18.3748 34.0369C18.0027 34.0528 17.7336 34.423 17.4877 34.6711L16.202 35.9916C15.3112 36.907 14.4027 37.8403 13.0181 37.0973C11.643 36.3593 12.1007 34.812 11.2603 34.5809L10.5436 34.366C10.0422 34.1916 9.56664 33.937 9.12945 33.6376Z" fill="url(#paint0_linear_126_5554)"/>
<path d="M17.9971 19.6542L17.9997 17.1651C18.0001 16.6903 17.9555 16.169 18.0477 15.7033C18.3681 14.0862 19.5531 12.9498 21.161 12.6734C21.5905 12.5995 22.0567 12.6261 22.492 12.6261L38.6717 12.6228C38.9486 12.6212 39.2451 12.5951 39.5195 12.6273C41.1655 12.8201 42.4761 14.2114 42.732 15.8169C42.8058 16.2802 42.7655 16.7931 42.7659 17.2633L42.7665 22.6586C42.7664 23.2113 42.812 23.8147 42.7174 24.3601C42.4558 25.8683 41.1386 27.1713 39.6119 27.3662C39.1716 27.4224 38.5867 27.2908 38.2801 27.6883C37.6125 28.554 38.5107 30.2912 36.8412 30.7396L36.7972 30.7517C35.8019 31.0171 35.2043 30.4132 34.5851 29.7492L33.4499 28.51C33.1374 28.1643 32.826 27.7872 32.459 27.4978C32.1828 27.2801 31.5962 27.3993 31.2676 27.3993L28.9862 27.404C28.7383 27.4072 28.4395 27.4659 28.1989 27.413L28.219 27.1519C28.2787 26.4503 28.2855 24.962 28.2205 24.2565C28.044 22.3415 26.3191 20.1718 24.3426 19.9971C23.9837 19.9015 23.5774 19.913 23.2087 19.9124L18.0197 19.9075L17.9971 19.6542Z" fill="#4F378A"/>
<path d="M35.9798 20.2695C37.0879 20.174 37.3605 21.666 36.2719 21.927C34.9901 21.957 34.9058 20.5161 35.9798 20.2695Z" fill="#FFD6FA"/>
<path d="M32.9666 21.7068C32.9403 21.7585 32.8222 21.8224 32.7717 21.8487C31.6433 22.4373 30.9065 20.7254 32.0395 20.2953C32.289 20.2006 32.5597 20.2502 32.7942 20.3582C33.1572 20.6156 33.3851 21.2326 33.0645 21.613L32.9666 21.7068Z" fill="#FFD6FA"/>
<defs>
<linearGradient id="paint0_linear_126_5554" x1="24.3149" y1="34.8354" x2="15.785" y2="24.9837" gradientUnits="userSpaceOnUse">
<stop stop-color="#FF00E5"/>
<stop offset="1" stop-color="#FFD6FA"/>
</linearGradient>
</defs>
</svg>
