<svg width="50" height="50" viewBox="0 0 50 50" fill="none" xmlns="http://www.w3.org/2000/svg">
<path d="M36.0215 12.2526V38.2851C36.0215 39.4083 35.1025 40.3226 33.9722 40.3226H16.5654C15.4351 40.3226 14.5161 39.4083 14.5161 38.2851V12.2526C14.5161 11.1294 15.4351 10.2151 16.5654 10.2151H33.9722C35.1025 10.2151 36.0215 11.1294 36.0215 12.2526Z" fill="#FF99F5"/>
<path d="M32.2578 13.9785H17.7417V18.2796H32.2578V13.9785Z" fill="white"/>
<path d="M22.0428 20.9678H17.7417V25.2688H22.0428V20.9678Z" fill="#4F378A"/>
<path d="M27.4192 20.9678H23.1182V25.2688H27.4192V20.9678Z" fill="#4F378A"/>
<path d="M32.2581 20.9678H28.4946V25.2688H32.2581V20.9678Z" fill="#4F378A"/>
<path d="M22.0428 26.8818H17.7417V31.1829H22.0428V26.8818Z" fill="#4F378A"/>
<path d="M27.4192 26.8818H23.1182V31.1829H27.4192V26.8818Z" fill="#4F378A"/>
<path d="M32.2581 26.8818H28.4946V37.0969H32.2581V26.8818Z" fill="#4F378A"/>
<path d="M22.0428 32.7957H17.7417V37.0967H22.0428V32.7957Z" fill="#4F378A"/>
<path d="M27.4192 32.7957H23.1182V37.0967H27.4192V32.7957Z" fill="#4F378A"/>
</svg>
