<svg width="51" height="51" viewBox="0 0 51 51" fill="none" xmlns="http://www.w3.org/2000/svg">
<path d="M29.1159 15.4592L38.8496 15.4587C40.7283 15.4629 42.3883 16.6439 42.5882 18.6064C42.6464 19.1776 42.607 19.7883 42.6072 20.3634L42.5968 31.2895C42.545 32.4121 41.9831 33.5065 40.9875 34.0707C39.883 34.6966 38.5266 34.5335 37.3082 34.5334L12.1052 34.5348C11.5337 34.5349 10.8844 34.5988 10.3324 34.4487C8.93969 34.0698 8.03203 32.8492 7.88418 31.4426C7.83477 30.9728 7.87144 30.4636 7.8722 29.99L7.87177 19.9327C7.87167 19.258 7.82353 18.5892 8.00897 17.9335C8.40203 16.5435 9.69687 15.637 11.0891 15.477C11.4455 15.436 11.8205 15.4575 12.1798 15.4576L20.4085 15.4593L29.1159 15.4592Z" fill="url(#paint0_linear_123_4888)"/>
<path d="M11.4187 16.3223L38.0368 16.3223C39.7144 16.3236 41.2246 16.4024 41.6636 18.3853C41.735 18.7078 41.7128 19.0441 41.7131 19.3728L41.7205 25.3647C41.7218 25.6426 41.7796 25.9127 41.7831 26.1863L41.7836 29.5956C41.7905 31.4049 41.8886 33.2387 39.7143 33.7144L38.9898 33.8062L12.8062 33.803C10.8005 33.8034 8.80238 33.6677 8.70777 31.1727L8.70605 19.1112C8.72238 17.4236 9.70723 16.4111 11.4187 16.3223Z" fill="#FF99F5"/>
<path d="M36.2261 21.2291L36.2799 21.2262C38.1079 21.1634 39.6611 22.9529 39.7018 24.7044C39.7481 26.695 38.2743 28.3783 36.247 28.4247C35.3797 28.4168 34.5626 28.1338 33.9036 27.5595C31.4618 25.4314 32.9744 21.4287 36.2261 21.2291Z" fill="#4F378A"/>
<path d="M14.0983 21.229C16.9936 21.1092 18.926 24.6842 17.0863 27.0209C16.4194 27.8679 15.5715 28.2968 14.5131 28.4174C9.74571 28.5088 9.57407 21.5683 14.0983 21.229Z" fill="#4F378A"/>
<path d="M25.0227 18.959C28.2185 18.856 30.9788 21.2239 31.1729 24.4586C31.3716 27.7694 28.8358 30.4701 25.5481 30.6659C22.3949 30.8028 19.4862 28.4299 19.3085 25.2276C19.1212 21.8537 21.6888 19.1423 25.0227 18.959Z" fill="#4F378A"/>
<path d="M25.0529 20.4174C25.6857 20.3913 25.8399 20.8263 25.8248 21.3509C27.7984 22.1427 27.4695 24.1343 26.411 23.8638C26.0236 23.7647 26.1424 22.7402 25.52 22.6173C24.6577 22.4471 23.9242 23.132 24.4894 23.8334C24.7771 24.1905 25.4267 24.0781 25.8342 24.1358L25.8717 24.1414C27.6022 24.381 27.9964 27.0957 26.0373 27.87L26.0047 27.8828C26.0142 28.2688 25.9987 28.5558 25.6272 28.7478C24.6853 28.9993 24.7474 28.5012 24.5891 27.961L24.5167 27.9514C24.2929 27.9241 24.0946 27.7219 23.9424 27.5655C23.3985 27.0065 22.9211 25.5663 24.0406 25.6632C24.4557 25.6993 24.4002 26.2307 24.6391 26.5089C25.3606 27.3491 26.7252 26.1787 25.9145 25.5025L25.8859 25.479C25.6867 25.3083 24.8741 25.3925 24.5661 25.3431C22.6342 25.0335 22.7252 21.9346 24.3623 21.4757C24.9927 21.2989 24.1938 20.6088 25.0529 20.4174Z" fill="#FF99F5"/>
<defs>
<linearGradient id="paint0_linear_123_4888" x1="24.8977" y1="15.0121" x2="25.5469" y2="34.9482" gradientUnits="userSpaceOnUse">
<stop stop-color="#FF00E5" stop-opacity="0.4"/>
<stop offset="1" stop-color="white"/>
</linearGradient>
</defs>
</svg>
