<svg width="491" height="708" viewBox="0 0 491 708" fill="none" xmlns="http://www.w3.org/2000/svg">
<path d="M669.562 522.855C666.683 521.105 663.025 521.741 660.878 524.206L632.551 507.013C632.551 506.997 632.551 506.965 632.567 506.933C632.598 506.886 632.598 506.838 632.63 506.774C632.678 506.679 632.71 506.536 632.758 506.44V506.409C632.789 506.281 632.805 506.138 632.869 506.011C632.885 505.963 632.885 505.884 632.917 505.82C632.917 505.772 632.917 505.725 632.948 505.661C632.996 505.407 633.028 505.104 633.028 504.85C633.028 504.77 633.028 504.723 633.028 504.643V504.611C633.028 504.579 633.028 504.564 633.028 504.532C633.028 504.214 632.996 503.896 632.948 503.577C632.948 503.53 632.948 503.498 632.917 503.45C632.869 503.1 632.789 502.782 632.71 502.464C632.71 502.432 632.678 502.416 632.678 502.385C632.678 502.353 632.678 502.353 632.646 502.353C632.598 502.178 632.519 501.987 632.439 501.828C632.439 501.796 632.408 501.796 632.408 501.78C632.328 501.621 632.28 501.462 632.201 501.319V501.303C632.201 501.271 632.169 501.239 632.169 501.239C632.153 501.192 632.089 501.144 632.074 501.064C631.994 500.921 631.914 500.794 631.835 500.683C631.771 500.603 631.692 500.524 631.644 500.46C631.596 500.396 631.565 500.349 631.517 500.301C631.485 500.269 631.485 500.237 631.453 500.221C631.453 500.221 631.453 500.19 631.437 500.19L631.406 500.158C631.326 500.078 631.278 499.999 631.199 499.919C631.119 499.84 631.056 499.76 630.976 499.712C630.928 499.665 630.881 499.601 630.817 499.553C630.769 499.506 630.722 499.442 630.642 499.394C630.578 499.363 630.563 499.315 630.499 499.283C630.419 499.235 630.34 499.156 630.26 499.108C630.165 499.029 630.085 498.965 629.974 498.885C629.926 498.87 629.895 498.838 629.847 498.806C629.815 498.79 629.783 498.758 629.767 498.758C629.704 498.726 629.688 498.71 629.624 498.71C629.608 498.679 629.545 498.647 629.529 498.647C629.465 498.631 629.449 498.599 629.386 498.567C629.37 498.551 629.306 498.551 629.29 498.52C629.211 498.472 629.131 498.44 629.02 498.392C628.94 498.361 628.861 498.313 628.781 498.281C628.749 498.249 628.702 498.249 628.67 498.233C628.654 498.233 628.654 498.233 628.622 498.201C628.59 498.17 628.543 498.17 628.511 498.154H628.495C628.463 498.154 628.431 498.154 628.431 498.122C628.352 498.09 628.256 498.074 628.177 498.042C628.145 498.042 628.113 498.011 628.097 498.011C628.065 498.011 628.018 497.995 627.986 497.995C627.938 497.963 627.875 497.963 627.795 497.931C627.716 497.915 627.62 497.883 627.541 497.883C627.509 497.883 627.477 497.883 627.461 497.852C627.429 497.852 627.429 497.852 627.397 497.852C627.382 497.852 627.35 497.852 627.35 497.852C627.35 497.852 627.35 497.852 627.318 497.852C627.27 497.852 627.191 497.836 627.143 497.836C627.063 497.836 626.984 497.804 626.873 497.804C626.841 497.804 626.825 497.804 626.793 497.804C626.761 497.804 626.714 497.804 626.682 497.804C626.602 497.804 626.523 497.804 626.475 497.804C626.395 497.804 626.316 497.804 626.268 497.804C626.189 497.804 626.125 497.804 626.045 497.804C625.966 497.804 625.886 497.804 625.807 497.804C625.648 497.804 625.521 497.836 625.393 497.852C625.314 497.852 625.234 497.883 625.155 497.883H625.123C625.091 497.883 625.091 497.883 625.075 497.883C624.964 497.915 624.853 497.931 624.757 497.963C624.678 497.995 624.598 498.011 624.519 498.011H624.487L554.758 349.519C554.79 349.519 554.79 349.488 554.822 349.488C554.838 349.456 554.87 349.456 554.87 349.44C555.108 349.249 555.347 349.058 555.553 348.851C555.617 348.804 555.665 348.756 555.713 348.692C555.744 348.676 555.744 348.676 555.776 348.645C555.983 348.438 556.19 348.167 556.381 347.929C556.412 347.881 556.46 347.818 556.492 347.77C556.492 347.738 556.508 347.738 556.508 347.722C556.54 347.69 556.54 347.643 556.571 347.611C556.587 347.579 556.619 347.563 556.651 347.499C556.699 347.42 556.73 347.34 556.778 347.293C556.826 347.213 556.89 347.102 556.937 347.022C556.969 346.943 557.017 346.895 557.049 346.815C557.049 346.784 557.065 346.784 557.065 346.768C557.096 346.736 557.096 346.688 557.128 346.656C557.144 346.577 557.208 346.497 557.224 346.418C557.287 346.291 557.335 346.147 557.367 346.02C557.383 345.941 557.414 345.893 557.446 345.813C557.494 345.654 557.526 345.511 557.542 345.352C557.542 345.305 557.573 345.225 557.573 345.177L647.995 346.418C648.504 349.647 651.287 352.144 654.643 352.191C658.413 352.239 661.514 349.217 661.562 345.464C661.61 341.71 658.588 338.608 654.834 338.561C651.462 338.497 648.631 340.931 648.026 344.143L557.573 342.903C557.573 342.871 557.573 342.839 557.573 342.823C557.542 342.712 557.542 342.632 557.526 342.521C557.494 342.442 557.494 342.362 557.462 342.283C557.446 342.235 557.446 342.187 557.414 342.108C557.383 342.028 557.367 341.949 557.335 341.869C557.303 341.789 557.287 341.678 557.255 341.599C557.208 341.471 557.144 341.36 557.096 341.233C557.065 341.201 557.065 341.153 557.049 341.121C557.049 341.09 557.017 341.074 557.017 341.042C556.985 341.01 556.985 340.994 556.969 340.931C556.905 340.835 556.858 340.724 556.81 340.612C556.778 340.565 556.746 340.517 556.699 340.453C556.619 340.326 556.54 340.199 556.428 340.072C556.412 340.04 556.412 340.008 556.381 340.008C556.349 339.96 556.301 339.929 556.269 339.881C556.19 339.77 556.11 339.674 556.015 339.563C555.983 339.515 555.935 339.483 555.903 339.435C555.792 339.324 555.697 339.197 555.585 339.086C555.553 339.054 555.538 339.038 555.474 338.974C555.458 338.958 555.426 338.927 555.394 338.895C555.299 338.799 555.156 338.688 555.06 338.608C554.981 338.561 554.917 338.497 554.838 338.449C554.758 338.402 554.711 338.338 554.631 338.29C554.631 338.29 554.599 338.29 554.599 338.258C554.583 338.243 554.551 338.243 554.52 338.211C554.504 338.179 554.472 338.163 554.424 338.131C554.392 338.099 554.361 338.099 554.313 338.084C554.074 337.94 553.836 337.813 553.597 337.702C553.565 337.686 553.549 337.686 553.486 337.654C553.438 337.622 553.359 337.606 553.311 337.575H553.279C553.009 337.463 552.754 337.384 552.452 337.304C552.404 337.304 552.357 337.288 552.293 337.288C552.245 337.288 552.198 337.256 552.134 337.256L556.015 209.935C559.275 209.49 561.757 206.786 561.884 203.398C561.963 199.613 559.053 196.511 555.267 196.384C551.482 196.304 548.38 199.215 548.237 203C548.158 206.388 550.496 209.219 553.708 209.887L549.828 337.209C549.78 337.209 549.732 337.225 549.669 337.225C549.382 337.288 549.096 337.336 548.794 337.416C548.778 337.416 548.778 337.416 548.746 337.416L448.13 140.382C448.145 140.366 448.177 140.334 448.209 140.302C448.368 140.175 448.543 140.048 448.702 139.888C448.766 139.825 448.814 139.777 448.845 139.745C448.861 139.729 448.893 139.698 448.893 139.698C448.941 139.65 449.004 139.586 449.02 139.57C449.179 139.379 449.338 139.189 449.482 139.014C449.497 138.982 449.529 138.95 449.529 138.902C449.561 138.855 449.609 138.791 449.641 138.743C449.656 138.696 449.72 138.632 449.736 138.584C449.879 138.393 449.975 138.187 450.086 137.98C450.086 137.948 450.118 137.948 450.118 137.932C450.165 137.853 450.197 137.741 450.213 137.662C450.245 137.63 450.245 137.582 450.277 137.55C450.356 137.344 450.436 137.137 450.515 136.898C450.515 136.866 450.531 136.819 450.531 136.787C450.563 136.707 450.595 136.628 450.611 136.517C450.611 136.501 450.611 136.501 450.611 136.469C450.674 136.198 450.722 135.96 450.754 135.705C450.754 135.674 450.77 135.626 450.77 135.594C450.77 135.546 450.77 135.483 450.77 135.435C450.77 135.387 450.802 135.324 450.802 135.244C450.802 135.165 450.802 135.085 450.802 135.006C450.802 134.926 450.802 134.846 450.802 134.767C450.802 134.608 450.802 134.481 450.77 134.322C450.77 134.274 450.77 134.242 450.77 134.194C450.77 134.131 450.754 134.115 450.754 134.051C450.722 133.924 450.69 133.797 450.674 133.638C450.643 133.558 450.643 133.479 450.611 133.431C450.611 133.399 450.611 133.399 450.611 133.367L522.2 103.052C523.966 105.804 527.465 106.981 530.598 105.645C534.066 104.165 535.688 100.189 534.225 96.7058C532.745 93.2384 528.769 91.6161 525.27 93.0794C522.168 94.4313 520.53 97.7396 521.294 100.905L449.72 131.204C449.688 131.172 449.688 131.141 449.656 131.125C449.609 131.061 449.577 130.982 449.529 130.934C449.482 130.886 449.45 130.807 449.402 130.743C449.338 130.695 449.322 130.648 449.291 130.584C449.243 130.536 449.179 130.488 449.132 130.409C449.084 130.345 449.02 130.266 448.973 130.218C448.925 130.17 448.893 130.139 448.845 130.091C448.782 130.027 448.734 129.98 448.686 129.932C448.623 129.868 448.543 129.82 448.495 129.773C448.448 129.741 448.416 129.693 448.368 129.661C448.305 129.614 448.225 129.582 448.177 129.534C448.098 129.486 448.018 129.423 447.939 129.375C447.939 129.375 447.939 129.375 447.907 129.375C447.891 129.343 447.859 129.327 447.811 129.296C447.748 129.248 447.668 129.216 447.621 129.184C447.541 129.137 447.43 129.089 447.35 129.025C447.35 129.025 447.334 129.025 447.334 129.009C447.302 128.977 447.271 128.977 447.255 128.946C447.191 128.93 447.143 128.898 447.064 128.866C446.953 128.818 446.857 128.771 446.746 128.707C446.714 128.691 446.666 128.691 446.634 128.659C446.587 128.628 446.539 128.612 446.46 128.58C446.38 128.548 446.3 128.532 446.221 128.5L453.951 84.7927C457.243 84.7927 460.106 82.4865 460.711 79.1464C461.347 75.4087 458.913 71.9254 455.176 71.2574C451.438 70.6212 447.939 73.0547 447.271 76.7924C446.714 80.1325 448.623 83.2818 451.692 84.3951L444.074 128.023C444.01 128.023 443.962 128.023 443.915 128.023C443.724 128.023 443.533 128.023 443.374 128.055C443.358 128.055 443.326 128.055 443.278 128.055C443.247 128.055 443.247 128.055 443.215 128.055C443.167 128.055 443.135 128.055 443.088 128.071C442.96 128.103 442.817 128.134 442.69 128.15C442.658 128.15 442.642 128.182 442.579 128.182C442.404 128.214 442.213 128.262 442.054 128.309C442.022 128.309 442.022 128.309 442.006 128.341C441.974 128.341 441.927 128.373 441.895 128.373C441.736 128.421 441.608 128.469 441.449 128.532C441.386 128.548 441.338 128.58 441.259 128.612C441.147 128.659 441.052 128.691 440.94 128.739C440.909 128.739 440.893 128.771 440.861 128.771C440.861 128.771 440.861 128.771 440.829 128.771H440.813C440.75 128.787 440.702 128.818 440.654 128.866C440.511 128.946 440.352 129.025 440.225 129.105C440.193 129.137 440.177 129.168 440.113 129.184C440.018 129.264 439.907 129.343 439.795 129.423L329.524 29.697C329.604 29.5539 329.683 29.4585 329.747 29.3153C329.763 29.2676 329.795 29.2199 329.826 29.1403C329.986 28.8382 330.113 28.52 330.224 28.2337C330.24 28.186 330.24 28.1383 330.272 28.1065C330.383 27.8202 330.431 27.5021 330.479 27.1999C330.479 27.1204 330.51 27.0727 330.51 26.9931C330.558 26.6432 330.558 26.3251 330.558 25.9911C330.558 25.9275 330.558 25.9116 330.558 25.848L359.362 19.9948C360.555 23.0486 363.736 24.8777 367.077 24.2097C370.798 23.4145 373.152 19.8994 372.405 16.1617C371.61 12.4558 368.094 10.1018 364.357 10.8493C361.017 11.5492 358.79 14.4757 358.885 17.7204L330.081 23.5735C329.954 23.2077 329.763 22.8578 329.556 22.5238C329.556 22.492 329.524 22.492 329.524 22.4601C329.349 22.142 329.111 21.8557 328.872 21.5695C328.84 21.5376 328.809 21.5058 328.793 21.4899C328.554 21.2195 328.315 20.981 328.013 20.7742C327.966 20.7424 327.934 20.6947 327.886 20.6629C327.616 20.4561 327.329 20.2652 327.043 20.1062C326.979 20.0744 326.932 20.0585 326.884 20.0266C326.614 19.8994 326.327 19.7563 326.025 19.6608C325.977 19.629 325.93 19.6131 325.85 19.5813C325.548 19.47 325.23 19.3904 324.912 19.3427C324.832 19.3109 324.753 19.3109 324.657 19.295C324.339 19.2314 324.021 19.2155 323.671 19.2155C323.592 19.2155 323.512 19.2155 323.433 19.2155C323.114 19.2155 322.828 19.2314 322.51 19.295C322.478 19.295 322.446 19.3109 322.431 19.3109C322.399 19.3109 322.351 19.3109 322.319 19.3109C322.001 19.3904 321.715 19.47 321.397 19.5813C321.317 19.6131 321.269 19.629 321.19 19.6608C320.872 19.7881 320.554 19.9153 320.252 20.0744C320.204 20.1062 320.124 20.1539 320.077 20.1857C319.774 20.3766 319.488 20.5515 319.25 20.7742C319.218 20.7901 319.202 20.8219 319.17 20.8537C318.9 21.0605 318.661 21.3309 318.454 21.5695C318.422 21.5854 318.407 21.6172 318.407 21.649C318.168 21.9035 317.977 22.2057 317.786 22.5238C317.77 22.5397 317.738 22.6033 317.738 22.6192C317.548 22.9373 317.42 23.2554 317.293 23.6053C317.293 23.6371 317.261 23.653 317.261 23.7167C317.134 24.0507 317.055 24.4165 316.975 24.7982C316.975 24.8141 316.975 24.8141 316.975 24.8459C316.943 24.9573 316.911 25.0845 316.911 25.1959L143.91 34.4368V34.405C143.91 34.3732 143.894 34.3255 143.894 34.2936C143.863 34.2459 143.863 34.1982 143.831 34.1346C143.815 34.0551 143.783 33.9755 143.751 33.896C143.751 33.8801 143.735 33.8483 143.735 33.8006C143.672 33.6574 143.624 33.5302 143.576 33.4029C143.544 33.3393 143.513 33.2598 143.497 33.2121C143.465 33.1644 143.465 33.1326 143.433 33.0848C143.385 32.9735 143.338 32.8622 143.274 32.7826C143.258 32.7349 143.226 32.6872 143.195 32.6554C143.147 32.5441 143.067 32.4486 143.02 32.3373C142.988 32.2896 142.94 32.2419 142.908 32.1782C142.876 32.1305 142.861 32.0987 142.829 32.051C142.781 31.9715 142.701 31.892 142.638 31.7806C142.622 31.7647 142.59 31.7011 142.558 31.6852C142.479 31.5738 142.399 31.4625 142.304 31.3671C142.272 31.3353 142.24 31.3035 142.193 31.2557C142.161 31.2239 142.161 31.2239 142.145 31.208C142.113 31.1762 142.081 31.1444 142.065 31.1285C142.033 31.0967 142.002 31.0967 142.002 31.0649C141.954 31.0172 141.874 30.9376 141.827 30.8899C141.795 30.8581 141.795 30.8581 141.763 30.8263C141.556 30.6513 141.318 30.4605 141.079 30.3014C141.031 30.2696 141 30.2537 140.952 30.2219C140.793 30.1106 140.602 30.0151 140.411 29.9356L140.395 29.9038C140.236 29.8243 140.077 29.7447 139.886 29.6652C139.839 29.6334 139.807 29.6334 139.759 29.6175C139.616 29.5539 139.457 29.5062 139.33 29.4585C139.298 29.4585 139.282 29.4266 139.25 29.4266C139.059 29.3789 138.9 29.3153 138.725 29.2994C138.693 29.2994 138.646 29.2676 138.614 29.2676C138.614 29.2676 138.614 29.2676 138.582 29.2676C138.534 29.2676 138.502 29.2358 138.455 29.2358C138.359 29.2199 138.248 29.2199 138.121 29.1881C138.089 29.1881 138.041 29.1881 138.009 29.1881C137.819 29.1563 137.66 29.1563 137.485 29.1403C137.453 29.1403 137.453 29.1403 137.421 29.1403L135.671 16.1299C138.805 15.1597 140.809 12.0899 140.395 8.71803C139.854 4.96439 136.467 2.40365 132.713 2.88081C128.943 3.40568 126.367 6.7935 126.844 10.5471C127.321 13.919 130.089 16.3207 133.365 16.448L135.115 29.4266C135.067 29.4585 134.987 29.4744 134.94 29.5062C134.86 29.538 134.781 29.5539 134.669 29.6175C134.622 29.6334 134.542 29.6652 134.478 29.697C134.319 29.7447 134.192 29.8243 134.033 29.9038C133.954 29.9515 133.874 29.9833 133.795 30.031C133.683 30.0947 133.588 30.1742 133.476 30.2219C133.429 30.2537 133.365 30.3014 133.317 30.3332C133.206 30.4128 133.111 30.4923 132.999 30.5718C132.952 30.6195 132.888 30.6513 132.84 30.6991C132.681 30.8263 132.554 30.9694 132.395 31.0967C132.363 31.1285 132.331 31.1285 132.315 31.1444C132.284 31.1762 132.284 31.208 132.252 31.2239C132.204 31.2876 132.172 31.3035 132.124 31.3671L132.093 31.383L132.077 31.4148L132.045 31.4466C131.838 31.6852 131.647 31.9238 131.488 32.1782C131.456 32.2101 131.441 32.2419 131.409 32.2896C131.377 32.3214 131.377 32.3373 131.377 32.3373C131.361 32.3691 131.361 32.4009 131.361 32.4009C131.202 32.6554 131.043 32.9417 130.9 33.2439C130.884 33.2916 130.852 33.3234 130.852 33.3711C130.852 33.3711 130.852 33.3711 130.852 33.4029L13.7737 7.19113C13.9009 4.43952 12.3422 1.73564 9.67013 0.574559C6.18688 -0.920535 2.19466 0.669988 0.68367 4.13733C-0.811423 7.58876 0.779101 11.6128 4.26235 13.1238C6.58451 14.1258 9.16116 13.7282 11.0698 12.2967L110.128 105.47C110.096 105.517 110.08 105.549 110.048 105.597C110 105.676 109.968 105.724 109.921 105.804C109.921 105.804 109.921 105.804 109.921 105.835C109.889 105.867 109.889 105.883 109.857 105.915C109.857 105.947 109.841 105.947 109.841 105.963C109.778 106.042 109.762 106.122 109.73 106.201C109.682 106.281 109.65 106.36 109.619 106.44C109.603 106.472 109.603 106.519 109.571 106.551C109.539 106.631 109.523 106.71 109.46 106.79C109.444 106.869 109.412 106.949 109.38 107.028V107.06C109.364 107.108 109.364 107.14 109.332 107.187C109.3 107.267 109.285 107.346 109.253 107.426C109.221 107.537 109.205 107.633 109.173 107.744C109.173 107.776 109.173 107.776 109.141 107.792C109.126 107.871 109.126 107.983 109.094 108.062C109.094 108.094 109.094 108.094 109.094 108.11C109.094 108.142 109.062 108.173 109.062 108.221C109.062 108.269 109.062 108.317 109.046 108.348C109.046 108.396 109.046 108.428 109.014 108.476C109.014 108.539 108.982 108.555 108.982 108.619C108.982 108.635 108.982 108.635 108.982 108.666L61.9188 112.531C61.1076 109.382 58.1334 107.156 54.7614 107.458C51.0078 107.776 48.2244 111.052 48.5107 114.806C48.8606 118.575 52.1212 121.343 55.8748 121.057C59.2467 120.802 61.8393 118.098 62.1415 114.87L109.205 111.005C109.205 111.02 109.205 111.02 109.205 111.052C109.221 111.1 109.221 111.164 109.253 111.211C109.285 111.291 109.3 111.339 109.3 111.418C109.332 111.482 109.364 111.561 109.38 111.609C109.412 111.657 109.412 111.688 109.444 111.736C109.444 111.768 109.444 111.768 109.46 111.8C109.491 111.848 109.523 111.879 109.523 111.927C109.539 111.975 109.539 112.007 109.571 112.054C109.603 112.118 109.619 112.197 109.65 112.245C109.65 112.245 109.65 112.277 109.682 112.277C109.682 112.277 109.682 112.293 109.698 112.293C109.73 112.325 109.73 112.357 109.762 112.372C109.778 112.436 109.809 112.452 109.809 112.5C109.841 112.563 109.857 112.579 109.889 112.643C109.921 112.691 109.968 112.738 110 112.818C110.016 112.881 110.08 112.961 110.096 113.009C110.128 113.04 110.128 113.056 110.159 113.088C110.175 113.136 110.207 113.199 110.255 113.215C110.287 113.279 110.334 113.327 110.398 113.374C110.398 113.374 110.398 113.374 110.414 113.406C110.414 113.438 110.446 113.438 110.446 113.454C110.477 113.486 110.477 113.518 110.493 113.518C110.493 113.533 110.525 113.534 110.525 113.534C110.525 113.565 110.557 113.565 110.557 113.597C110.605 113.645 110.637 113.693 110.684 113.756C110.732 113.836 110.811 113.883 110.875 113.963C110.891 113.995 110.923 114.011 110.955 114.074L110.971 114.09C111.034 114.154 111.082 114.202 111.13 114.249C111.193 114.313 111.209 114.329 111.273 114.392C111.289 114.408 111.32 114.44 111.352 114.44C111.352 114.44 111.352 114.44 111.368 114.472C111.4 114.488 111.432 114.488 111.432 114.52C111.511 114.567 111.559 114.647 111.639 114.71C111.67 114.726 111.718 114.758 111.75 114.79C111.798 114.806 111.829 114.838 111.877 114.87C111.988 114.949 112.084 114.997 112.195 115.076C112.227 115.108 112.243 115.108 112.243 115.124C112.275 115.124 112.275 115.156 112.307 115.156L112.322 115.188C112.354 115.204 112.402 115.204 112.434 115.235H112.466C112.561 115.283 112.641 115.347 112.752 115.394C112.8 115.426 112.831 115.442 112.879 115.474L102.366 152.295C99.1052 151.961 96.0037 153.965 95.0494 157.193C94.0156 160.82 96.115 164.589 99.7414 165.639C103.368 166.673 107.137 164.589 108.187 160.963C109.126 157.734 107.535 154.346 104.593 152.931L115.138 116.11C115.17 116.11 115.185 116.11 115.217 116.11C115.249 116.11 115.265 116.11 115.297 116.11C115.408 116.11 115.488 116.142 115.583 116.142C115.647 116.142 115.726 116.142 115.774 116.142C115.806 116.142 115.806 116.142 115.822 116.142C115.901 116.142 115.965 116.142 116.044 116.142C116.124 116.142 116.172 116.142 116.251 116.142C116.41 116.142 116.569 116.11 116.728 116.078C116.776 116.078 116.84 116.078 116.887 116.062C117.046 116.031 117.205 115.999 117.364 115.951C117.412 115.951 117.476 115.919 117.523 115.919C117.651 115.903 117.794 115.84 117.921 115.824C117.953 115.824 118.001 115.792 118.032 115.792H118.048C118.08 115.792 118.112 115.76 118.128 115.76C118.207 115.744 118.271 115.713 118.351 115.681C118.414 115.665 118.494 115.601 118.573 115.585C118.637 115.553 118.685 115.522 118.716 115.522C118.732 115.522 118.764 115.506 118.764 115.506C118.844 115.442 118.923 115.426 119.003 115.363C119.034 115.363 119.034 115.363 119.05 115.347L295.058 339.372C294.358 340.151 293.833 341.074 293.563 342.076L240.916 336.302C240.694 333.042 238.181 330.322 234.809 329.956C231.055 329.558 227.715 332.246 227.285 336.016C226.888 339.77 229.592 343.11 233.361 343.539C236.717 343.873 239.739 341.758 240.646 338.608L293.467 344.271C293.483 344.78 293.563 345.257 293.706 345.75C294.183 347.372 295.185 348.676 296.489 349.519C296.648 349.647 296.807 349.806 296.966 349.933L296.982 349.965C297.364 350.283 297.777 350.553 298.239 350.76L292.115 399.573C288.855 399.716 286.071 402.229 285.642 405.569C285.165 409.291 287.837 412.711 291.574 413.188C295.312 413.665 298.732 410.993 299.209 407.255C299.638 403.915 297.539 400.83 294.421 399.875L300.481 351.428C300.704 351.444 300.911 351.444 301.118 351.476C301.181 351.476 301.229 351.476 301.277 351.476C301.626 351.476 301.976 351.444 302.295 351.396C302.342 351.396 302.422 351.364 302.469 351.364C302.788 351.317 303.138 351.237 303.456 351.126C303.503 351.11 303.567 351.078 303.646 351.078C303.965 350.967 304.283 350.808 304.569 350.649C304.617 350.633 304.648 350.601 304.696 350.569C304.983 350.41 305.253 350.235 305.523 350.012C305.539 349.997 305.571 349.997 305.603 349.965C305.651 349.917 305.73 349.853 305.778 349.806L418.116 440.116C418.116 440.147 418.1 440.147 418.1 440.163C418.021 440.306 417.957 440.402 417.91 440.545C417.878 440.561 417.878 440.625 417.862 440.64C417.83 440.672 417.83 440.72 417.798 440.752C417.751 440.911 417.703 441.038 417.639 441.197C417.623 441.261 417.592 441.308 417.592 441.356C417.56 441.436 417.544 441.547 417.512 441.642C417.512 441.706 417.48 441.754 417.48 441.786C417.48 441.786 417.48 441.786 417.48 441.802C417.464 441.881 417.464 441.945 417.432 442.024C417.401 442.151 417.385 442.279 417.353 442.422C417.321 442.501 417.321 442.597 417.305 442.676C417.305 442.74 417.305 442.788 417.273 442.835C417.273 442.867 417.273 442.899 417.273 442.915C417.273 442.947 417.273 442.994 417.273 443.026C417.273 443.138 417.273 443.233 417.242 443.344C417.242 443.392 417.242 443.424 417.242 443.472C417.242 443.503 417.242 443.535 417.242 443.583C417.242 443.71 417.242 443.853 417.273 444.012C417.273 444.028 417.273 444.092 417.305 444.108C417.321 444.299 417.353 444.505 417.385 444.696C417.385 444.728 417.385 444.728 417.385 444.728C417.48 445.285 417.671 445.81 417.91 446.303C417.91 446.335 417.91 446.335 417.941 446.366C417.941 446.366 417.941 446.382 417.957 446.382C418.037 446.573 418.148 446.732 418.26 446.923C418.387 447.162 418.546 447.368 418.737 447.607C418.753 447.639 418.784 447.655 418.832 447.718C418.864 447.734 418.896 447.766 418.912 447.798C418.943 447.846 418.991 447.877 419.023 447.925C419.214 448.116 419.373 448.291 419.548 448.482C419.58 448.514 419.58 448.514 419.612 448.529C419.659 448.593 419.707 448.609 419.739 448.641C419.786 448.673 419.818 448.72 419.866 448.752C420.089 448.911 420.264 449.07 420.502 449.197C420.534 449.229 420.566 449.245 420.582 449.245C420.645 449.277 420.693 449.309 420.725 449.325C420.741 449.357 420.804 449.357 420.82 449.388C421.059 449.516 421.297 449.627 421.536 449.722C421.568 449.754 421.616 449.754 421.647 449.786C421.695 449.802 421.759 449.834 421.775 449.834H421.806C422.077 449.929 422.363 449.993 422.649 450.072C422.713 450.072 422.729 450.088 422.793 450.088C422.84 450.088 422.872 450.12 422.92 450.12C422.952 450.12 422.967 450.152 422.999 450.152L423.588 509.208C420.375 509.796 417.957 512.612 417.957 515.999C418.021 519.785 421.059 522.775 424.86 522.743C428.646 522.695 431.636 519.642 431.62 515.856C431.556 512.468 429.091 509.717 425.862 509.192L425.274 450.12C425.306 450.12 425.337 450.088 425.353 450.088C425.592 450.04 425.815 449.993 426.053 449.929C426.133 449.913 426.212 449.881 426.292 449.85C426.339 449.834 426.387 449.834 426.451 449.802C426.451 449.802 426.451 449.802 426.467 449.802C426.658 449.722 426.848 449.643 427.055 449.563C427.103 449.547 427.182 449.484 427.246 449.468C427.262 449.436 427.294 449.436 427.326 449.436L621.099 696.19C620.988 696.317 620.876 696.444 620.797 696.587C620.669 696.746 620.542 696.905 620.431 697.065C620.32 697.224 620.24 697.399 620.145 697.589C620.033 697.78 619.954 697.939 619.874 698.114C619.795 698.273 619.763 698.464 619.683 698.623C619.604 698.83 619.556 699.021 619.508 699.259C619.477 699.419 619.445 699.578 619.429 699.737C619.397 699.975 619.349 700.182 619.349 700.421C619.349 700.58 619.349 700.77 619.349 700.93C619.349 701.168 619.349 701.375 619.365 701.613C619.397 701.852 619.445 702.059 619.508 702.297C619.524 702.456 619.556 702.6 619.588 702.759C619.588 702.775 619.588 702.775 619.604 702.806C619.636 702.854 619.636 702.886 619.667 702.934C619.763 703.252 619.906 703.57 620.033 703.856C620.065 703.92 620.081 703.967 620.113 704.015C620.272 704.333 620.479 704.635 620.701 704.922C620.717 704.954 620.749 705.001 620.781 705.033C620.797 705.049 620.829 705.081 620.86 705.128C620.908 705.192 620.956 705.272 621.019 705.319C621.115 705.431 621.194 705.526 621.306 705.637C621.353 705.685 621.433 705.749 621.497 705.828C621.592 705.924 621.703 706.003 621.815 706.083C621.862 706.146 621.942 706.194 621.99 706.242C622.101 706.321 622.212 706.401 622.308 706.48C622.387 706.544 622.467 706.592 622.546 706.624C622.658 706.703 622.769 706.751 622.864 706.799C622.976 706.862 623.087 706.91 623.183 706.958C623.262 707.021 623.342 707.037 623.453 707.085C623.612 707.164 623.771 707.228 623.962 707.276C623.978 707.276 624.041 707.307 624.057 707.307C624.853 707.562 625.68 707.673 626.523 707.626C626.586 707.626 626.602 707.626 626.666 707.626C626.793 707.626 626.952 707.594 627.079 707.562C627.159 707.562 627.27 707.546 627.35 707.546C627.461 707.514 627.556 707.482 627.668 707.467C627.795 707.435 627.906 707.403 628.034 707.387C628.065 707.387 628.097 707.387 628.113 707.355C628.177 707.323 628.256 707.307 628.304 707.307C628.431 707.244 628.574 707.228 628.702 707.164C628.781 707.148 628.893 707.101 628.972 707.069C629.067 707.021 629.211 706.958 629.306 706.91C629.417 706.862 629.497 706.799 629.608 706.751C629.704 706.703 629.815 706.639 629.895 706.56C629.974 706.512 630.085 706.433 630.165 706.385C630.244 706.321 630.292 706.274 630.372 706.226C630.404 706.194 630.419 706.162 630.451 706.146C630.531 706.067 630.61 706.003 630.69 705.924C630.769 705.844 630.849 705.765 630.96 705.685C631.04 705.606 631.119 705.526 631.167 705.447C631.246 705.367 631.326 705.272 631.406 705.192C631.453 705.113 631.517 705.033 631.596 704.954C631.676 704.842 631.755 704.731 631.835 704.635C631.883 704.556 631.914 704.476 631.962 704.413C632.042 704.317 632.089 704.206 632.169 704.079C632.233 703.999 632.249 703.888 632.312 703.808C632.36 703.697 632.408 703.602 632.471 703.49C632.519 703.363 632.567 703.22 632.598 703.124C632.614 703.045 632.646 702.965 632.678 702.902C632.726 702.759 632.773 702.568 632.805 702.377C632.805 702.361 632.837 702.297 632.837 702.281C632.885 702.091 632.917 701.884 632.932 701.693C632.932 701.661 632.932 701.661 632.932 701.645C632.964 701.454 632.964 701.248 632.996 701.057C632.996 701.025 632.996 701.009 632.996 700.977C632.996 700.818 632.996 700.627 632.996 700.468C632.996 700.421 632.996 700.373 632.996 700.309C632.996 700.182 632.964 700.055 632.932 699.912C632.932 699.816 632.917 699.737 632.885 699.625C632.853 699.514 632.837 699.419 632.805 699.307C632.773 699.18 632.758 699.069 632.726 698.941C632.726 698.91 632.726 698.878 632.694 698.862C632.694 698.83 632.678 698.798 632.678 698.782C632.567 698.416 632.408 698.067 632.249 697.717C632.249 697.717 632.249 697.701 632.233 697.701C632.042 697.351 631.851 697.033 631.612 696.715C631.612 696.715 631.612 696.683 631.596 696.683C631.565 696.667 631.565 696.635 631.533 696.603C631.406 696.444 631.278 696.349 631.135 696.19C631.008 696.047 630.881 695.888 630.737 695.76C630.578 695.633 630.419 695.49 630.26 695.394C630.101 695.283 629.974 695.156 629.783 695.045C629.624 694.933 629.449 694.854 629.29 694.774C629.099 694.679 628.908 694.599 628.733 694.52C628.574 694.456 628.415 694.408 628.256 694.361C628.034 694.281 627.827 694.202 627.588 694.17C627.509 694.154 627.397 694.154 627.318 694.122V511.355C627.477 511.339 627.668 511.276 627.827 511.228C627.859 511.228 627.906 511.228 627.938 511.196C628.018 511.18 628.113 511.18 628.193 511.148H628.224C628.256 511.148 628.304 511.117 628.336 511.117C628.352 511.117 628.415 511.101 628.431 511.101C628.495 511.069 628.543 511.037 628.59 511.021C628.829 510.91 629.067 510.83 629.306 510.703C629.338 510.671 629.386 510.671 629.417 510.639C629.449 510.623 629.497 510.592 629.529 510.592C629.545 510.56 629.608 510.544 629.624 510.512C629.863 510.385 630.085 510.226 630.292 510.067C630.372 510.003 630.419 509.955 630.499 509.908L630.531 509.876L630.563 509.844C630.801 509.669 631.008 509.446 631.199 509.208C631.215 509.192 631.278 509.16 631.294 509.112L659.621 526.29C658.429 529.344 659.574 532.859 662.437 534.624C665.665 536.565 669.848 535.563 671.821 532.334C673.825 528.994 672.775 524.811 669.562 522.855ZM469.554 301.311C472.449 303.076 476.075 302.488 478.286 300.054L544.42 341.28C544.404 341.328 544.404 341.392 544.372 341.44C544.293 341.678 544.213 341.917 544.134 342.155C544.102 342.203 544.102 342.283 544.086 342.346C544.054 342.426 544.054 342.505 544.022 342.585C544.006 342.744 543.974 342.903 543.943 343.062L429.314 349.408C429.282 349.249 429.234 349.058 429.171 348.899C429.171 348.883 429.171 348.851 429.155 348.82C429.123 348.74 429.091 348.692 429.075 348.613C429.043 348.565 429.011 348.486 428.996 348.438C428.996 348.406 428.964 348.374 428.964 348.358V348.327C428.884 348.167 428.805 347.977 428.725 347.818C428.693 347.802 428.693 347.738 428.677 347.722C428.614 347.643 428.598 347.563 428.534 347.499C428.518 347.452 428.487 347.42 428.455 347.404C428.455 347.404 428.455 347.372 428.439 347.372C428.407 347.34 428.407 347.324 428.375 347.293C428.375 347.261 428.359 347.261 428.359 347.245C428.359 347.245 428.359 347.213 428.328 347.213C428.248 347.086 428.137 346.943 428.057 346.815C428.057 346.784 428.041 346.784 428.041 346.768L469.506 301.247C469.538 301.279 469.554 301.279 469.554 301.311ZM546.01 348.772L527.194 376.701C524.236 375.381 520.626 376.336 518.749 379.119C518.59 379.326 518.463 379.564 518.351 379.803L429.441 351.842C429.441 351.794 429.441 351.762 429.441 351.714L544.086 345.352C544.102 345.464 544.134 345.575 544.165 345.67C544.165 345.734 544.181 345.75 544.213 345.813V345.829C544.213 345.861 544.213 345.893 544.245 345.909C544.324 346.179 544.42 346.466 544.563 346.736C544.563 346.768 544.579 346.784 544.611 346.815C544.643 346.863 544.658 346.895 544.658 346.943C544.738 347.086 544.817 347.213 544.897 347.34C545.008 347.531 545.12 347.722 545.215 347.881C545.247 347.897 545.279 347.929 545.295 347.977C545.374 348.088 545.485 348.199 545.565 348.295C545.692 348.438 545.851 348.613 546.01 348.772ZM430.952 358.649L620.113 501.383C620.065 501.51 619.986 501.637 619.922 501.748C619.906 501.828 619.874 501.876 619.842 501.955C619.795 502.098 619.747 502.225 619.683 502.353C619.667 502.432 619.636 502.512 619.604 502.591C619.556 502.734 619.524 502.862 619.508 503.021C619.477 503.1 619.477 503.18 619.445 503.228C619.445 503.228 619.445 503.228 619.445 503.259C619.429 503.387 619.397 503.53 619.397 503.657C619.397 503.737 619.365 503.848 619.365 503.927C619.365 504.055 619.349 504.182 619.349 504.325C619.349 504.373 619.349 504.42 619.349 504.484C619.349 504.5 619.349 504.532 619.349 504.564C619.349 504.818 619.365 505.088 619.397 505.343V505.375L578.171 518.401C576.66 515.49 573.256 514.011 570.059 515.013C569.518 515.204 569.025 515.443 568.548 515.697L430.952 358.649ZM417.083 354.895L397.424 374.538C396.978 374.22 396.469 373.95 395.945 373.743C392.763 372.518 389.312 373.823 387.626 376.622L307.957 345.988C307.957 345.941 307.957 345.893 307.989 345.829C308.005 345.702 308.036 345.591 308.036 345.464L415.874 351.746C415.874 351.826 415.89 351.873 415.89 351.953C415.921 352.064 415.921 352.191 415.953 352.303C415.953 352.351 415.969 352.382 415.969 352.43C415.969 352.462 415.969 352.478 416.001 352.478C416.033 352.541 416.033 352.621 416.049 352.669C416.081 352.716 416.081 352.78 416.112 352.828C416.128 352.875 416.128 352.955 416.16 353.003C416.192 353.082 416.208 353.162 416.24 353.241C416.271 353.273 416.271 353.321 416.271 353.353C416.287 353.4 416.287 353.464 416.319 353.512C416.351 353.591 416.367 353.639 416.399 353.702C416.43 353.75 416.43 353.782 416.446 353.83C416.446 353.862 416.478 353.877 416.51 353.909C416.558 354.021 416.605 354.116 416.669 354.227C416.685 354.275 416.749 354.355 416.764 354.418C416.796 354.466 416.844 354.545 416.876 354.593C416.924 354.673 416.987 354.752 417.035 354.832C417.067 354.864 417.083 354.864 417.083 354.895ZM341.565 293.263C340.34 292.515 338.972 292.197 337.636 292.245L323.544 230.007C323.56 230.007 323.592 229.976 323.623 229.976C323.639 229.96 323.703 229.96 323.719 229.928C323.751 229.896 323.783 229.896 323.798 229.88C323.83 229.848 323.862 229.848 323.91 229.817C324.021 229.769 324.116 229.721 324.228 229.658L417.592 346.418L417.56 346.45L344.364 301.565C345.541 298.543 344.427 295.028 341.565 293.263ZM420.184 344.589C420.184 344.621 420.184 344.621 420.184 344.589C420.105 344.621 420.089 344.636 420.025 344.636C419.898 344.7 419.771 344.78 419.627 344.827C419.612 344.859 419.548 344.859 419.532 344.875C419.5 344.875 419.5 344.907 419.468 344.907C419.452 344.939 419.421 344.939 419.373 344.955L326.009 228.21C326.009 228.178 326.025 228.178 326.025 228.147L326.057 228.131C326.105 228.067 326.168 228.019 326.216 227.94C326.248 227.892 326.264 227.86 326.296 227.813C326.407 227.669 326.502 227.542 326.582 227.415C326.614 227.351 326.645 227.304 326.693 227.256L326.725 227.224C326.725 227.192 326.741 227.176 326.741 227.176C326.773 227.145 326.773 227.097 326.804 227.065C326.82 227.017 326.884 226.938 326.9 226.874C326.964 226.779 327.011 226.636 327.059 226.508C327.091 226.461 327.123 226.413 327.138 226.349C327.138 226.333 327.17 226.302 327.17 226.302C327.202 226.254 327.202 226.222 327.218 226.174C327.218 226.143 327.218 226.111 327.25 226.095C327.282 226.031 327.282 225.983 327.298 225.904C327.361 225.745 327.409 225.586 327.441 225.427C327.457 225.347 327.488 225.268 327.488 225.156C327.488 225.14 327.52 225.109 327.52 225.077C327.52 225.061 327.52 225.061 327.536 225.029C327.536 224.997 327.536 224.997 327.536 224.981V224.95L390.966 226.111C391.284 228.21 392.573 230.135 394.593 231.137C395.642 231.678 396.756 231.916 397.869 231.884L420.184 344.589C420.216 344.589 420.216 344.589 420.184 344.589ZM391.682 222.007C391.38 222.596 391.173 223.232 391.046 223.836L327.647 222.675C327.647 222.643 327.647 222.612 327.647 222.596C327.647 222.564 327.647 222.532 327.616 222.516C327.616 222.452 327.6 222.405 327.6 222.357C327.568 222.198 327.52 222.039 327.488 221.88C327.457 221.8 327.457 221.753 327.441 221.673C327.441 221.641 327.441 221.61 327.409 221.594C327.377 221.482 327.329 221.371 327.298 221.276C327.282 221.212 327.25 221.132 327.218 221.085C327.218 221.053 327.202 221.037 327.202 221.037C327.138 220.926 327.123 220.846 327.059 220.735V220.719L439.27 139.729C439.27 139.729 439.27 139.729 439.302 139.729C439.318 139.745 439.382 139.809 439.398 139.825C439.509 139.936 439.636 140.016 439.748 140.127C439.827 140.175 439.875 140.222 439.954 140.286L399.841 218.588C396.676 217.649 393.209 219.017 391.682 222.007ZM320.92 230.532C320.951 230.532 320.999 230.532 321.031 230.532C321.11 230.532 321.19 230.532 321.269 230.532L335.362 292.785C334.089 293.31 332.944 294.233 332.149 295.505C330.542 298.146 330.94 301.39 332.864 303.585L304.648 338.64C304.044 338.099 303.328 337.702 302.549 337.447L320.92 230.532ZM307.909 343.141C307.877 343.062 307.845 342.982 307.83 342.871C307.766 342.68 307.718 342.505 307.671 342.314C307.607 342.155 307.527 341.996 307.448 341.837C307.352 341.63 307.273 341.408 307.162 341.233C307.082 341.09 307.002 340.994 306.923 340.851C306.796 340.644 306.637 340.438 306.478 340.231C306.446 340.199 306.414 340.151 306.398 340.119L334.693 304.985C337.541 306.543 341.04 305.907 343.123 303.521L416.319 348.406C416.287 348.438 416.287 348.486 416.271 348.517C416.271 348.533 416.24 348.565 416.24 348.597C416.24 348.613 416.208 348.661 416.208 348.692C416.192 348.74 416.16 348.804 416.16 348.851C416.16 348.883 416.16 348.899 416.128 348.931C416.112 348.979 416.112 349.042 416.081 349.09C416.081 349.122 416.049 349.138 416.049 349.169C416.049 349.217 416.033 349.281 416.033 349.297C416.033 349.329 416.033 349.329 416.033 349.36L307.909 343.141ZM422.284 343.062L400.207 231.487C401.718 230.898 403.038 229.801 403.833 228.226C405.376 225.236 404.47 221.61 401.845 219.653L441.974 141.336C442.054 141.368 442.102 141.399 442.181 141.415L422.284 343.062ZM121.786 105.676C121.754 105.645 121.738 105.629 121.738 105.565C121.707 105.517 121.691 105.485 121.659 105.438C121.611 105.358 121.548 105.279 121.5 105.199C121.452 105.151 121.42 105.072 121.373 105.008L121.341 104.992C121.261 104.881 121.182 104.802 121.102 104.69C121.07 104.674 121.07 104.642 121.054 104.611C121.023 104.595 120.991 104.563 120.975 104.531L153.438 61.3007C154.71 61.9369 156.189 62.2073 157.7 61.9687C161.04 61.3643 163.346 58.5014 163.346 55.2408L313.015 29.1563L121.786 105.676ZM149.795 56.4019C150.034 57.7857 150.67 58.9786 151.577 59.9329L119.082 103.195C119.066 103.195 119.034 103.163 119.034 103.163C119.003 103.163 118.987 103.131 118.987 103.131L136.578 42.8188C136.61 42.8188 136.657 42.8188 136.689 42.8188C136.737 42.8188 136.785 42.8507 136.848 42.8507C136.864 42.8507 136.896 42.8507 136.928 42.8507H136.944C136.976 42.8507 137.007 42.8507 137.023 42.8507C137.135 42.8507 137.262 42.8507 137.373 42.8507C137.453 42.8507 137.5 42.8507 137.58 42.8507C137.612 42.8507 137.66 42.8507 137.691 42.8507C137.739 42.8507 137.771 42.8188 137.819 42.8188C137.882 42.8188 137.962 42.8188 138.009 42.8029C138.057 42.8029 138.121 42.8029 138.168 42.8029C138.2 42.8029 138.2 42.8029 138.216 42.8029C138.518 42.7711 138.773 42.6916 139.075 42.6439C139.091 42.6439 139.123 42.6121 139.171 42.6121C139.489 42.5326 139.791 42.4212 140.045 42.294H140.077C140.427 42.1349 140.729 41.9441 141.047 41.7691C141.079 41.7373 141.111 41.7373 141.127 41.7055C141.159 41.6896 141.19 41.6896 141.206 41.6578C141.206 41.6578 141.238 41.6259 141.27 41.6259L150.972 51.3281C149.954 52.7278 149.509 54.5251 149.795 56.4019ZM130.804 38.0791C130.804 38.1109 130.82 38.1427 130.82 38.1586V38.1904C130.852 38.2381 130.852 38.3018 130.884 38.3177C130.9 38.3972 130.932 38.4608 130.963 38.5403C130.979 38.5881 131.011 38.6358 131.011 38.6676C131.043 38.7153 131.059 38.7948 131.091 38.8584C131.091 38.8744 131.122 38.9062 131.122 38.938C131.138 39.0175 131.202 39.097 131.218 39.1765C131.218 39.1925 131.25 39.2243 131.25 39.2561C131.297 39.3356 131.329 39.4151 131.377 39.4628C131.377 39.4946 131.409 39.5106 131.409 39.5106C131.456 39.5901 131.488 39.6537 131.536 39.7332C131.568 39.7491 131.6 39.7809 131.6 39.8287C131.616 39.8923 131.679 39.94 131.695 39.9877C131.727 40.0195 131.727 40.0513 131.759 40.0672C131.775 40.0991 131.806 40.1468 131.838 40.1786C131.918 40.2899 131.997 40.3694 132.077 40.4649C132.093 40.4967 132.124 40.5444 132.156 40.5762C132.204 40.6557 132.284 40.7034 132.331 40.783C132.363 40.8148 132.363 40.8466 132.395 40.8625C132.411 40.8943 132.443 40.9102 132.474 40.942C132.49 40.9738 132.554 41.0215 132.57 41.0534L132.602 41.0693C132.713 41.1488 132.793 41.2283 132.888 41.3078C132.967 41.3715 133.031 41.4192 133.111 41.4669C133.158 41.4987 133.206 41.5464 133.27 41.5782C133.317 41.626 133.397 41.6578 133.445 41.7055C133.508 41.7373 133.524 41.7691 133.588 41.785C133.604 41.8168 133.635 41.8486 133.683 41.8486C133.763 41.8963 133.842 41.9282 133.922 41.9759C134.033 42.0236 134.144 42.1031 134.24 42.1667L116.649 102.479H116.617C116.601 102.479 116.569 102.448 116.537 102.448C116.442 102.448 116.299 102.448 116.203 102.416C116.124 102.416 116.06 102.416 115.981 102.416C115.901 102.416 115.853 102.416 115.774 102.416C115.726 102.416 115.663 102.416 115.615 102.416C115.567 102.416 115.535 102.416 115.488 102.416C115.456 102.416 115.424 102.416 115.408 102.416C115.376 102.416 115.329 102.416 115.297 102.448C115.185 102.448 115.09 102.479 114.979 102.479C114.867 102.495 114.74 102.495 114.629 102.527C114.613 102.527 114.549 102.527 114.533 102.527L93.109 48.1948C95.0494 47.0337 96.3218 44.966 96.4013 42.6439L130.804 38.0791ZM314.478 221.435C314.478 221.45 314.478 221.482 314.446 221.514C314.446 221.53 314.43 221.562 314.43 221.61C314.43 221.61 314.43 221.61 314.43 221.641C314.43 221.673 314.398 221.721 314.398 221.753C314.367 221.848 314.351 221.959 314.319 222.087C314.287 222.15 314.287 222.214 314.271 222.278C314.271 222.325 314.239 222.357 314.239 222.405C314.239 222.452 314.208 222.516 314.208 222.564C314.208 222.596 314.208 222.612 314.208 222.643C314.208 222.675 314.208 222.675 314.208 222.691C314.208 222.723 314.208 222.755 314.192 222.771C314.192 222.834 314.16 222.85 314.16 222.914C314.16 222.93 314.16 222.93 314.16 222.961C314.16 223.009 314.16 223.073 314.16 223.121C314.16 223.2 314.16 223.28 314.128 223.327C314.128 223.407 314.112 223.486 314.112 223.566C314.112 223.598 314.112 223.645 314.112 223.677C314.112 223.725 314.112 223.804 314.112 223.868V223.884C314.112 223.916 314.112 223.948 314.112 223.964V223.995C314.112 224.075 314.112 224.154 314.112 224.234C314.112 224.282 314.128 224.361 314.128 224.425C314.128 224.472 314.128 224.52 314.16 224.584C314.16 224.6 314.16 224.632 314.192 224.679C314.192 224.759 314.208 224.822 314.208 224.902C314.208 224.95 314.239 224.997 314.239 225.061C314.239 225.077 314.239 225.109 314.271 225.14V225.156L276.894 240.616C275.144 237.849 271.645 236.704 268.528 237.944C267.892 238.215 267.335 238.564 266.826 238.962L124.967 115.426C188.254 150.418 251.318 186.157 314.478 221.435ZM277.753 242.827L315.146 227.351L315.162 227.383C315.225 227.431 315.241 227.51 315.305 227.574C315.321 227.59 315.353 227.622 315.353 227.654L315.385 227.669C315.4 227.701 315.432 227.733 315.432 227.749C315.48 227.813 315.512 227.86 315.559 227.908C315.559 227.908 315.559 227.94 315.591 227.94C315.623 227.988 315.671 228.051 315.703 228.067L315.719 228.099C315.75 228.131 315.782 228.147 315.798 228.178L315.83 228.21C315.941 228.306 316.021 228.417 316.148 228.528C316.18 228.544 316.196 228.576 316.259 228.608C316.275 228.624 316.275 228.624 316.307 228.656L316.339 228.687C316.434 228.767 316.546 228.862 316.657 228.942C316.705 229.005 316.752 229.021 316.816 229.085C316.832 229.101 316.864 229.133 316.896 229.133C316.911 229.133 316.911 229.165 316.943 229.165C316.975 229.18 316.991 229.18 317.023 229.212C317.07 229.244 317.134 229.292 317.182 229.324C317.23 229.339 317.293 229.403 317.373 229.419C317.389 229.451 317.42 229.451 317.452 229.483H317.468H317.5C317.532 229.483 317.548 229.499 317.548 229.499C317.548 229.499 317.548 229.499 317.579 229.499C317.611 229.499 317.627 229.53 317.627 229.53C317.691 229.562 317.707 229.578 317.77 229.61C317.818 229.642 317.898 229.658 317.945 229.721C318.009 229.737 318.025 229.769 318.088 229.769C318.136 229.801 318.184 229.817 318.247 229.848C318.263 229.88 318.295 229.88 318.343 229.896C318.407 229.928 318.422 229.928 318.454 229.96C318.486 229.96 318.534 229.976 318.566 229.976C318.581 229.976 318.613 230.007 318.645 230.007C318.645 230.007 318.661 230.007 318.661 230.039L300.306 336.938C300.036 336.938 299.797 336.938 299.527 336.97L274.142 250.318C276.957 249.014 278.437 245.865 277.753 242.827ZM578.855 520.66L620.081 507.633C620.081 507.649 620.113 507.681 620.145 507.713C620.161 507.729 620.161 507.761 620.192 507.792C620.224 507.808 620.224 507.872 620.24 507.888C620.24 507.92 620.272 507.951 620.272 507.951C620.272 507.951 620.272 507.967 620.304 507.967C620.431 508.19 620.558 508.397 620.717 508.603C620.749 508.635 620.749 508.667 620.781 508.683C620.797 508.747 620.829 508.763 620.876 508.794C620.908 508.826 620.908 508.842 620.94 508.874L620.956 508.906C620.956 508.906 620.956 508.922 620.988 508.922C621.226 509.208 621.497 509.446 621.783 509.685C621.815 509.717 621.831 509.749 621.862 509.749C621.862 509.749 621.894 509.749 621.894 509.765C621.91 509.796 621.942 509.828 621.99 509.844C622.149 509.987 622.308 510.083 622.499 510.194L622.53 510.226C622.578 510.242 622.61 510.274 622.658 510.305C622.689 510.321 622.705 510.321 622.737 510.353C622.785 510.385 622.864 510.433 622.928 510.464C623.055 510.512 623.167 510.592 623.294 510.639C623.405 510.703 623.532 510.751 623.644 510.798C623.691 510.83 623.739 510.862 623.803 510.878C623.898 510.91 624.01 510.942 624.121 510.989C624.216 511.021 624.328 511.069 624.455 511.101C624.566 511.117 624.694 511.148 624.805 511.18C624.853 511.18 624.916 511.196 624.964 511.196C624.996 511.196 625.012 511.228 625.043 511.228V692.881L575.165 527.674C577.773 526.338 579.252 523.539 578.855 520.66ZM428.725 354.1L517.667 382.061C517.317 384.543 518.383 387.103 520.61 388.614C522.852 390.125 525.636 390.125 527.831 388.853L618.793 497.518L428.725 354.1ZM467.391 291.911C465.832 294.424 466.087 297.493 467.82 299.688L426.339 345.193C426.339 345.193 426.339 345.193 426.308 345.193C426.18 345.114 426.069 345.034 425.942 344.986C425.894 344.955 425.862 344.939 425.815 344.907C425.783 344.875 425.735 344.875 425.703 344.859C425.655 344.827 425.592 344.796 425.512 344.78C425.433 344.748 425.353 344.7 425.258 344.668H425.226C425.194 344.668 425.178 344.636 425.178 344.636C425.067 344.589 424.94 344.557 424.797 344.509C424.781 344.509 424.717 344.493 424.701 344.462C424.669 344.462 424.638 344.462 424.622 344.43C424.558 344.414 424.51 344.414 424.478 344.414C424.478 344.414 424.478 344.414 424.463 344.414L444.328 143.213L470.826 289.127C469.474 289.604 468.234 290.559 467.391 291.911ZM162.965 52.9346C161.851 49.8331 158.734 47.9562 155.362 48.5129C154.328 48.7038 153.406 49.1014 152.61 49.674L142.908 39.9877C142.94 39.9718 142.94 39.94 142.956 39.9082C142.956 39.9082 142.956 39.8923 142.988 39.8923C143.147 39.6537 143.306 39.4151 143.417 39.1765C143.417 39.1765 143.417 39.1447 143.433 39.1447C143.465 39.097 143.497 39.0652 143.497 39.0175C143.513 38.9539 143.544 38.9062 143.544 38.8743C143.656 38.6358 143.751 38.3813 143.831 38.1427C143.831 38.1109 143.863 38.0632 143.863 38.0314C143.863 37.9837 143.894 37.9518 143.91 37.9041C143.91 37.8723 143.942 37.8246 143.942 37.7928C144.022 37.5224 144.053 37.2679 144.101 36.9975C144.101 36.9975 144.101 36.9975 144.101 36.9657C144.101 36.9498 144.133 36.918 144.133 36.8862L304.489 28.3451L162.965 52.9346ZM130.502 35.7569L96.1628 40.3853C95.1766 37.2679 92.1069 35.232 88.735 35.6774C86.6673 35.9637 84.9814 37.1089 83.9475 38.7153L18.9111 10.7062L130.502 35.6774C130.502 35.7092 130.502 35.7251 130.502 35.7569ZM12.8194 10.6108L83.025 40.8466C82.8342 41.626 82.7865 42.4848 82.8819 43.3596C83.4227 47.1133 86.8105 49.674 90.5641 49.2127C90.7232 49.1809 90.8822 49.1332 91.0413 49.1014L112.466 103.434C112.466 103.434 112.466 103.434 112.434 103.434C112.354 103.481 112.307 103.513 112.227 103.561C112.148 103.609 112.068 103.672 112.004 103.72C111.957 103.752 111.925 103.768 111.877 103.799L12.7875 10.6585C12.8194 10.6267 12.8194 10.6267 12.8194 10.6108ZM265.267 240.775C264.186 242.589 263.915 244.831 264.79 246.931C266.015 249.809 268.925 251.432 271.868 251.082L297.253 337.702C297.173 337.765 297.094 337.813 297.014 337.845L124.41 118.146L265.267 240.775ZM386.799 378.769C386.163 381.982 387.881 385.258 391.046 386.483C392.493 387.024 394.004 387.056 395.388 386.658L420.136 437.841C420.105 437.857 420.105 437.857 420.089 437.889C420.025 437.937 419.945 437.968 419.898 438.016C419.85 438.048 419.818 438.096 419.771 438.127C419.707 438.175 419.659 438.239 419.612 438.286L307.798 348.406L386.799 378.769ZM422.713 436.696C422.649 436.696 422.602 436.728 422.57 436.728C422.443 436.76 422.331 436.775 422.204 436.807L397.456 385.624C398.505 384.893 399.364 383.827 399.857 382.523C400.716 380.328 400.334 377.958 399.062 376.145L418.737 356.502C418.864 356.613 419.023 356.693 419.182 356.804L419.214 356.82C419.293 356.884 419.373 356.899 419.421 356.963C419.452 356.963 419.468 356.979 419.5 356.979C419.58 357.011 419.659 357.058 419.739 357.09C419.771 357.106 419.786 357.106 419.85 357.138C420.009 357.218 420.184 357.297 420.375 357.345C420.407 357.345 420.423 357.377 420.454 357.377H420.486C420.502 357.377 420.566 357.408 420.582 357.408C420.614 357.408 420.614 357.424 420.645 357.424C420.693 357.456 420.725 357.456 420.773 357.456C420.932 357.504 421.122 357.536 421.297 357.567C421.361 357.567 421.409 357.583 421.457 357.583C421.52 357.583 421.568 357.615 421.647 357.647L422.872 436.616C422.793 436.68 422.761 436.696 422.713 436.696ZM566.798 517.272C565.383 518.99 564.858 521.344 565.574 523.618C566.608 526.799 569.709 528.724 572.922 528.326L622.212 691.609L429.68 360.748L566.798 517.272ZM621.338 496.929L529.612 387.374C529.771 387.183 529.93 386.976 530.057 386.769C531.95 383.954 531.473 380.28 529.103 378.037L547.919 350.092C547.983 350.124 547.999 350.124 548.062 350.156C548.348 350.283 548.635 350.394 548.953 350.474C548.985 350.474 549.016 350.49 549.032 350.49C549.096 350.49 549.144 350.521 549.191 350.521C549.494 350.569 549.748 350.633 550.05 350.649C550.098 350.649 550.146 350.68 550.225 350.68C550.257 350.68 550.289 350.68 550.289 350.68C550.607 350.712 550.925 350.712 551.243 350.68C551.291 350.68 551.339 350.68 551.418 350.68C551.45 350.68 551.482 350.68 551.498 350.68C551.816 350.649 552.166 350.569 552.484 350.49C552.516 350.49 552.531 350.49 552.595 350.474L621.338 496.929ZM546.647 338.37C546.631 338.402 546.567 338.418 546.551 338.481C546.551 338.481 546.519 338.481 546.519 338.497C546.472 338.561 546.408 338.577 546.36 338.64C546.233 338.736 546.122 338.847 545.994 338.958C545.931 339.006 545.915 339.038 545.851 339.086C545.772 339.165 545.692 339.245 545.613 339.324L479.479 298.098C480.719 295.076 479.638 291.529 476.775 289.732C475.598 289.016 474.326 288.698 473.085 288.698L446.507 142.37L546.647 338.37ZM429.171 447.925C429.234 447.877 429.25 447.814 429.314 447.766C429.33 447.734 429.361 447.686 429.393 447.655C429.552 447.448 429.711 447.257 429.839 447.05C429.87 447.003 429.886 446.971 429.918 446.923C429.95 446.859 429.966 446.844 429.998 446.78C429.998 446.764 430.029 446.764 430.029 446.732C430.157 446.494 430.284 446.255 430.395 445.985C430.427 445.937 430.443 445.889 430.443 445.826C430.443 445.81 430.443 445.81 430.475 445.778C430.507 445.73 430.522 445.682 430.522 445.651C430.634 445.38 430.682 445.126 430.761 444.824C430.761 444.776 430.793 444.744 430.793 444.696C430.793 444.664 430.793 444.649 430.825 444.617C430.825 444.569 430.841 444.505 430.841 444.458C430.904 444.187 430.92 443.901 430.92 443.631V443.615C430.92 443.535 430.92 443.472 430.92 443.392C430.92 443.376 430.92 443.344 430.92 443.297C430.92 443.233 430.92 443.217 430.92 443.153C430.92 443.026 430.904 442.899 430.904 442.74C430.904 442.66 430.904 442.581 430.872 442.517C430.872 442.501 430.872 442.438 430.872 442.422C430.841 442.279 430.825 442.183 430.793 442.04C430.793 441.992 430.761 441.913 430.761 441.865C430.745 441.722 430.682 441.563 430.666 441.436C430.634 441.356 430.602 441.308 430.602 441.229C430.602 441.229 430.602 441.229 430.602 441.197C430.554 441.038 430.507 440.911 430.443 440.752C430.427 440.704 430.395 440.64 430.363 440.561C430.348 440.513 430.316 440.434 430.284 440.386C430.268 440.354 430.268 440.322 430.236 440.306C430.204 440.243 430.188 440.163 430.125 440.116C429.998 439.845 429.839 439.607 429.68 439.4C429.648 439.352 429.632 439.32 429.6 439.273C429.568 439.241 429.552 439.193 429.52 439.161C429.489 439.114 429.441 439.082 429.409 439.034C429.361 438.97 429.314 438.923 429.25 438.875C429.155 438.764 429.075 438.652 428.964 438.557C428.932 438.525 428.884 438.493 428.852 438.446C428.837 438.414 428.805 438.398 428.773 438.366L428.757 438.334C428.677 438.255 428.566 438.175 428.487 438.096C428.407 438.016 428.296 437.968 428.2 437.889C428.121 437.841 428.041 437.762 427.962 437.698L427.93 437.682C427.819 437.603 427.723 437.539 427.612 437.491C427.564 437.459 427.485 437.412 427.421 437.38C427.294 437.3 427.135 437.253 427.007 437.173H426.976C426.944 437.157 426.928 437.157 426.896 437.125C426.864 437.125 426.864 437.125 426.848 437.094C426.689 437.046 426.546 436.998 426.387 436.919C426.339 436.887 426.292 436.887 426.228 436.855C426.133 436.839 426.021 436.807 425.894 436.775C425.83 436.76 425.783 436.76 425.735 436.728C425.671 436.728 425.624 436.696 425.576 436.696C425.465 436.68 425.337 436.648 425.194 436.648L423.985 357.663C424.001 357.663 424.001 357.663 424.033 357.663C424.081 357.663 424.113 357.647 424.16 357.647C424.192 357.647 424.24 357.647 424.272 357.615C424.304 357.615 424.319 357.583 424.383 357.583C424.542 357.567 424.669 357.488 424.797 357.456C424.908 357.424 425.019 357.408 425.099 357.377L616.852 686.917L429.171 447.925Z" fill="#F3F1FF"/>
</svg>
