<svg width="51" height="51" viewBox="0 0 51 51" fill="none" xmlns="http://www.w3.org/2000/svg">
<path d="M35.921 32.9385C37.413 32.8527 38.199 33.9683 39.1505 34.9261L41.568 37.3441C42.1481 37.9273 42.8277 38.4625 43.3335 39.1109C44.6759 40.832 43.1873 43.4608 41.1427 43.8703L40.6632 43.9301C39.5535 43.9741 38.808 43.4065 38.0825 42.6556L34.7589 39.2829C34.0588 38.5691 32.9941 37.8272 32.7921 36.7808L32.7402 36.3959C32.6403 34.6698 34.2599 33.0233 35.921 32.9385Z" fill="#4F378A"/>
<path d="M20.6517 10.1187C26.3192 10.1502 31.2328 14.2637 31.8787 19.9761C32.1978 22.7984 31.504 25.82 29.713 28.0584C29.9322 28.2004 30.0708 28.3884 30.2423 28.5812L31.9601 30.3179C32.1954 30.5476 32.5026 30.7783 32.6807 31.0544L32.703 31.0904C33.46 32.2839 32.4503 33.6762 30.8863 33.0192C29.9772 32.6373 29.3322 31.79 28.6467 31.1102C28.3134 30.7797 27.9406 30.4797 27.631 30.1278L26.0672 31.1244C25.046 31.6424 23.9729 32.0543 22.839 32.2421C16.6542 33.2661 10.8797 29.1733 9.88943 22.8893L9.81365 22.3098C9.7524 21.9545 9.77193 21.5767 9.77225 21.2169C9.77818 15.1999 14.639 10.181 20.6517 10.1187Z" fill="#4F378A"/>
<path d="M20.579 13.3689C20.9544 13.3504 21.3558 13.3484 21.7285 13.3914C25.3495 13.809 28.507 17.0574 28.7337 20.7228C29.0156 25.2825 25.8342 29.0786 21.2256 29.2926L20.815 29.2921C18.7422 29.2643 16.5492 28.2135 15.1099 26.7344C11.3027 22.8226 12.8949 15.856 17.9242 13.8783C18.7134 13.568 19.7285 13.3519 20.579 13.3689Z" fill="#FF99F5"/>
</svg>
