<svg width="50" height="50" viewBox="0 0 50 50" fill="none" xmlns="http://www.w3.org/2000/svg">
<path d="M13.896 22.7572C14.2473 22.7248 14.4761 22.8184 14.7278 23.0646L19.6088 28.2068C20.2178 28.8286 22.2656 30.4789 20.5272 31.0556C19.7176 31.2213 18.398 29.4488 17.8673 28.8882L14.0189 24.8246C13.6612 24.4616 13.0691 24.0717 13.2199 23.4786L13.2827 23.2785C13.4013 23.0084 13.6328 22.8623 13.896 22.7572Z" fill="#FF00E5"/>
<path d="M35.8705 22.7833C36.2749 22.728 36.7125 22.8825 36.8837 23.2827L36.9085 23.3437C37.1376 23.9588 36.4596 24.4316 36.1054 24.8109L30.3453 30.7786C30.209 30.9057 30.0636 30.9955 29.8861 31.0528C29.2215 31.2418 28.6294 30.4745 28.9105 29.8706C29.0153 29.6453 29.222 29.4593 29.3943 29.2853L34.6235 23.8393C34.9961 23.4409 35.332 22.9566 35.8705 22.7833Z" fill="#FF00E5"/>
<path d="M28.5152 32.427L28.7324 32.4043C30.1154 32.4073 31.1945 33.4232 31.5661 34.6986C31.6899 35.1236 31.6862 35.4927 31.6872 35.9364L31.6891 40.8845C31.6876 42.6538 30.9267 43.943 29.0352 44.311C28.7117 44.374 28.3754 44.3545 28.0474 44.3548L21.5519 44.3533L21.0697 44.3183C19.5122 44.1541 18.3562 42.6231 18.3386 41.1131L18.3374 36.0774C18.3394 34.3682 18.9568 32.8763 20.8303 32.4666C21.1087 32.4058 21.4265 32.4303 21.7113 32.4298L28.5152 32.427Z" fill="#4F378A"/>
<path d="M26.7357 36.0127L26.9376 36.0142C27.5502 36.0596 27.8717 36.5888 27.7983 37.169C27.7462 37.5813 27.3891 37.8281 27.0941 38.0755L26.3346 38.7195C25.593 39.374 24.864 40.4464 23.8121 40.2988C23.2614 40.2215 23.0137 39.8304 22.703 39.4258C22.3398 39.0529 21.751 38.795 21.7323 38.1975C21.7164 37.6849 22.1789 37.0505 22.7318 37.0686C23.3123 37.0874 23.768 37.6423 24.1369 38.0349C24.3387 37.9279 24.5246 37.7225 24.6941 37.57L25.5351 36.8333C25.8971 36.5182 26.2574 36.1331 26.7357 36.0127Z" fill="#F5F5F5"/>
<path d="M24.8623 8.24514C31.7053 7.96209 37.5078 13.2974 38.4312 19.9598C38.4934 20.4087 38.5919 21.0153 38.5105 21.4614L38.5036 21.4964C38.4266 21.9174 38.1063 22.2619 37.664 22.2904C36.9152 22.3388 36.7898 21.5625 36.5299 21.0342C35.8434 19.6393 34.2168 19.6647 33.283 20.7626C32.9476 21.157 32.8426 21.6819 32.6428 22.148C32.3019 22.9433 31.6641 23.5865 31.1496 24.2686L28.8848 27.2963C27.9578 28.5044 26.7263 30.8379 25.1005 30.9794C24.0816 31.0012 23.5519 30.4104 22.9345 29.6767C22.0515 28.6276 21.313 27.4674 20.4974 26.3672L18.5704 23.7579C17.9848 22.9462 17.5615 22.4773 17.2869 21.5086C16.7701 19.6855 14.3555 19.3563 13.5835 20.9818C13.4023 21.3634 13.3696 21.8146 13.0211 22.0922C12.5594 22.4598 11.9973 22.3365 11.6574 21.8669C11.4596 21.5936 11.484 20.9243 11.5462 20.5966L11.6926 19.5677C12.7185 13.2105 18.3716 8.27545 24.8623 8.24514Z" fill="#FFD6FA"/>
<path d="M21.763 19.7861L22.0459 19.7981C23.1019 19.885 23.9427 21.0195 24.1491 21.9983C24.1998 22.2389 24.1906 22.4883 24.1911 22.7328L24.1689 27.2134L24.0576 28.3954L23.2403 27.1404L20.305 23.1519C20.1127 22.8762 19.6096 22.2457 19.5827 21.9186C19.49 20.7907 20.682 19.845 21.763 19.7861Z" fill="#FEFEFD"/>
<path d="M28.1421 19.7851C28.9773 19.7474 29.8261 20.0806 30.2374 20.8535L30.257 20.8909C30.7233 21.7715 30.3794 22.363 29.8439 23.1321L27.0073 26.8813L26.3551 27.7329C26.2242 27.9072 26.1086 28.1061 25.9465 28.2531L25.9269 28.1266C25.8778 27.7338 25.907 27.3055 25.9065 26.9082L25.904 22.8769C25.904 22.5852 25.8735 22.26 25.9251 21.9741C26.1298 20.8391 26.9738 19.9143 28.1421 19.7851Z" fill="#FEFEFD"/>
</svg>
