<svg width="32" height="33" viewBox="0 0 32 33" fill="none" xmlns="http://www.w3.org/2000/svg">
<path fill-rule="evenodd" clip-rule="evenodd" d="M-7.04004 0.5H35.6266V32.5H-7.04004V0.5Z" fill="#F7FCFF"/>
<path fill-rule="evenodd" clip-rule="evenodd" d="M-7.04004 20.0552V22.7218H35.6266V20.0552H-7.04004Z" fill="#E31D1C"/>
<path fill-rule="evenodd" clip-rule="evenodd" d="M-7.04004 24.9448V27.6115H35.6266V24.9448H-7.04004Z" fill="#E31D1C"/>
<path fill-rule="evenodd" clip-rule="evenodd" d="M-7.04004 10.2783V12.945H35.6266V10.2783H-7.04004Z" fill="#E31D1C"/>
<path fill-rule="evenodd" clip-rule="evenodd" d="M-7.04004 29.833V32.4997H35.6266V29.833H-7.04004Z" fill="#E31D1C"/>
<path fill-rule="evenodd" clip-rule="evenodd" d="M-7.04004 15.167V17.8337H35.6266V15.167H-7.04004Z" fill="#E31D1C"/>
<path fill-rule="evenodd" clip-rule="evenodd" d="M-7.04004 0.5V3.16667H35.6266V0.5H-7.04004Z" fill="#E31D1C"/>
<path fill-rule="evenodd" clip-rule="evenodd" d="M-7.04004 5.38916V8.05583H35.6266V5.38916H-7.04004Z" fill="#E31D1C"/>
<rect x="-7.04004" y="0.5" width="26.6667" height="17.3333" fill="#2E42A5"/>
<path d="M-4.30322 13.7905H-3.34619L-4.09814 14.5562L-3.80713 15.7632L-4.74365 15.0845L-5.71143 15.7632L-5.38525 14.5562L-6.24463 13.7905H-5.12158L-4.74561 12.8052L-4.30322 13.7905ZM1.02979 13.7905H1.98682L1.23486 14.5562L1.52588 15.7632L0.589355 15.0845L-0.378418 15.7632L-0.0512695 14.5562L-0.911621 13.7905H0.211426L0.588379 12.8052L1.02979 13.7905ZM6.36279 13.7905H7.3208L6.56787 14.5562L6.85986 15.7632L5.92334 15.0845L4.95557 15.7632L5.28174 14.5562L4.42236 13.7905H5.54541L5.92139 12.8052L6.36279 13.7905ZM11.6968 13.7905H12.6538L11.9019 14.5562L12.1929 15.7632L11.2563 15.0845L10.2886 15.7632L10.6147 14.5562L9.75537 13.7905H10.8784L11.2544 12.8052L11.6968 13.7905ZM17.0298 13.7905H17.9868L17.2349 14.5562L17.5259 15.7632L16.5894 15.0845L15.6216 15.7632L15.9487 14.5562L15.0884 13.7905H16.2114L16.5884 12.8052L17.0298 13.7905ZM-1.63721 11.1245H-0.679199L-1.43213 11.8901L-1.14014 13.0972L-2.07666 12.4185L-3.04443 13.0972L-2.71826 11.8901L-3.57764 11.1245H-2.45459L-2.07861 10.1392L-1.63721 11.1245ZM3.69678 11.1245H4.65381L3.90186 11.8901L4.19287 13.0972L3.25635 12.4185L2.28857 13.0972L2.61475 11.8901L1.75537 11.1245H2.87842L3.25439 10.1392L3.69678 11.1245ZM9.02979 11.1245H9.98682L9.23486 11.8901L9.52588 13.0972L8.58936 12.4185L7.62158 13.0972L7.94873 11.8901L7.08838 11.1245H8.21143L8.58838 10.1392L9.02979 11.1245ZM14.3628 11.1245H15.3208L14.5679 11.8901L14.8599 13.0972L13.9233 12.4185L12.9556 13.0972L13.2817 11.8901L12.4224 11.1245H13.5454L13.9214 10.1392L14.3628 11.1245ZM-4.30322 8.45752H-3.34619L-4.09814 9.22217L-3.80713 10.4302L-4.74365 9.75146L-5.71143 10.4302L-5.38525 9.22217L-6.24463 8.45752H-5.12158L-4.74561 7.47217L-4.30322 8.45752ZM1.02979 8.45752H1.98682L1.23486 9.22217L1.52588 10.4302L0.589355 9.75146L-0.378418 10.4302L-0.0512695 9.22217L-0.911621 8.45752H0.211426L0.588379 7.47217L1.02979 8.45752ZM6.36279 8.45752H7.3208L6.56787 9.22217L6.85986 10.4302L5.92334 9.75146L4.95557 10.4302L5.28174 9.22217L4.42236 8.45752H5.54541L5.92139 7.47217L6.36279 8.45752ZM11.6968 8.45752H12.6538L11.9019 9.22217L12.1929 10.4302L11.2563 9.75146L10.2886 10.4302L10.6147 9.22217L9.75537 8.45752H10.8784L11.2544 7.47217L11.6968 8.45752ZM17.0298 8.45752H17.9868L17.2349 9.22217L17.5259 10.4302L16.5894 9.75146L15.6216 10.4302L15.9487 9.22217L15.0884 8.45752H16.2114L16.5884 7.47217L17.0298 8.45752ZM-1.63721 5.79053H-0.679199L-1.43213 6.55615L-1.14014 7.76318L-2.07666 7.08447L-3.04443 7.76318L-2.71826 6.55615L-3.57764 5.79053H-2.45459L-2.07861 4.80518L-1.63721 5.79053ZM3.69678 5.79053H4.65381L3.90186 6.55615L4.19287 7.76318L3.25635 7.08447L2.28857 7.76318L2.61475 6.55615L1.75537 5.79053H2.87842L3.25439 4.80518L3.69678 5.79053ZM9.02979 5.79053H9.98682L9.23486 6.55615L9.52588 7.76318L8.58936 7.08447L7.62158 7.76318L7.94873 6.55615L7.08838 5.79053H8.21143L8.58838 4.80518L9.02979 5.79053ZM14.3628 5.79053H15.3208L14.5679 6.55615L14.8599 7.76318L13.9233 7.08447L12.9556 7.76318L13.2817 6.55615L12.4224 5.79053H13.5454L13.9214 4.80518L14.3628 5.79053ZM-4.3042 3.12451H-3.34619L-4.09814 3.89014L-3.80713 5.09717L-4.74365 4.41846L-5.71143 5.09717L-5.38525 3.89014L-6.24463 3.12451H-5.12158L-4.74561 2.13916L-4.3042 3.12451ZM1.02979 3.12451H1.98682L1.23486 3.89014L1.52588 5.09717L0.589355 4.41846L-0.378418 5.09717L-0.0512695 3.89014L-0.911621 3.12451H0.211426L0.588379 2.13916L1.02979 3.12451ZM6.36279 3.12451H7.3208L6.56787 3.89014L6.85986 5.09717L5.92334 4.41846L4.95557 5.09717L5.28174 3.89014L4.42236 3.12451H5.54541L5.92139 2.13916L6.36279 3.12451ZM11.6968 3.12451H12.6538L11.9019 3.89014L12.1929 5.09717L11.2563 4.41846L10.2886 5.09717L10.6147 3.89014L9.75537 3.12451H10.8784L11.2544 2.13916L11.6968 3.12451ZM17.0298 3.12451H17.9868L17.2349 3.89014L17.5259 5.09717L16.5894 4.41846L15.6216 5.09717L15.9487 3.89014L15.0884 3.12451H16.2114L16.5884 2.13916L17.0298 3.12451Z" fill="#F7FCFF"/>
</svg>
