<svg width="50" height="50" viewBox="0 0 50 50" fill="none" xmlns="http://www.w3.org/2000/svg">
<path d="M35.1111 18.2776V13.9443C35.1111 13.1465 34.4646 12.5 33.6668 12.5H16.3335C15.5357 12.5 14.8892 13.1465 14.8892 13.9443V21.1667H23.5558L27.8892 18.2776H35.1115H35.1111Z" fill="#4F378A"/>
<path d="M38 19.7223V37.0557C38 37.8534 37.3535 38.5 36.5557 38.5H13.4443C12.6465 38.5 12 37.8534 12 37.0557V22.6109C12 21.8132 12.6465 21.1666 13.4443 21.1666H23.5557L27.889 18.2776H36.5557C37.3535 18.2776 38 18.9246 38 19.7223Z" fill="#FF99F5"/>
<path d="M37.9999 29.8332H33.6666C33.6666 29.0354 33.0201 28.3889 32.2223 28.3889C31.4245 28.3889 30.778 29.0354 30.778 29.8332H27.889C27.889 29.0354 27.2424 28.3889 26.4447 28.3889C25.6469 28.3889 25.0004 29.0354 25.0004 29.8332H23.5561C22.7583 29.8332 22.1113 30.4797 22.1113 31.2775C22.1113 32.0753 22.7583 32.7222 23.5561 32.7222H25.0004C25.0004 33.52 25.6469 34.1665 26.4447 34.1665C27.2424 34.1665 27.889 33.52 27.889 32.7222H30.778C30.778 33.52 31.4245 34.1665 32.2223 34.1665C33.0201 34.1665 33.6666 33.52 33.6666 32.7222H37.9999V29.8332Z" fill="white"/>
</svg>
