<svg width="333" height="963" viewBox="0 0 333 963" fill="none" xmlns="http://www.w3.org/2000/svg">
<path d="M144.036 302.759C144.04 302.806 144.053 302.817 144.057 302.865L20.5956 365.868C20.5956 365.868 20.5956 365.868 20.5827 365.857C20.0762 365.201 19.4677 364.612 18.7522 364.174L18.7265 364.152C18.4117 363.947 18.0623 363.757 17.7167 363.615C17.6654 363.57 17.6417 363.572 17.5686 363.553C17.4955 363.535 17.3948 363.47 17.3089 363.441C17.0146 363.342 16.7697 363.264 16.5139 363.198C16.4901 363.2 16.4645 363.178 16.417 363.181C16.0426 363.124 15.6663 363.043 15.27 363.011C15.27 363.011 15.27 363.011 15.2463 363.013C14.852 363.005 14.4449 362.985 14.0691 363.059C14.0217 363.063 14.0108 363.075 13.9852 363.053C13.5729 363.118 13.1972 363.192 12.8125 363.302C12.7888 363.304 12.767 363.329 12.7196 363.333C12.3586 363.441 11.9996 363.574 11.6572 363.765C11.6463 363.777 11.5989 363.781 11.5771 363.806C11.5187 363.822 11.4861 363.86 11.4296 363.9C11.3129 363.932 11.2129 364.022 11.111 364.089C11.009 364.156 10.9308 364.221 10.8507 364.262C10.7488 364.329 10.6487 364.419 10.5468 364.486C10.4558 364.54 10.3667 364.618 10.2795 364.719C10.1775 364.786 10.123 364.849 10.0576 364.925C9.93392 365.018 9.84672 365.119 9.75954 365.22C9.70504 365.284 9.65056 365.347 9.59606 365.411C9.48708 365.537 9.39988 365.639 9.29089 365.766C9.2364 365.829 9.20371 365.867 9.14921 365.931C9.12742 365.956 9.10562 365.981 9.09472 365.994C7.90805 367.245 7.20675 368.891 7.15429 370.742C7.13332 373.568 8.72612 375.996 11.0677 377.214L-31.0065 493.362C-31.1507 493.348 -31.2821 493.346 -31.452 493.31C-31.5835 493.307 -31.7316 493.246 -31.863 493.243L-37.8627 440.816C-37.7223 440.783 -37.6441 440.718 -37.5037 440.684C-37.294 440.622 -37.1081 440.561 -36.9132 440.464C-36.7292 440.38 -36.5561 440.308 -36.374 440.2C-36.1791 440.103 -36.0208 439.996 -35.8406 439.864C-35.6714 439.745 -35.5258 439.628 -35.3566 439.509C-35.1892 439.366 -35.02 439.247 -34.8783 439.082C-34.7218 438.952 -34.5802 438.787 -34.4603 438.647C-34.3295 438.495 -34.1878 438.33 -34.0827 438.156C-33.9539 437.98 -33.8378 437.793 -33.7218 437.606C-33.6365 437.481 -33.5711 437.405 -33.4987 437.269C-33.4698 437.184 -33.4282 437.109 -33.3884 437.011C-33.3596 436.926 -33.3397 436.877 -33.2852 436.813C-33.157 436.482 -33.0378 436.188 -32.9461 435.848C-32.9044 435.773 -32.9121 435.679 -32.8961 435.582C-32.8173 435.231 -32.7711 434.918 -32.7269 434.581C-32.7455 434.499 -32.7295 434.402 -32.7353 434.331C-32.7257 434.009 -32.7289 433.675 -32.754 433.367C-32.7578 433.32 -32.7508 433.26 -32.7674 433.201C-32.7713 433.154 -32.7841 433.143 -32.7988 433.108C-32.8444 432.694 -32.9374 432.284 -33.065 431.887C-33.0964 431.794 -33.1259 431.725 -33.1573 431.632C-33.2958 431.248 -33.4581 430.866 -33.6659 430.511C-33.6569 430.475 -33.7082 430.431 -33.721 430.42C-34.3885 429.251 -35.3747 428.271 -36.657 427.61C-37.043 427.41 -37.4617 427.249 -37.8547 427.11C-37.9021 427.113 -37.915 427.102 -37.9663 427.058C-38.3702 426.931 -38.7812 426.865 -39.2268 426.812C-39.2614 426.827 -39.3236 426.795 -39.3582 426.81C-39.8038 426.757 -40.2565 426.765 -40.6835 426.795C-40.7181 426.809 -40.7437 426.787 -40.7655 426.813C-40.7655 426.813 -40.7764 426.825 -40.8021 426.803C-41.2509 426.859 -41.7067 426.974 -42.1497 427.1C-42.1972 427.104 -42.219 427.129 -42.2299 427.142C-42.6582 427.303 -43.0627 427.462 -43.4525 427.656C-43.4743 427.682 -43.5089 427.696 -43.5198 427.709C-43.9077 427.927 -44.2571 428.178 -44.6046 428.452C-44.6264 428.478 -44.6264 428.478 -44.6482 428.503C-44.9828 428.789 -45.3156 429.098 -45.5733 429.45L-45.5951 429.475C-45.8656 429.816 -46.0868 430.177 -46.306 430.562L-46.3278 430.587L-46.3496 430.612C-46.5561 431.008 -46.6913 431.399 -46.8137 431.801C-46.8714 431.972 -46.8907 432.176 -46.9355 432.358C-46.9874 432.6 -47.0631 432.843 -47.0765 433.118C-47.0958 433.322 -47.0804 433.512 -47.0867 433.727C-47.0893 433.989 -47.0938 434.228 -47.0873 434.454C-47.0687 434.536 -47.0995 434.598 -47.0809 434.68C-47.0803 434.835 -47.0194 434.998 -46.9821 435.162C-46.9558 435.339 -46.9186 435.503 -46.8577 435.666C-46.8147 435.901 -46.7224 436.157 -46.632 436.389C-46.573 436.528 -46.4993 436.701 -46.4511 436.853C-46.3518 437.049 -46.2396 437.255 -46.1273 437.462C-46.017 437.645 -45.9305 437.83 -45.8093 438C-45.6881 438.17 -45.5945 438.295 -45.4515 438.44C-45.3284 438.634 -45.1469 438.812 -44.9802 438.955C-44.852 439.065 -44.7455 439.201 -44.6173 439.311C-44.489 439.421 -44.4083 439.535 -44.2582 439.619L-99.3207 545.95C-99.3682 545.953 -99.381 545.942 -99.4541 545.923C-99.5637 545.895 -99.7118 545.834 -99.8215 545.806C-99.8817 545.798 -99.9549 545.78 -100.004 545.759C-100.052 545.763 -100.09 545.729 -100.138 545.733L-99.6162 511.764C-96.2303 511.301 -93.6249 508.425 -93.5559 504.868C-93.5324 500.898 -96.6236 497.646 -100.629 497.533C-104.598 497.429 -107.804 500.538 -107.912 504.503C-107.933 508.056 -105.449 511.028 -102.053 511.72L-102.551 545.687C-102.598 545.691 -102.62 545.716 -102.657 545.707C-102.75 545.737 -102.832 545.755 -102.927 545.761C-102.961 545.776 -103.009 545.779 -103.02 545.792C-103.16 545.825 -103.3 545.859 -103.43 545.88C-103.499 545.909 -103.523 545.91 -103.592 545.939C-103.616 545.941 -103.663 545.944 -103.696 545.982C-103.743 545.985 -103.754 545.998 -103.789 546.012C-103.895 546.032 -104.009 546.087 -104.09 546.129C-104.113 546.13 -104.183 546.159 -104.193 546.172C-104.356 546.231 -104.481 546.299 -104.62 546.356C-104.654 546.371 -104.687 546.409 -104.735 546.412C-104.745 546.425 -104.745 546.425 -104.793 546.428C-104.838 546.455 -104.908 546.484 -104.94 546.522C-105.02 546.563 -105.099 546.628 -105.179 546.67C-105.201 546.695 -105.246 546.722 -105.268 546.747C-105.406 546.805 -105.528 546.921 -105.689 547.003C-105.71 547.029 -105.721 547.041 -105.721 547.041C-105.743 547.067 -105.743 547.067 -105.765 547.092C-105.776 547.105 -105.819 547.156 -105.843 547.157C-105.887 547.208 -105.898 547.221 -105.967 547.249L-105.978 547.262C-106.058 547.303 -106.112 547.367 -106.18 547.419C-106.201 547.444 -106.201 547.444 -106.212 547.457C-106.234 547.483 -106.267 547.521 -106.289 547.546C-106.321 547.584 -106.365 547.635 -106.398 547.673C-106.532 547.778 -106.641 547.904 -106.75 548.031L-106.761 548.044L-106.783 548.069C-106.805 548.095 -106.816 548.107 -106.859 548.158C-106.892 548.196 -106.946 548.259 -106.979 548.297C-107.023 548.348 -107.055 548.386 -107.088 548.424C-107.143 548.488 -107.197 548.551 -107.226 548.637C-107.259 548.675 -107.28 548.7 -107.3 548.749C-107.355 548.812 -107.384 548.898 -107.438 548.961C-107.471 548.999 -107.493 549.025 -107.5 549.085C-107.543 549.136 -107.563 549.185 -107.596 549.223C-107.639 549.273 -107.668 549.359 -107.675 549.419C-107.697 549.444 -107.73 549.482 -107.739 549.519C-107.771 549.557 -107.778 549.617 -107.786 549.677C-107.816 549.739 -107.849 549.777 -107.856 549.837C-107.887 549.899 -107.916 549.984 -107.948 550.022C-107.97 550.047 -107.977 550.107 -108.01 550.146L-108.032 550.171C-108.052 550.22 -108.073 550.245 -108.08 550.305C-108.087 550.365 -108.109 550.391 -108.129 550.44C-108.158 550.525 -108.174 550.622 -108.203 550.707C-108.232 550.793 -108.248 550.889 -108.277 550.975C-108.286 551.011 -108.318 551.049 -108.314 551.096C-108.321 551.157 -108.337 551.253 -108.344 551.313C-108.353 551.349 -108.361 551.41 -108.382 551.435C-108.389 551.495 -108.42 551.557 -108.427 551.617C-108.427 551.617 -108.449 551.642 -108.436 551.653C-108.421 551.688 -108.443 551.713 -108.428 551.748C-108.441 551.892 -108.478 552.014 -108.48 552.145C-108.476 552.192 -108.496 552.241 -108.492 552.289L-108.488 552.336C-108.486 552.36 -108.508 552.385 -108.504 552.433C-108.511 552.493 -108.52 552.529 -108.501 552.611L-140.53 557.011C-141.619 553.738 -144.883 551.595 -148.385 552.09C-152.3 552.65 -154.994 556.2 -154.435 560.142C-153.818 564.067 -150.222 566.783 -146.29 566.281C-142.753 565.772 -140.246 562.855 -140.179 559.429L-108.15 555.03C-108.122 555.076 -108.102 555.182 -108.074 555.227C-108.07 555.275 -108.032 555.308 -108.028 555.355C-108.028 555.355 -108.002 555.377 -108.013 555.39C-107.997 555.448 -108.006 555.485 -107.965 555.541C-107.949 555.6 -107.932 555.658 -107.917 555.693C-107.875 555.774 -107.847 555.819 -107.827 555.925C-107.801 555.947 -107.786 555.982 -107.774 555.993L-107.748 556.015C-107.731 556.073 -107.706 556.095 -107.689 556.154C-107.636 556.222 -107.619 556.28 -107.577 556.361C-107.536 556.417 -107.52 556.476 -107.455 556.531C-107.43 556.553 -107.413 556.611 -107.388 556.633C-107.375 556.644 -107.334 556.701 -107.322 556.712C-107.253 556.815 -107.211 556.895 -107.145 556.974C-107.12 556.996 -107.116 557.043 -107.077 557.076L-107.052 557.098C-107.039 557.109 -107.035 557.157 -107.009 557.179C-106.996 557.19 -106.971 557.212 -106.956 557.247C-106.943 557.258 -106.943 557.258 -106.918 557.28C-106.798 557.426 -106.692 557.562 -106.549 557.707L-106.523 557.729C-106.51 557.74 -106.485 557.762 -106.459 557.784C-106.382 557.85 -106.314 557.953 -106.237 558.019C-106.212 558.041 -106.186 558.063 -106.173 558.074C-106.122 558.118 -106.083 558.151 -106.045 558.184C-105.994 558.228 -105.955 558.261 -105.929 558.283C-105.814 558.382 -105.699 558.482 -105.549 558.566C-105.484 558.622 -105.42 558.677 -105.345 558.719C-105.268 558.785 -105.144 558.848 -105.032 558.9C-104.932 558.964 -104.807 559.027 -104.718 559.104C-104.718 559.104 -104.718 559.104 -104.705 559.115L-112.122 581.469C-115.507 580.92 -118.844 582.858 -119.991 586.215C-121.226 589.961 -119.192 594.002 -115.422 595.323C-111.646 596.584 -107.631 594.611 -106.362 590.851C-105.275 587.486 -106.771 583.907 -109.804 582.249L-102.387 559.895C-102.338 559.915 -102.265 559.934 -102.23 559.919C-102.168 559.951 -102.086 559.933 -102.036 559.953C-101.952 559.959 -101.866 559.989 -101.795 559.984C-101.795 559.984 -101.795 559.984 -101.77 560.006C-101.77 560.006 -101.757 560.017 -101.735 559.992C-101.662 560.011 -101.591 560.006 -101.556 559.991C-101.52 560.001 -101.52 560.001 -101.472 559.997C-101.437 559.983 -101.427 559.97 -101.401 559.992L-101.353 559.989C-101.282 559.984 -101.175 559.988 -101.103 559.983C-100.937 559.972 -100.804 559.998 -100.664 559.965C-100.629 559.95 -100.58 559.971 -100.51 559.942C-100.474 559.951 -100.452 559.926 -100.417 559.912C-100.299 559.903 -100.193 559.884 -100.074 559.876C-100.051 559.874 -99.9923 559.858 -99.9321 559.866C-99.8481 559.872 -99.7917 559.832 -99.7076 559.838C-99.6018 559.819 -99.4743 559.774 -99.3704 559.731C-99.323 559.728 -99.2775 559.701 -99.23 559.697C-99.1717 559.681 -99.1005 559.676 -99.0313 559.648C-98.9383 559.617 -98.8453 559.587 -98.7652 559.546C-98.7068 559.53 -98.6613 559.503 -98.6139 559.499C-98.5337 559.458 -98.4626 559.453 -98.3824 559.412C-98.3369 559.385 -98.2568 559.343 -98.2004 559.303C-98.1895 559.291 -98.1638 559.313 -98.142 559.287L-13.1122 673.879C-13.1231 673.892 -13.1449 673.917 -13.1667 673.942C-13.4084 674.198 -13.6462 674.5 -13.8604 674.801C-13.8931 674.839 -13.9257 674.877 -13.9437 674.95C-14.1341 675.25 -14.3354 675.562 -14.4963 675.93C-14.5181 675.956 -14.5033 675.991 -14.5251 676.016C-14.5956 676.176 -14.6572 676.299 -14.7021 676.481C-14.7687 676.688 -14.8245 676.883 -14.8822 677.054C-14.904 677.079 -14.8783 677.101 -14.8892 677.114C-14.979 677.478 -15.0212 677.838 -15.0655 678.175C-15.0469 678.257 -15.0885 678.332 -15.0828 678.403C-15.1141 678.751 -15.1109 679.084 -15.0603 679.414C-15.0545 679.486 -15.0448 679.604 -15.0372 679.699C-14.9865 680.029 -14.9358 680.359 -14.8396 680.662C-14.8338 680.733 -14.7915 680.814 -14.7729 680.896C-14.6729 681.247 -14.551 681.572 -14.4074 681.872C-14.4035 681.919 -14.3651 681.952 -14.3375 681.998C-14.1535 682.354 -13.9713 682.687 -13.7181 683.015C-13.7052 683.026 -13.7052 683.026 -13.6905 683.061L-13.6649 683.083C-12.8332 684.217 -11.6759 685.101 -10.2756 685.599C-10.2499 685.621 -10.2134 685.63 -10.1531 685.638C-9.80945 685.757 -9.48054 685.841 -9.12983 685.9C-9.03303 685.917 -8.97274 685.925 -8.87593 685.942C-8.54895 686.002 -8.22581 686.016 -7.89177 686.016C-7.82061 686.011 -7.71288 686.015 -7.64172 686.01C-7.30768 686.011 -6.93005 685.961 -6.58896 685.901C-6.5069 685.883 -6.44856 685.867 -6.39022 685.851C-6.03823 685.779 -5.68816 685.683 -5.32915 685.551C-5.29258 685.56 -5.27078 685.535 -5.22527 685.508C-4.65851 685.289 -4.12125 685.001 -3.61542 684.62C-3.48079 684.515 -3.34616 684.411 -3.22435 684.295C-3.21346 684.282 -3.19166 684.257 -3.13329 684.241C-2.85506 683.995 -2.57875 683.725 -2.37552 683.437C-2.33193 683.386 -2.27743 683.323 -2.24474 683.285C-2.02869 683.007 -1.81456 682.706 -1.64983 682.385C-1.62803 682.359 -1.60623 682.334 -1.59534 682.321L71.7806 708.209C71.7774 708.316 71.7831 708.387 71.7671 708.484C71.7479 708.688 71.7178 708.904 71.7114 709.119C71.6934 709.192 71.6992 709.263 71.7011 709.287C71.705 709.334 71.6979 709.394 71.689 709.431C71.7076 709.513 71.7024 709.597 71.7121 709.715C71.7057 709.93 71.7339 710.131 71.7621 710.331C71.7807 710.414 71.7974 710.472 71.7903 710.532C71.7814 710.568 71.8109 710.638 71.8128 710.662C71.8333 710.767 71.8519 710.85 71.8833 710.943C71.9353 711.142 71.9507 711.331 72.0155 711.541C72.0559 711.598 72.0507 711.682 72.1039 711.75C72.1078 711.797 72.1463 711.83 72.1501 711.877C72.1944 711.982 72.2514 712.097 72.2848 712.214C72.3419 712.329 72.3771 712.469 72.447 712.596C72.4637 712.654 72.4893 712.676 72.5169 712.722C72.5336 712.78 72.5631 712.85 72.6016 712.883C72.6163 712.918 72.6548 712.951 72.6586 712.998C72.6714 713.009 72.6753 713.056 72.701 713.078C72.8664 713.353 73.0427 713.615 73.2299 713.864C73.2556 713.886 73.2812 713.908 73.2832 713.932C73.3088 713.954 73.3088 713.954 73.2999 713.99L60.7447 728.599C57.7985 726.839 53.9292 727.372 51.6405 730.035C49.0793 733.015 49.447 737.542 52.4606 740.132C55.4742 742.722 60.0179 742.416 62.5791 739.436C64.8678 736.773 64.8002 732.856 62.6169 730.208L75.1939 715.574C75.2195 715.596 75.2433 715.594 75.2689 715.616C75.3074 715.649 75.3548 715.646 75.3933 715.679C75.5049 715.731 75.5927 715.784 75.7043 715.836C75.7902 715.866 75.8909 715.93 75.9768 715.96C76.0627 715.99 76.1377 716.032 76.198 716.04C76.2839 716.069 76.3589 716.112 76.4448 716.142C76.4576 716.153 76.5051 716.149 76.5307 716.171C76.5545 716.17 76.6058 716.214 76.6404 716.199C76.666 716.221 76.7135 716.218 76.7263 716.229C76.9584 716.296 77.227 716.373 77.472 716.451C77.5322 716.459 77.5797 716.455 77.6034 716.454C77.9907 716.522 78.3888 716.578 78.7575 716.564C78.8414 716.57 78.9235 716.552 79.0203 716.569C79.723 716.556 80.4546 716.457 81.1637 716.228C81.1983 716.214 81.2092 716.201 81.2348 716.223C81.3496 716.168 81.4554 716.148 81.5701 716.093C81.7323 716.034 81.9055 715.962 82.0786 715.89C82.1003 715.865 82.1003 715.865 82.135 715.851C82.1933 715.835 82.226 715.796 82.2952 715.768C82.3408 715.741 82.3735 715.703 82.4209 715.699C82.512 715.645 82.6267 715.59 82.7286 715.523C82.7395 715.51 82.7395 715.51 82.7613 715.485C82.9415 715.353 83.1108 715.234 83.3037 715.113C83.3255 715.088 83.3255 715.088 83.3364 715.075C83.38 715.024 83.4255 714.997 83.4582 714.959C83.5602 714.893 83.6147 714.829 83.7057 714.775L83.7275 714.75C83.7602 714.712 83.8038 714.661 83.8493 714.634L83.8711 714.609C83.9365 714.533 84.0128 714.444 84.1038 714.39C84.1474 714.339 84.2019 714.276 84.2346 714.238C84.2564 714.212 84.2673 714.2 84.2891 714.174L84.3109 714.149C84.3109 714.149 84.3109 714.149 84.3218 714.136C84.3981 714.047 84.4744 713.959 84.4923 713.886L84.5141 713.86L143.377 745.531C143.377 745.531 143.356 745.556 143.381 745.578C143.284 745.847 143.214 746.162 143.153 746.441C143.146 746.501 143.13 746.597 143.123 746.657C143.088 746.958 143.04 747.247 143.026 747.522C143.026 747.522 143.026 747.522 143.004 747.548L89.5134 754.558C88.4483 751.283 85.1719 749.129 81.6655 749.577C77.7449 750.066 75.044 753.676 75.5771 757.595C76.1467 761.524 79.7687 764.262 83.6893 763.773C87.1957 763.325 89.7351 760.371 89.8393 756.955L143.343 749.955C143.371 750.001 143.387 750.059 143.391 750.107C143.448 750.222 143.493 750.326 143.539 750.454C143.57 750.547 143.649 750.637 143.67 750.743C143.714 750.847 143.771 750.962 143.826 751.054C143.868 751.134 143.925 751.249 143.968 751.33C144.025 751.445 144.106 751.558 144.172 751.637C144.214 751.718 144.282 751.82 144.335 751.888C144.416 752.002 144.484 752.104 144.576 752.205C144.618 752.285 144.682 752.341 144.761 752.43C144.842 752.544 144.944 752.632 145.025 752.746C145.089 752.801 145.153 752.856 145.207 752.924C145.322 753.023 145.403 753.136 145.553 753.221C145.617 753.276 145.694 753.342 145.758 753.397C145.873 753.497 145.976 753.585 146.089 753.66C146.179 753.737 146.278 753.778 146.389 753.83C146.49 753.894 146.554 753.95 146.653 753.99C146.691 754.023 146.766 754.066 146.818 754.11C146.904 754.14 146.99 754.169 147.028 754.202C147.129 754.267 147.227 754.308 147.339 754.359C147.427 754.413 147.513 754.443 147.635 754.482C147.721 754.511 147.807 754.541 147.856 754.562C147.917 754.569 147.99 754.588 148.065 754.63C148.151 754.66 148.248 754.677 148.333 754.707C148.469 754.757 148.626 754.782 148.748 754.821C148.856 754.825 148.931 754.868 149.039 754.872C149.17 754.875 149.318 754.936 149.45 754.939C149.547 754.956 149.629 754.938 149.725 754.955C149.809 754.961 149.87 754.969 149.941 754.964L158.798 817.166C155.517 818.183 153.406 821.417 153.882 824.936C154.437 828.83 158.1 831.625 161.995 831.114C165.924 830.588 168.627 827.002 168.094 823.083C167.596 819.59 164.617 816.986 161.195 816.868L152.349 754.652C152.407 754.636 152.455 754.633 152.5 754.606C152.593 754.576 152.71 754.544 152.803 754.513C152.918 754.458 153.045 754.413 153.149 754.37C153.242 754.339 153.344 754.273 153.437 754.242C153.517 754.201 153.575 754.185 153.643 754.133L319.562 961.854C319.987 962.396 320.758 962.485 321.284 962.055C321.653 961.755 321.826 961.243 321.695 960.799L284.575 785.609C285.28 785.333 285.941 784.953 286.545 784.458C289.561 781.934 289.971 777.436 287.421 774.385C285.16 771.671 281.279 771.025 278.327 772.721L213.565 695.303C214.557 694.149 215.19 692.686 215.247 691.038C215.413 687.498 212.979 684.415 209.625 683.649L214.897 567.181C217.519 566.854 219.882 565.116 220.798 562.441C221.936 559.12 220.448 555.482 217.414 553.823L322.972 244.393C323.113 244.36 323.242 244.339 323.357 244.283C324.006 244.047 324.565 243.734 325.081 243.34C328.685 243.064 331.539 240.159 331.66 236.515C331.757 233.004 329.265 229.937 325.915 229.218L332.83 1.82855C332.979 0.721593 331.491 -0.115836 330.647 0.944433L330.607 1.04257L153.46 294.102L153.4 294.094L153.278 294.055L170.136 196.716C173.553 196.787 176.585 194.322 177.21 190.846C177.87 186.938 175.268 183.246 171.355 182.507C167.455 181.779 163.742 184.387 163.078 188.247C162.466 191.735 164.514 195.06 167.737 196.264L150.879 293.603L150.843 293.594C149.948 293.597 149.089 293.74 148.293 294.07C148.247 294.097 148.2 294.101 148.141 294.117C147.934 294.203 147.728 294.312 147.522 294.422C147.453 294.451 147.395 294.467 147.349 294.494C147.121 294.629 146.894 294.764 146.692 294.921C146.612 294.963 146.546 295.039 146.466 295.08C146.344 295.196 146.188 295.326 146.053 295.431C145.975 295.496 145.899 295.585 145.812 295.686C145.703 295.813 145.546 295.943 145.437 296.07C145.372 296.146 145.317 296.209 145.241 296.298C145.067 296.501 144.929 296.713 144.782 296.962C144.771 296.975 144.749 297 144.728 297.025C144.688 297.123 144.624 297.223 144.574 297.334C144.534 297.432 144.479 297.496 144.416 297.595C144.354 297.719 144.306 297.853 144.246 298.001C144.217 298.086 144.188 298.171 144.136 298.259C144.1 298.404 144.062 298.526 144.013 298.66C143.985 298.746 143.956 298.831 143.925 298.893C143.914 298.906 143.94 298.928 143.94 298.928C143.828 299.317 143.773 299.667 143.735 300.074C143.715 300.124 143.708 300.184 143.724 300.242C143.73 300.599 143.711 300.958 143.74 301.314C143.746 301.385 143.751 301.456 143.759 301.551C143.797 301.87 143.873 302.222 143.948 302.551C143.988 302.607 144.009 302.713 144.036 302.759ZM207.935 556.215C207.639 556.688 207.369 557.184 207.198 557.72C206.706 559.149 206.708 560.651 207.143 562.039L132.752 597.674C131.744 596.279 130.227 595.217 128.392 594.809C127.992 594.73 127.572 594.7 127.189 594.679L110.052 470.043C110.099 470.04 110.11 470.027 110.158 470.024C110.192 470.009 110.251 469.993 110.298 469.99C110.322 469.988 110.343 469.963 110.391 469.96C110.484 469.929 110.601 469.897 110.668 469.845C110.726 469.829 110.761 469.814 110.794 469.776C110.967 469.705 111.127 469.622 111.322 469.525C111.322 469.525 111.322 469.525 111.333 469.512C111.389 469.473 111.448 469.456 111.48 469.418C111.628 469.325 111.788 469.242 111.91 469.126C111.932 469.101 111.99 469.085 112.012 469.059C112.103 469.005 112.214 468.902 112.305 468.848L207.935 556.215ZM151.272 740.807C151.248 740.808 151.223 740.786 151.175 740.79C150.861 740.74 150.56 740.702 150.273 740.698L129.211 608.566C131.546 607.794 133.396 605.901 133.926 603.313C134.175 602.116 134.078 600.931 133.774 599.832L208.165 564.196C208.784 565.058 209.596 565.8 210.533 566.318L151.272 740.807ZM-95.0312 549.416L-37.1119 505.577C-36.6611 505.986 -36.1668 506.345 -35.5922 506.662C-35.5666 506.684 -35.5666 506.684 -35.541 506.706C-35.2557 506.841 -34.9921 507.002 -34.6979 507.1C-34.5882 507.128 -34.4766 507.18 -34.367 507.208C-34.2939 507.227 -34.2811 507.238 -34.208 507.257C-33.8041 507.383 -33.3931 507.45 -32.9949 507.505C-32.9347 507.513 -32.8981 507.523 -32.816 507.505C-32.3705 507.557 -31.9652 507.553 -31.5382 507.523C-31.4908 507.519 -31.4651 507.541 -31.4433 507.516C-31.4196 507.514 -31.4196 507.514 -31.3978 507.489C-30.9491 507.434 -30.5022 507.355 -30.0957 507.219C-30.0848 507.206 -30.0592 507.228 -30.0374 507.203C-29.9444 507.173 -29.8643 507.131 -29.7931 507.126L7.56588 571.291C6.81644 571.903 6.18432 572.639 5.75546 573.527C5.64135 573.738 5.53813 573.935 5.48235 574.13L-94.2751 552.998C-94.2789 552.951 -94.2571 552.925 -94.2827 552.903C-94.2667 552.807 -94.2982 552.713 -94.3078 552.595C-94.3174 552.476 -94.3052 552.333 -94.3258 552.227C-94.3354 552.108 -94.3302 552.024 -94.3399 551.906C-94.3457 551.835 -94.3643 551.753 -94.3591 551.669C-94.3688 551.55 -94.4002 551.457 -94.4444 551.353C-94.4541 551.235 -94.5111 551.119 -94.5208 551.001C-94.5413 550.895 -94.5509 550.777 -94.5952 550.672C-94.6247 550.603 -94.6304 550.532 -94.6728 550.451C-94.7042 550.358 -94.7612 550.243 -94.7817 550.137C-94.826 550.033 -94.8831 549.918 -94.953 549.792C-94.9991 549.664 -95.0306 549.571 -95.0857 549.479C-95.0146 549.474 -95.0402 549.452 -95.0312 549.416ZM76.742 702.617L16.4863 582.573C17.3653 581.939 18.1083 581.1 18.6442 580.062C18.7366 579.877 18.7923 579.682 18.8718 579.486L119.763 601.504C119.68 604.013 120.908 606.346 122.976 607.727L80.6043 702.585C80.5568 702.588 80.544 702.577 80.4818 702.546C80.469 702.535 80.469 702.535 80.4215 702.538C80.3247 702.521 80.2388 702.491 80.142 702.474C80.1074 702.489 80.0817 702.467 80.0343 702.47C79.9375 702.453 79.8772 702.445 79.7804 702.428C79.6361 702.415 79.479 702.39 79.3476 702.387C79.2636 702.381 79.2034 702.373 79.1065 702.356C79.0354 702.361 78.9623 702.342 78.8911 702.347C78.8437 702.351 78.8308 702.34 78.809 702.365L78.7725 702.356C78.6648 702.351 78.5718 702.382 78.475 702.365C78.3564 702.373 78.2378 702.381 78.1192 702.39C78.0006 702.398 77.9294 702.403 77.8236 702.422C77.789 702.437 77.789 702.437 77.7524 702.427C77.705 702.431 77.6704 702.445 77.612 702.461C77.5646 702.464 77.5191 702.491 77.4716 702.495C77.4261 702.522 77.3421 702.516 77.2966 702.543C77.1562 702.576 76.9792 702.601 76.8388 702.634C76.8003 702.601 76.7529 702.604 76.742 702.617ZM120.237 599.111L19.3454 577.093C19.4037 575.313 18.7868 573.592 17.6602 572.205L104.317 469.348C104.343 469.37 104.378 469.356 104.403 469.378C104.528 469.44 104.641 469.516 104.778 469.59L104.791 469.601C105.003 469.717 105.214 469.809 105.398 469.88L105.424 469.902L105.45 469.924C105.645 469.982 105.843 470.063 106.025 470.11C106.208 470.157 106.415 470.202 106.597 470.249L106.623 470.271C106.84 470.303 107.081 470.334 107.286 470.356C107.322 470.365 107.335 470.376 107.383 470.373C107.454 470.368 107.514 470.375 107.598 470.381L124.722 595.007C122.742 595.598 121.062 597.086 120.237 599.111ZM-95.2372 556.426C-95.1756 556.303 -95.0795 556.165 -94.9961 556.016C-94.9673 555.931 -94.9474 555.882 -94.9186 555.796C-94.8897 555.711 -94.8461 555.66 -94.8045 555.586C-94.7936 555.573 -94.7756 555.5 -94.7647 555.487C-94.7577 555.427 -94.7141 555.377 -94.6942 555.328L5.04142 576.485C4.9634 579.196 6.41833 581.835 9.00481 583.132C10.7116 584.026 12.6049 584.132 14.2821 583.633L74.5378 703.677L74.516 703.703C74.4487 703.755 74.3833 703.831 74.3032 703.872C74.2814 703.898 74.2814 703.898 74.2339 703.901L-95.2372 556.426ZM108.392 456.071C108.332 456.064 108.248 456.058 108.213 456.072C107.925 456.044 107.638 456.041 107.341 456.05C107.269 456.055 107.222 456.058 107.151 456.063C107.103 456.066 107.056 456.07 107.032 456.071C106.737 456.104 106.432 456.173 106.115 456.231C106.056 456.247 106.022 456.261 105.964 456.277C105.603 456.386 105.254 456.506 104.908 456.649C104.861 456.652 104.828 456.69 104.793 456.705C104.772 456.73 104.735 456.721 104.735 456.721C104.415 456.886 104.129 457.037 103.799 457.239C103.788 457.252 103.754 457.266 103.732 457.291C103.721 457.304 103.699 457.33 103.652 457.333C103.641 457.346 103.641 457.346 103.606 457.36C103.291 457.596 102.989 457.844 102.704 458.15C102.682 458.175 102.671 458.188 102.65 458.213C102.617 458.252 102.562 458.315 102.519 458.366C102.464 458.429 102.421 458.48 102.366 458.543C102.344 458.569 102.312 458.607 102.29 458.632C102.214 458.721 102.148 458.797 102.085 458.897C102.03 458.96 102.023 459.02 101.969 459.084C101.885 459.232 101.776 459.359 101.706 459.519C101.673 459.557 101.644 459.643 101.624 459.692C101.574 459.802 101.51 459.902 101.449 460.026C101.416 460.064 101.398 460.137 101.4 460.16C101.321 460.356 101.239 460.529 101.194 460.711C101.173 460.736 101.165 460.796 101.156 460.833C101.121 460.978 101.083 461.1 101.034 461.235C101.012 461.26 101.012 461.26 101.027 461.295C100.967 461.442 100.944 461.599 100.921 461.755C100.892 461.841 100.898 461.912 100.869 461.997C100.853 462.094 100.816 462.215 100.825 462.334C100.824 462.465 100.799 462.598 100.809 462.716C100.792 462.813 100.802 462.931 100.812 463.05C100.803 463.086 100.818 463.121 100.821 463.168C100.812 463.205 100.801 463.218 100.805 463.265C100.82 463.3 100.789 463.361 100.83 463.418C100.839 463.537 100.849 463.655 100.859 463.774C100.855 463.881 100.852 463.989 100.873 464.095C100.878 464.166 100.91 464.259 100.941 464.352C100.958 464.41 100.951 464.47 100.968 464.529C100.986 464.611 100.981 464.695 101.034 464.763C101.057 464.892 101.092 465.033 101.14 465.184C101.161 465.29 101.201 465.347 101.232 465.44C101.249 465.498 101.253 465.546 101.281 465.592C101.297 465.65 101.314 465.708 101.354 465.765C101.345 465.802 101.397 465.846 101.388 465.882C101.428 465.939 101.445 465.997 101.476 466.09C101.55 466.264 101.635 466.425 101.708 466.599C101.736 466.644 101.762 466.666 101.778 466.725L101.804 466.747C101.795 466.783 101.846 466.827 101.848 466.851C101.918 466.977 102.024 467.113 102.12 467.261C102.146 467.283 102.146 467.283 102.149 467.33C102.258 467.49 102.364 467.625 102.496 467.783C102.509 467.794 102.524 467.829 102.562 467.862L18.0811 568.135L146.816 311.873L108.624 456.139C108.463 456.066 108.429 456.081 108.392 456.071ZM21.7254 368.03L145.187 305.026C145.374 305.275 145.572 305.512 145.794 305.747C145.832 305.78 145.845 305.791 145.896 305.835C146.142 306.068 146.373 306.266 146.64 306.474L14.303 569.937C14.0343 569.86 13.7676 569.808 13.5028 569.778L15.4679 377.931C17.3413 377.645 18.9307 376.652 20.0179 375.205C20.1051 375.104 20.2179 375.024 20.316 374.91C20.4032 374.809 20.4866 374.66 20.5737 374.558C20.7462 374.332 20.9206 374.129 21.0328 373.895C21.1289 373.757 21.1648 373.611 21.261 373.473C21.386 373.25 21.4982 373.016 21.5758 372.796C21.5956 372.747 21.6392 372.696 21.6501 372.683C21.7456 372.391 21.8193 372.123 21.8911 371.832C21.9091 371.759 21.9251 371.663 21.9321 371.603C22.0129 371.275 22.0552 370.915 22.0648 370.592C22.0738 370.556 22.0808 370.496 22.0769 370.448C22.0846 370.102 22.0814 369.769 22.0307 369.439C22.0358 369.355 22.0211 369.32 22.0262 369.236C21.9717 368.859 21.8826 368.496 21.7716 368.158C21.7331 368.125 21.7293 368.077 21.7254 368.03ZM-28.7104 494.167L13.0098 378.95L11.0767 569.722C10.6061 569.802 10.1502 569.918 9.72007 570.055L-27.6152 505.889C-27.6043 505.877 -27.5825 505.851 -27.5479 505.837C-27.2459 505.589 -26.9606 505.283 -26.6991 504.979C-26.6555 504.928 -26.6228 504.89 -26.5901 504.852C-26.3522 504.549 -26.1163 504.223 -25.9298 503.876C-25.9009 503.791 -25.8682 503.753 -25.8265 503.678C-25.6926 503.419 -25.5823 503.161 -25.4739 502.879C-25.4451 502.794 -25.4253 502.744 -25.4439 502.662C-25.3772 502.455 -25.3342 502.249 -25.2676 502.042C-25.2374 501.826 -25.1965 501.596 -25.1426 501.378C-25.1125 501.161 -25.1061 500.946 -25.0997 500.731C-25.0843 500.48 -25.1016 500.267 -25.1209 500.03C-25.1305 499.911 -25.1055 499.778 -25.128 499.649C-25.1376 499.53 -25.1799 499.45 -25.2004 499.344C-25.2268 499.167 -25.2659 498.979 -25.3287 498.793C-25.3717 498.557 -25.4384 498.324 -25.514 498.126C-25.5878 497.953 -25.6615 497.779 -25.7353 497.606C-25.8129 497.384 -25.8994 497.2 -26.0117 496.993C-26.111 496.797 -26.2322 496.627 -26.3663 496.446C-26.4637 496.274 -26.5592 496.126 -26.6913 495.968C-26.851 495.765 -26.9959 495.596 -27.1883 495.431C-27.3056 495.308 -27.4082 495.22 -27.5364 495.109C-27.7288 494.944 -27.9211 494.779 -28.1244 494.626C-28.2526 494.516 -28.4027 494.431 -28.5399 494.357C-28.5694 494.288 -28.6117 494.207 -28.7104 494.167ZM-42.0013 440.677C-41.9263 440.72 -41.8314 440.713 -41.7564 440.755C-41.5608 440.813 -41.3307 440.857 -41.1242 440.902C-40.9197 440.923 -40.7113 440.992 -40.4959 441.001C-40.3882 441.005 -40.3388 441.026 -40.2311 441.03L-34.2314 493.457C-34.2878 493.496 -34.3462 493.512 -34.4045 493.528C-34.6597 493.618 -34.8693 493.68 -35.088 493.779C-35.261 493.851 -35.4104 493.921 -35.5835 493.992C-35.7765 494.113 -35.9695 494.234 -36.1753 494.344C-36.3228 494.437 -36.492 494.557 -36.6266 494.661C-36.785 494.768 -36.9267 494.933 -37.0831 495.063C-37.2395 495.193 -37.394 495.347 -37.5139 495.486C-37.6447 495.638 -37.7537 495.765 -37.8607 495.916C-38.0133 496.093 -38.1403 496.293 -38.2672 496.492C-38.3634 496.63 -38.4467 496.779 -38.5281 496.952C-38.6185 497.161 -38.7435 497.384 -38.8211 497.604C-38.8499 497.689 -38.9044 497.753 -38.9461 497.827C-39.0127 498.034 -39.0685 498.229 -39.1134 498.411C-39.1313 498.484 -39.1512 498.533 -39.1583 498.593C-39.2519 498.909 -39.2832 499.257 -39.3057 499.569C-39.3089 499.676 -39.3249 499.773 -39.3409 499.869C-39.3357 500.226 -39.3325 500.56 -39.3036 500.915C-39.3126 500.952 -39.294 501.034 -39.303 501.07C-39.2882 501.105 -39.2844 501.152 -39.2934 501.189C-39.2369 501.59 -39.135 501.964 -39.031 502.362C-39.0253 502.433 -38.983 502.514 -38.9772 502.585C-38.8662 502.923 -38.7187 503.27 -38.5347 503.626L-96.4758 547.491C-96.54 547.436 -96.5785 547.402 -96.6426 547.347C-96.6682 547.325 -96.7067 547.292 -96.7323 547.27C-96.7964 547.215 -96.8606 547.16 -96.899 547.127C-96.9504 547.083 -96.9632 547.072 -97.0145 547.028L-42.0013 440.677ZM-0.821621 680.098C-0.847265 680.076 -0.825469 680.051 -0.821621 680.098C-0.759462 679.689 -0.744742 679.282 -0.740926 678.889C-0.755669 678.854 -0.733874 678.829 -0.746696 678.818C-0.753777 678.437 -0.7974 678.046 -0.864742 677.658C-0.868614 677.61 -0.881437 677.599 -0.870537 677.587C-0.950704 677.187 -1.06356 676.826 -1.20015 676.466C-1.22581 676.444 -1.20402 676.418 -1.22966 676.396C-1.45667 675.804 -1.77663 675.243 -2.15495 674.697C-2.19727 674.617 -2.23574 674.583 -2.29985 674.528C-2.43386 674.347 -2.60442 674.156 -2.78395 674.002C-2.90323 673.855 -3.05711 673.723 -3.18534 673.613C-3.35205 673.47 -3.51876 673.327 -3.70727 673.209C-3.88296 673.102 -4.02402 672.98 -4.18879 672.861C-4.36447 672.754 -4.56388 672.649 -4.74854 672.578C-4.9351 672.484 -5.13451 672.379 -5.332 672.297C-5.407 672.255 -5.47114 672.2 -5.57884 672.195C-6.21874 671.954 -6.85989 671.844 -7.49527 671.805C-7.49527 671.805 -7.49527 671.805 -7.52989 671.82C-7.92419 671.811 -8.30567 671.814 -8.68522 671.841C-8.73267 671.844 -8.7801 671.847 -8.80383 671.849C-9.18146 671.899 -9.53537 671.948 -9.88351 672.068C-9.94185 672.084 -10.013 672.089 -10.0714 672.105C-10.4195 672.224 -10.7439 672.342 -11.0645 672.508C-11.0754 672.521 -11.101 672.499 -11.1228 672.524L-93.809 560.939L72.7049 705.784L72.6831 705.809C72.6504 705.847 72.6088 705.922 72.5761 705.96C72.5543 705.985 72.5325 706.011 72.5325 706.011L-0.821621 680.098ZM155.528 752.666C155.571 752.615 155.582 752.602 155.626 752.552C155.68 752.488 155.746 752.412 155.8 752.349C155.898 752.235 155.985 752.133 156.06 752.021C156.136 751.932 156.176 751.834 156.248 751.698C156.301 751.611 156.377 751.522 156.406 751.436C156.439 751.398 156.467 751.313 156.5 751.275C156.542 751.2 156.571 751.115 156.625 751.051C156.689 750.952 156.718 750.866 156.757 750.768C156.779 750.743 156.799 750.694 156.821 750.668L274.788 778.499C274.692 780.246 275.207 782.033 276.434 783.485C277.902 785.254 280.061 786.139 282.204 786.085L318.27 956.379L155.528 752.666ZM275.301 776.139L157.333 748.308C157.341 748.117 157.362 747.937 157.323 747.749C157.332 747.712 157.314 747.63 157.323 747.594C157.305 747.226 157.25 746.848 157.183 746.46L157.179 746.412C157.09 746.049 156.979 745.711 156.853 745.338C156.862 745.302 156.822 745.245 156.809 745.234C156.674 744.898 156.518 744.587 156.312 744.256C156.295 744.198 156.255 744.141 156.191 744.086C156.135 743.994 156.066 743.868 155.998 743.766L203.907 696.373C204.972 697.156 206.288 697.648 207.727 697.738C209.164 697.804 210.508 697.46 211.67 696.783L276.419 774.19C275.947 774.842 275.581 775.476 275.301 776.139ZM200.88 690.244C200.81 691.882 201.308 693.456 202.22 694.703L154.298 742.085C154.072 741.934 153.843 741.759 153.594 741.634L212.366 568.621L207.158 683.535C203.765 683.904 201.046 686.704 200.88 690.244ZM209.555 554.433L113.938 467.077C113.989 466.966 114.054 466.89 114.096 466.816C114.147 466.705 114.201 466.642 114.241 466.544C114.326 466.418 114.362 466.273 114.436 466.16C114.48 466.11 114.465 466.075 114.498 466.037L114.52 466.012C114.541 465.986 114.527 465.951 114.548 465.926C114.597 465.792 114.657 465.644 114.693 465.499C114.734 465.424 114.741 465.364 114.77 465.279C114.79 465.23 114.808 465.157 114.815 465.097C114.835 465.048 114.831 465 114.84 464.964C114.847 464.904 114.854 464.844 114.885 464.782C114.944 464.48 114.979 464.18 115.014 463.879C115.034 463.83 115.03 463.783 115.025 463.712C115.032 463.652 115.037 463.568 115.022 463.533C115.045 463.222 115.028 462.877 115.003 462.569C115.012 462.533 115.009 462.485 114.994 462.45C115.003 462.414 114.973 462.345 114.993 462.296C114.943 461.965 114.892 461.635 114.783 461.321C114.783 461.321 114.783 461.321 114.77 461.31C114.655 460.925 114.508 460.577 114.335 460.208C114.322 460.197 114.318 460.15 114.305 460.139C114.136 459.817 113.952 459.46 113.726 459.178C113.675 459.134 113.684 459.098 113.632 459.054C113.62 459.043 113.616 458.995 113.59 458.973C113.59 458.973 113.59 458.973 113.577 458.962L318.35 244.324C318.941 244.545 319.582 244.655 320.204 244.683L215.047 553.023C213.087 552.684 211.093 553.24 209.555 554.433ZM316.22 243.066L111.865 457.27C111.587 457.075 111.276 456.918 110.991 456.783C110.939 456.739 110.927 456.728 110.854 456.709L150.238 307.891C150.286 307.887 150.333 307.884 150.357 307.882C150.706 307.917 151.04 307.918 151.396 307.893C151.514 307.885 151.585 307.88 151.704 307.871C152.034 307.824 152.364 307.778 152.656 307.698C152.727 307.693 152.807 307.651 152.9 307.621C153.24 307.537 153.564 307.419 153.863 307.279C153.884 307.254 153.91 307.276 153.921 307.263C154.289 307.095 154.595 306.894 154.924 306.692C154.946 306.667 154.983 306.676 155.004 306.651C155.298 306.44 155.612 306.203 155.865 305.935C155.887 305.91 155.919 305.872 155.941 305.847C156.217 305.577 156.446 305.311 156.671 304.997C156.693 304.972 156.726 304.934 156.748 304.908C156.844 304.77 156.931 304.669 157.014 304.52C157.065 304.409 157.118 304.322 157.168 304.211C157.271 304.013 157.362 303.804 157.476 303.594C157.557 303.421 157.635 303.201 157.702 302.994C157.739 302.872 157.805 302.796 157.808 302.689C157.853 302.507 157.907 302.288 157.952 302.106C157.937 302.072 157.959 302.046 157.944 302.012C158.017 301.589 158.046 301.218 158.05 300.824C158.046 300.777 158.055 300.741 158.041 300.706C158.032 300.301 157.999 299.898 157.931 299.51L157.928 299.462L314.602 241.213C315.029 241.91 315.583 242.563 316.22 243.066ZM330.233 6.27715L323.461 229.115C322.231 229.249 321.114 229.745 320.133 230.445C319.469 230.491 318.836 230.631 318.177 230.88C314.88 232.148 313.043 235.53 313.722 238.891L157.047 297.14C157.034 297.129 157.034 297.129 157.009 297.107C156.843 296.833 156.641 296.549 156.443 296.312C156.392 296.268 156.375 296.21 156.337 296.177C156.113 295.918 155.878 295.673 155.622 295.452C155.609 295.441 155.558 295.397 155.545 295.386L330.233 6.27715Z" fill="#F9F5FF"/>
</svg>
