<svg width="51" height="51" viewBox="0 0 51 51" fill="none" xmlns="http://www.w3.org/2000/svg">
<path d="M22.6464 35.0496L23.8941 38.7716C24.3842 40.356 24.3319 40.3788 23.1096 41.5856C22.9304 41.7624 22.7629 41.9554 22.5636 42.11L22.5349 42.1325C21.9242 42.5971 21.1861 41.7239 20.8188 41.3454L18.1817 38.6968C17.7565 38.2889 17.8687 38.2978 17.8159 37.7433C17.875 37.6232 20.309 36.2365 20.539 36.1209C21.2363 35.7703 22.0014 35.4888 22.6464 35.0496Z" fill="#FF99F5"/>
<path d="M13.6397 33.9393C13.3926 33.7698 13.1768 33.5595 12.96 33.3536L10.3346 30.7738C10.0764 30.5125 9.78902 30.25 9.56581 29.9585L9.46558 29.8193C9.18058 29.3123 9.71253 28.9491 10.0193 28.6449L10.8682 27.7998C11.6896 26.9875 11.8802 27.0229 12.9806 27.4824L16.2893 28.8968C16.7323 29.0811 17.1684 29.2994 17.6186 29.4635L14.7215 32.4488C14.3113 32.9155 13.8885 33.3612 13.6397 33.9393Z" fill="#FF99F5"/>
<path d="M28.3174 29.5873C28.4228 29.4538 28.5693 29.3299 28.69 29.2087L32.7638 25.3004C33.3286 24.7424 33.8933 24.1628 34.5057 23.6567C34.6867 24.096 34.7716 24.5568 34.8872 25.0155L37.5859 36.4021C37.7071 36.9371 37.8535 37.4713 37.9293 38.0154C38.1067 39.2898 37.3918 39.7316 36.5579 40.5348C35.7839 41.2803 35.0282 42.3093 33.7942 41.9962L33.7528 41.9862C33.3093 41.8754 32.9329 41.6053 32.6721 41.2313L32.6468 41.1956C32.5229 41.0173 32.4341 40.8199 32.3549 40.6185L28.5931 30.3949C28.505 30.1629 28.3188 29.8294 28.3174 29.5873Z" fill="#FF99F5"/>
<path d="M10.9833 14.3066C11.9289 13.3796 13.2515 13.9155 14.3559 14.1455L27.4998 17.1014C28.1531 17.2614 28.8311 17.3714 29.4723 17.5716L22.2523 24.793L11.2569 19.8439C10.5665 19.591 9.41389 19.1237 9.01936 18.5464C8.53342 17.8352 8.61108 16.8713 9.05795 16.1613C9.36709 15.6702 10.47 14.6513 10.9833 14.3066Z" fill="url(#paint0_linear_123_4847)"/>
<path d="M29.4724 17.5716L33.6176 13.4303C35.106 11.9354 35.8084 11.7383 37.7992 10.9727L38.6415 10.6705C39.0413 10.5281 39.4373 10.3827 39.8667 10.3755C41.1719 10.3537 42.2349 11.6061 42.2432 12.8636C42.246 13.2951 42.1574 13.7093 42.0676 14.1287L41.6882 15.6987C41.4829 16.4759 41.3678 16.8949 40.7839 17.4798L34.5057 23.6569C33.8933 24.1629 33.3285 24.7425 32.7638 25.3005L28.69 29.2088C28.5692 29.3301 28.4228 29.4539 28.3174 29.5874L23.1507 34.5266C22.9988 34.6754 22.7367 34.8608 22.6465 35.0495C22.0015 35.4887 21.2364 35.7703 20.5392 36.1208C20.3091 36.2365 17.8751 37.6232 17.816 37.7433L17.4826 37.9137C16.8367 38.1909 15.265 38.1782 14.6578 37.9195C13.1108 37.2605 13.0385 35.2832 13.6397 33.9394C13.8885 33.3612 14.3113 32.9155 14.7215 32.4488L17.6186 29.4635L22.2523 24.793L29.4724 17.5716ZM35.6801 13.9858C34.4892 14.473 35.5923 15.379 36.092 15.9007C36.5121 16.3394 37.0796 17.1482 37.7716 17.0578C38.7664 16.6498 37.8645 15.8369 37.4602 15.3981L36.7005 14.6076C36.4421 14.352 36.078 13.959 35.6801 13.9858Z" fill="#4F378A"/>
<defs>
<linearGradient id="paint0_linear_123_4847" x1="29.4825" y1="18.4765" x2="8.8323" y2="19.8155" gradientUnits="userSpaceOnUse">
<stop stop-color="#FF00E5" stop-opacity="0.4"/>
<stop offset="1" stop-color="white"/>
</linearGradient>
</defs>
</svg>
