<svg width="33" height="33" viewBox="0 0 33 33" fill="none" xmlns="http://www.w3.org/2000/svg">
<path d="M2.2002 0.249855C1.09395 0.249855 0.200195 1.1436 0.200195 2.24985V31.2499C0.200195 31.7999 0.650195 32.2499 1.2002 32.2499H3.2002C3.7502 32.2499 4.2002 31.7999 4.2002 31.2499V2.24985C4.2002 1.1436 3.30645 0.249855 2.2002 0.249855Z" fill="#4F378A"/>
<path fill-rule="evenodd" clip-rule="evenodd" d="M18.9439 13.2249C15.3689 12.2811 11.9627 11.4249 6.2002 13.9186V17.7624C12.1252 15.4124 15.8627 16.3436 19.4564 17.2874C23.0314 18.2311 26.4377 19.0874 32.2002 16.5936V12.7499C29.4752 13.8311 27.1877 14.2561 25.1939 14.2561C22.8564 14.2561 20.8877 13.7374 18.9439 13.2249ZM19.5377 5.35611C22.7752 6.33111 25.6252 7.16861 32.2002 4.09985V2.17485C32.2002 0.606105 30.5252 -0.206395 29.1127 0.512355C23.9359 3.15062 21.4683 2.26724 18.8207 1.31945C15.9928 0.307088 12.9595 -0.778774 6.2002 2.27486V11.7686C12.1252 9.42486 15.8627 10.3499 19.4564 11.2936C23.0314 12.2311 26.4377 13.0874 32.2002 10.5999V6.29361C28.8502 7.76236 26.3689 8.25611 24.3189 8.25611C22.2689 8.25611 20.6314 7.76861 18.9627 7.26236C18.7127 7.18736 18.4564 7.11236 18.2064 7.04361V4.96861C18.6564 5.09361 19.1002 5.22485 19.5377 5.35611ZM10.2002 8.25611C9.6502 8.25611 9.2002 7.81236 9.2002 7.25611C9.2002 6.70611 9.6502 6.2561 10.2002 6.2561C10.7502 6.2561 11.2002 6.69986 11.2002 7.25611C11.2002 7.81236 10.7502 8.25611 10.2002 8.25611ZM10.2002 4.76861C9.6502 4.76861 9.2002 4.32485 9.2002 3.7686C9.2002 3.21861 9.6502 2.7686 10.2002 2.7686C10.7502 2.7686 11.2002 3.21235 11.2002 3.7686C11.2002 4.3186 10.7502 4.76861 10.2002 4.76861ZM14.2002 7.76236C13.6502 7.76236 13.2002 7.31861 13.2002 6.76236C13.2002 6.21236 13.6502 5.76236 14.2002 5.76236C14.7502 5.76236 15.2002 6.20611 15.2002 6.76236C15.2002 7.31236 14.7502 7.76236 14.2002 7.76236ZM14.2002 4.26861C13.6502 4.26861 13.2002 3.82485 13.2002 3.2686C13.2002 2.7186 13.6502 2.2686 14.2002 2.2686C14.7502 2.2686 15.2002 2.71235 15.2002 3.2686C15.2002 3.8186 14.7502 4.26861 14.2002 4.26861Z" fill="#FF99F5"/>
<path d="M18.9439 19.2249C15.3689 18.2811 11.9627 17.4249 6.2002 19.9186V24.2499C12.2027 21.2696 15.7026 22.263 19.2029 23.2565C22.4708 24.184 25.7389 25.1116 31.0439 22.8061C31.7564 22.4936 32.2002 21.7749 32.2002 21.0061V18.7561C29.4752 19.8374 27.1877 20.2624 25.1939 20.2624C22.8564 20.2561 20.8877 19.7374 18.9439 19.2249Z" fill="#FF99F5"/>
</svg>
