<svg width="552" height="329" viewBox="0 0 552 329" fill="none" xmlns="http://www.w3.org/2000/svg">
<ellipse cx="224.569" cy="327.197" rx="83.0686" ry="111.638" transform="rotate(90 224.569 327.197)" fill="white" fill-opacity="0.1"/>
<ellipse cx="451.35" cy="158.8" rx="83.5313" ry="112.259" transform="rotate(90 451.35 158.8)" fill="white" fill-opacity="0.1"/>
<path opacity="0.1" d="M112.932 -8.26274C112.932 2.70674 115.835 13.5688 121.477 23.7033C127.118 33.8378 135.387 43.0462 145.812 50.8028C156.236 58.5594 168.611 64.7123 182.231 68.9101C195.851 73.108 210.449 75.2686 225.191 75.2686C239.933 75.2685 254.531 73.1079 268.151 68.9101C281.771 64.7123 294.146 58.5594 304.571 50.8028C314.995 43.0462 323.264 33.8378 328.905 23.7033C334.547 13.5688 337.451 2.70671 337.451 -8.26277L225.191 -8.26274L112.932 -8.26274Z" fill="white"/>
<path opacity="0.1" d="M0.130898 242.479C14.9306 242.479 29.5853 240.309 43.2584 236.095C56.9316 231.881 69.3553 225.704 79.8202 217.917C90.2852 210.13 98.5864 200.886 104.25 190.712C109.914 180.538 112.829 169.633 112.829 158.621C112.829 147.609 109.914 136.704 104.25 126.53C98.5864 116.356 90.2851 107.112 79.8202 99.325C69.3552 91.5382 56.9315 85.3613 43.2584 81.1471C29.5853 76.9328 14.9305 74.7638 0.130847 74.7638L0.130888 158.621L0.130898 242.479Z" fill="white"/>
<rect opacity="0.2" x="338.257" y="74.8164" width="167.659" height="225.323" transform="rotate(90 338.257 74.8164)" fill="white"/>
<path d="M563.576 242.476L443.538 329.351L338.256 410.135L338.256 242.476L563.576 242.476Z" fill="white" fill-opacity="0.15"/>
<path d="M338.257 74.8164L458.295 -12.0585L563.577 -92.8421L563.577 74.8164L338.257 74.8164Z" fill="white" fill-opacity="0.15"/>
</svg>
