<svg width="50" height="50" viewBox="0 0 50 50" fill="none" xmlns="http://www.w3.org/2000/svg">
<path d="M25.6911 24.6023C25.4208 22.8125 26.6428 22.657 28.0307 22.4342L35.035 21.3117C37.5102 20.9843 37.7262 21.9564 39.402 23.6153L40.6374 24.8323C41.308 25.4889 42.1906 26.2976 41.389 27.2885C40.9087 27.8823 40.1845 27.8592 39.4895 27.9515L37.2816 28.2378C37.1297 28.2824 36.9413 28.2939 36.7835 28.3175L31.6284 29.0074C29.7348 29.259 29.1016 29.5592 27.872 27.7423L26.0678 25.1628C25.9424 24.9885 25.8448 24.7762 25.7047 24.6171L25.6911 24.6023Z" fill="#4F378A"/>
<path d="M12.7596 28.2727L10.7243 27.9923C10.0299 27.9022 9.14167 27.9499 8.66909 27.331C7.76419 26.1464 8.94566 25.3217 9.65011 24.5897L11.5829 22.5915C13.0952 21.0981 13.5557 21.1113 15.5511 21.4195L22.592 22.5151C23.7736 22.7126 24.5833 23.1482 24.375 24.491C24.1982 24.8797 23.9457 25.1952 23.6899 25.5332L22.04 27.8713C21.6725 28.372 21.3353 28.8542 20.7257 29.0783L20.4221 29.1611C20.0859 29.2356 19.614 29.192 19.2739 29.1347L12.7596 28.2727Z" fill="#4F378A"/>
<path d="M24.9011 4.91551C25.0305 4.89251 25.2139 4.89495 25.3417 4.92269L25.3783 4.9313C25.9695 5.06527 26.2706 5.51938 26.6726 5.91834L29.3395 8.58693C30.0356 9.26943 30.8456 9.96334 30.2984 11.0304C30.1367 11.3456 29.7984 11.6815 29.4544 11.7901L29.4207 11.8001C29.2802 11.8436 29.1366 11.844 28.9916 11.8604C27.818 11.992 28.1209 13.4915 28.1208 14.3097L28.1205 17.4125C28.1202 18.4396 28.2355 19.2672 27.486 20.0788C26.8649 20.7515 26.0934 20.8528 25.2241 20.8911C23.5296 20.9286 21.923 20.4688 21.9179 18.5047L21.9137 13.0881C21.9131 12.8497 21.9209 12.6105 21.883 12.3744C21.6056 12.0452 21.4351 11.9178 21.0155 11.894C19.7765 11.824 19.1732 10.4054 19.8992 9.44849C20.0963 9.18873 20.3445 8.96209 20.5743 8.73146L23.2345 6.0483C23.7402 5.54615 24.1542 5.0191 24.9011 4.91551Z" fill="#4F378A"/>
<path d="M24.375 24.4912L24.3831 24.5185C24.5217 25.0034 24.4895 25.5613 24.4892 26.0614L24.4876 38.5713C24.4881 38.9447 24.4476 39.3842 24.5189 39.7487C24.6288 40.3098 25.1075 40.5902 25.4938 40.1055C25.5741 39.789 25.5042 39.4351 25.5006 39.109L25.5005 30.511L25.5638 25.7368C25.568 25.4911 25.5651 25.2409 25.6253 25.0014L25.6913 24.6025L25.7049 24.6173C25.8449 24.7764 25.9426 24.9887 26.068 25.1629L27.8722 27.7425C29.1017 29.5594 29.7349 29.2592 31.6285 29.0075L36.7837 28.3177C36.9415 28.2941 37.1299 28.2825 37.2818 28.238L37.2935 36.1722C37.2929 37.2822 37.2543 38.0545 36.401 38.9111L36.1571 39.1361C35.3816 39.7596 34.3548 39.8375 33.4031 39.9318L28.4589 40.5587C27.1077 40.7537 25.7681 41.0614 24.3953 40.921L16.9067 39.9197C15.9231 39.8275 14.864 39.8007 14.0258 39.2129L13.9856 39.1851C12.6619 38.2571 12.751 36.9925 12.7499 35.5924L12.7546 28.2729L19.2739 29.135C19.6141 29.1922 20.086 29.2359 20.4221 29.1614L20.7257 29.0786C21.3354 28.8544 21.6725 28.3722 22.0401 27.8715L23.6899 25.5335C23.9458 25.1954 24.1982 24.88 24.375 24.4912Z" fill="#FFD6FA"/>
</svg>
