<svg width="37" height="34" viewBox="0 0 37 34" fill="none" xmlns="http://www.w3.org/2000/svg">
<path fill-rule="evenodd" clip-rule="evenodd" d="M36.8888 26.7854V26.5641C36.8888 26.2665 36.8174 26.0451 36.746 25.9401C36.4167 25.5324 34.0035 25.1638 31.9247 25.7898C31.3416 25.9782 30.8288 26.2356 30.3537 26.5682C29.9866 26.8256 30.0621 27.155 30.426 27.1211C30.6835 27.0696 30.9866 27.0372 31.3246 27.001C31.514 26.9807 31.7143 26.9593 31.9237 26.9327C33.2012 26.8215 34.7009 26.7854 35.0628 27.2642C35.5736 27.8912 34.4807 30.6279 34.0025 31.8068C33.8577 32.1785 34.187 32.3258 34.5153 32.0684C36.1588 30.665 36.8531 28.1146 36.8888 26.7854ZM31.9237 30.1502C32.4365 29.8506 32.9453 29.516 33.4204 29.1484C34.078 28.6717 33.4928 27.9273 32.8352 28.2269C32.6868 28.2812 32.5289 28.3472 32.3715 28.413C32.2185 28.4769 32.0659 28.5406 31.9227 28.5934C27.7213 30.2583 23.3078 31.0346 19.2165 31.0346C12.717 31.0346 6.4368 29.2225 1.36164 26.2305C0.886545 25.9731 0.557241 26.4518 0.96097 26.7854C5.67012 31.1067 11.8769 33.6931 18.8168 33.6931C23.1243 33.6931 28.0893 32.4781 31.9237 30.1502Z" fill="#FF00E5"/>
<path fill-rule="evenodd" clip-rule="evenodd" d="M22.1364 9.03285C21.2626 9.10286 20.2533 9.17288 19.244 9.30982C17.6984 9.51059 16.1528 9.78447 14.8764 10.394C12.3898 11.4174 10.7086 13.5909 10.7086 16.7869C10.7086 20.8003 13.2635 22.8358 16.4882 22.8358C17.5659 22.8358 18.4386 22.703 19.244 22.4981C20.5235 22.0904 21.5991 21.3419 22.8755 19.9848C23.6167 21.0041 23.8165 21.4809 25.095 22.5681C25.4304 22.7051 25.7658 22.7051 26.035 22.5002C26.8414 21.8217 28.2514 20.5975 28.9926 19.9179C29.327 19.643 29.2607 19.2384 29.0599 18.8965C28.3187 17.9452 27.5816 17.1277 27.5816 15.2949V9.17597C27.5816 6.58855 27.7804 4.21118 25.9025 2.44539C24.3548 1.0132 21.9355 0.472656 20.0555 0.472656H19.2481C15.8204 0.67549 12.192 2.16843 11.3835 6.45573C11.251 6.99628 11.6557 7.20323 11.9238 7.27221L15.6869 7.74995C16.0906 7.67788 16.2915 7.34017 16.3577 6.99834C16.6972 5.50643 17.9054 4.7579 19.2491 4.62096H19.5193C20.3247 4.62096 21.1974 4.96279 21.6694 5.63719C22.2026 6.45573 22.1394 7.54506 22.1394 8.49436L22.1364 9.03285ZM19.246 18.8924C20.1197 18.6875 20.9272 18.0759 21.3972 17.1235C22.1996 15.7655 22.1364 14.5433 22.1374 12.9783V12.1618C21.1291 12.1618 20.1197 12.2319 19.246 12.4347C17.6331 12.9093 16.3547 13.9328 16.3547 16.1053C16.3547 17.8062 17.2315 18.9624 18.7098 18.9624C18.9126 18.9624 19.1125 18.8924 19.246 18.8924Z" fill="#4F378A"/>
</svg>
