<svg width="34" height="29" viewBox="0 0 34 29" fill="none" xmlns="http://www.w3.org/2000/svg">
<path fill-rule="evenodd" clip-rule="evenodd" d="M12.8244 13.5724H7.95187V17.6776H12.8244V13.5724ZM12.8244 23.1382H7.95187V19.0329H12.8244V23.1382ZM12.8244 28.5855H7.95187V24.4803H12.8244V28.5855ZM19.1299 23.1382H14.2705H14.2574V19.0329H19.1299V23.1382ZM19.1299 28.5855H14.2705H14.2574V24.4803H19.1299V28.5855ZM20.5891 28.5855V24.4803H25.4615V28.5855H20.5891Z" fill="#FF99F5"/>
<path d="M33.2002 8.46711L16.6937 0.625L0.200195 8.49342L1.22941 10.6645L3.32692 9.65132V28.5987H5.69802V9.57237H27.7154V28.625H30.0865V9.67763L32.184 10.6645L33.2002 8.46711Z" fill="#4F378A"/>
</svg>
