<svg width="36" height="36" viewBox="0 0 36 36" fill="none" xmlns="http://www.w3.org/2000/svg">
<g clip-path="url(#clip0_123_4967)">
<path d="M8.73108 18.1899C8.73108 18.1899 14.9895 11.9603 14.9895 6.75953C14.9895 3.30195 12.1876 0.5 8.73108 0.5C5.27461 0.5 2.47266 3.30195 2.47266 6.75953C2.47266 12.2549 8.73108 18.1899 8.73108 18.1899ZM5.46952 6.75953C5.46952 4.95654 6.9303 3.49687 8.73108 3.49687C10.5319 3.49687 11.9926 4.95654 11.9926 6.75953C11.9926 8.56031 10.5319 10.02 8.73108 10.02C6.9303 10.02 5.46952 8.56031 5.46952 6.75953Z" fill="#FF00E5"/>
<path d="M31.8635 8.96452L31.3551 9.12621L28.6362 9.36875L27.8699 10.5936L27.315 10.4164L25.1521 8.46726L24.8364 7.4539L24.4189 6.37189L23.0578 5.15143L21.4564 4.83801L21.4187 5.57228L22.9892 7.10504L23.7578 8.00986L22.8917 8.46172L22.1873 8.25351L21.1341 7.81495L21.1707 6.96329L19.7863 6.39404L19.3267 8.39195L17.9335 8.70869L18.0719 9.82393L19.886 10.1739L20.2005 8.39195L21.6989 8.61455L22.3955 9.02211H23.5152L24.2794 10.5549L26.3094 12.6137L26.161 13.4144L24.5241 13.2051L21.6967 14.6327L19.6611 17.0747L19.3965 18.1556H18.6644L17.3033 17.5287L15.981 18.1556L16.3099 19.5521L16.8858 18.8854L17.8969 18.8555L17.826 20.1092L18.6644 20.3528L19.5017 21.2942L20.8683 20.9099L22.4299 21.1558L24.2417 21.6442L25.1488 21.7494L26.6815 23.4915L29.6441 25.2347L27.7292 28.896L25.7069 29.8363L24.9394 31.9283L22.0123 33.883L21.7 35.0116C29.1789 33.2097 34.7452 26.4917 34.7452 18.4546C34.7474 14.9394 33.6842 11.6745 31.8635 8.96452Z" fill="#FF99F5"/>
<path d="M19.6621 27.36L18.4218 25.0586L19.5603 22.6819L18.4218 22.3375L17.1415 21.0539L14.3063 20.4193L13.365 18.4491V19.6197H12.9496L11.15 17.1799C10.2717 18.2309 9.60503 18.9021 9.52197 18.984L8.75005 19.7526L7.96041 19.0028C7.75774 18.8079 4.13071 15.3315 2.33768 11.1064C1.26785 13.3314 0.654297 15.8155 0.654297 18.4491C0.654297 27.865 8.28601 35.5 17.7019 35.5C18.4262 35.5 19.1372 35.4369 19.8405 35.3505L19.6621 33.2861C19.6621 33.2861 20.4451 30.2184 20.4451 30.1154C20.4451 30.0102 19.6621 27.36 19.6621 27.36Z" fill="#9E77ED"/>
<path d="M16.3542 4.67301L17.6089 4.88011L20.6545 4.59437L21.4918 3.67073L22.6746 2.87998L24.3491 3.13249L24.9593 3.04057C22.7543 2.00285 20.3001 1.40259 17.702 1.40259C16.4882 1.40259 15.3098 1.54435 14.168 1.78467C15.0551 2.75373 15.693 3.95314 15.9643 5.28766L16.3542 4.67301ZM18.4218 3.09483L20.1639 2.13685L21.2814 2.78141L19.6622 4.01405L18.1184 4.1702L17.4218 3.71946L18.4218 3.09483Z" fill="#4F378A"/>
</g>
<defs>
<clipPath id="clip0_123_4967">
<rect width="35" height="35" fill="white" transform="translate(0.200195 0.5)"/>
</clipPath>
</defs>
</svg>
