<svg width="50" height="50" viewBox="0 0 50 50" fill="none" xmlns="http://www.w3.org/2000/svg">
<path d="M28.7605 17.6041C29.7136 17.5341 30.6937 17.5792 31.6496 17.5799L33.3263 17.5817C36.1741 17.5878 37.2699 18.5314 38.2671 21.1007L38.8486 22.6398C39.265 23.7755 39.4392 24.1657 40.464 24.8738L41.709 25.6982C43.8572 27.101 43.8749 28.0178 43.8724 30.5252L43.8703 31.5274C43.863 33.3215 42.4374 34.8255 40.6742 35.0846C40.6249 35.5028 40.5602 35.9292 40.4256 36.3296C39.0473 40.4296 32.7831 39.6093 32.6011 35.0501C32.3167 35.0106 32.0269 35.0205 31.7403 35.0199L26.4438 35.019C26.4803 34.8769 26.4878 34.721 26.5059 34.5799L28.3 20.4882L28.7605 17.6041ZM32.2533 20.7596C31.8478 20.9039 31.4346 21.2025 31.2429 21.5987L31.2122 21.6621C30.9838 22.1309 31.1056 23.2703 31.1053 23.8107L31.106 24.846C31.1096 26.6146 32.0959 26.4797 33.5823 26.4817L36.3053 26.4877C37.6307 26.2823 37.4553 25.331 37.1201 24.3627L36.7035 23.1636C36.51 22.5887 36.3752 21.9444 36.0951 21.4064C35.6337 20.5203 34.7025 20.7503 33.864 20.7498C33.3325 20.7495 32.7814 20.7174 32.2533 20.7596Z" fill="#4F378A"/>
<path d="M11.502 35.055L11.4636 35.0529C10.9302 35.0591 10.4222 35.0211 9.92517 34.8086L9.69306 34.7066C6.65423 33.2657 7.76253 29.8034 8.16955 27.2317L9.87361 15.2528C10.0853 14.0762 10.9678 13.0107 12.1095 12.6255L12.4312 12.525C12.6723 12.4599 12.9219 12.4334 13.1706 12.4229L23.2494 12.4281C24.1056 12.4286 24.9574 12.4075 25.8092 12.5057C27.8374 12.7395 29.0685 14.6515 28.776 16.6118C28.7284 16.9309 28.4558 17.5025 28.7604 17.6041L28.2999 20.4882L26.5058 34.5799C26.4877 34.721 26.4802 34.8769 26.4438 35.014L19.8643 35.0151L19.742 35.7948C19.0292 38.4394 16.1693 39.8589 13.7249 38.5475C13.6399 38.5018 13.5467 38.4583 13.4761 38.3916C13.3915 38.3772 13.2239 38.2326 13.1518 38.1768C12.1027 37.3639 11.6645 36.3364 11.502 35.055Z" fill="#FFD6FA"/>
<path d="M15.4179 25.104L20.8876 25.105C21.5475 25.1055 22.4863 25.0001 22.815 25.7442C22.89 25.9139 22.9096 26.1591 22.8449 26.3346L22.8205 26.398C22.5732 27.0254 22.061 27.1235 21.4757 27.1241L20.5261 27.1221L14.7005 27.123C14.0302 27.1236 13.136 27.1041 13.0969 26.1721C13.0587 25.26 13.9376 25.1109 14.6514 25.1069L15.4179 25.104Z" fill="#FEFEFE"/>
<path d="M23.2811 20.8541L24.2951 20.8452C24.478 20.8434 24.702 20.8216 24.8798 20.8673C25.4542 21.0151 25.827 21.6799 25.6484 22.2503L25.6352 22.2899C25.1897 23.6711 23.5975 22.9349 22.5451 22.9064L15.802 22.8996L14.5823 22.9002C14.3663 22.8999 14.1306 22.9193 13.9182 22.8788C13.0449 22.7119 12.7439 21.4793 13.5767 21.0217L13.6352 20.9904C14.0374 20.7497 14.6801 20.8549 15.1291 20.8549L23.2811 20.8541Z" fill="#FEFEFE"/>
<path d="M11.5024 35.0549V34.8734C11.504 32.5501 13.4345 30.5536 15.7802 30.5625C18.192 30.5717 19.8811 32.69 19.8662 35.0135L19.7425 35.7947C19.0296 38.4393 16.1698 39.8588 13.7254 38.5474C13.6404 38.5017 13.5471 38.4582 13.4766 38.3915C13.392 38.3771 13.2244 38.2325 13.1523 38.1767C12.1031 37.3638 11.665 36.3364 11.5024 35.0549Z" fill="url(#paint0_linear_125_5332)"/>
<defs>
<linearGradient id="paint0_linear_125_5332" x1="17.3722" y1="38.6443" x2="13.9866" y2="30.9632" gradientUnits="userSpaceOnUse">
<stop stop-color="#4F378A"/>
<stop offset="1" stop-color="#FF00E5"/>
</linearGradient>
</defs>
</svg>
