<svg width="247" height="487" viewBox="0 0 247 487" fill="none" xmlns="http://www.w3.org/2000/svg">
<path d="M729.672 222.431C726.501 221.764 723.251 222.749 721.782 224.729L631.157 204.845C631.188 204.68 631.219 204.527 631.219 204.363C631.219 204.352 631.219 204.352 631.219 204.33C631.219 204.133 631.219 203.914 631.188 203.695C631.188 203.619 631.157 203.553 631.126 203.498C631.126 203.455 631.126 203.444 631.094 203.4C631.047 203.126 630.938 202.864 630.797 202.634C630.766 202.59 630.766 202.568 630.735 202.535C630.594 202.273 630.422 202.032 630.204 201.802C630.172 201.78 630.172 201.758 630.172 201.737C630.141 201.726 630.141 201.726 630.11 201.704C629.922 201.507 629.719 201.31 629.485 201.124C629.438 201.091 629.407 201.047 629.344 201.025C629.126 200.872 628.876 200.719 628.61 200.577C628.563 200.555 628.501 200.522 628.438 200.5C628.157 200.358 627.876 200.237 627.594 200.117C627.563 200.117 627.547 200.106 627.547 200.106C627.235 199.986 626.891 199.887 626.547 199.821C626.219 199.745 625.844 199.712 625.485 199.668C625.454 199.668 625.422 199.668 625.422 199.668C625.079 199.624 624.719 199.624 624.344 199.624C624.313 199.624 624.297 199.624 624.266 199.624C624.126 199.624 624.016 199.624 623.86 199.646C623.719 199.668 623.61 199.69 623.501 199.712C623.329 199.723 623.126 199.745 622.969 199.789C622.766 199.821 622.532 199.865 622.344 199.92C622.251 199.942 622.141 199.964 622.063 199.986L492.86 57.8375C494.141 57.0276 494.954 55.8895 495.032 54.5872C495.032 54.5215 495.016 54.4668 495.016 54.4011L570.735 45.1865C571.813 47.2549 574.891 48.5791 578.11 48.1851C581.704 47.7473 584.141 45.3397 583.516 42.8336C582.891 40.3275 579.438 38.6312 575.86 39.058C572.641 39.452 570.376 41.4109 570.376 43.6215L494.641 52.8471C493.938 51.4791 492.36 50.4176 490.344 50.0017L497.61 9.7726C500.782 9.6741 503.454 7.99971 503.876 5.72342C504.329 3.19542 501.766 0.864401 498.141 0.55798C494.532 0.24061 491.219 2.03538 490.735 4.56338C490.313 6.82873 492.36 8.92993 495.376 9.55372L488.11 49.7829C485.063 49.8814 482.548 51.3806 481.923 53.4381L213.891 46.6858C213.891 46.6201 213.86 46.5873 213.844 46.5216C213.813 46.3684 213.751 46.2262 213.704 46.0948C213.672 46.0292 213.672 45.9963 213.641 45.9307V45.9088C213.579 45.7775 213.469 45.6352 213.391 45.5039C213.329 45.4054 213.266 45.285 213.188 45.1865C213.188 45.1646 213.157 45.1646 213.157 45.1427C213.157 45.1208 213.126 45.1208 213.126 45.099C213.047 45.0005 212.969 44.902 212.844 44.8035C212.766 44.705 212.672 44.6065 212.563 44.508C212.532 44.497 212.516 44.4752 212.485 44.4314C212.391 44.3767 212.313 44.311 212.235 44.2563L212.204 44.2344C212.063 44.1359 211.938 44.0155 211.782 43.917C211.719 43.8951 211.688 43.8842 211.641 43.8404C211.516 43.7638 211.376 43.6982 211.266 43.6434C211.063 43.5449 210.876 43.4464 210.641 43.348C210.501 43.2823 210.329 43.2276 210.188 43.1729C210.172 43.151 210.141 43.151 210.079 43.1291L215.563 28.9898C218.704 29.1868 221.719 27.8079 222.563 25.5972C223.532 23.1458 221.438 20.5741 217.907 19.9284C214.376 19.2499 210.735 20.7163 209.797 23.1896C208.954 25.3784 210.532 27.6656 213.391 28.5958L207.907 42.7351C207.844 42.7351 207.813 42.7351 207.766 42.7351C207.672 42.7351 207.626 42.7132 207.532 42.7132C207.485 42.7132 207.422 42.7132 207.36 42.7132C207.204 42.7132 207.063 42.7132 206.891 42.7351C206.719 42.7351 206.579 42.757 206.407 42.7789C206.297 42.7898 206.188 42.7898 206.063 42.8117C205.891 42.8336 205.751 42.8774 205.61 42.8883C205.469 42.9102 205.297 42.954 205.157 42.9868C205.047 43.0087 204.938 43.0306 204.829 43.0744C204.688 43.1072 204.563 43.151 204.422 43.2057C204.282 43.2495 204.141 43.3042 204.001 43.3698C203.891 43.4027 203.813 43.4464 203.688 43.4793C203.579 43.5449 203.469 43.5997 203.36 43.6653C203.219 43.7419 203.079 43.7966 202.954 43.8842C202.876 43.9389 202.797 43.9827 202.704 44.0374C202.626 44.0921 202.532 44.1797 202.454 44.2344C202.344 44.3329 202.204 44.4095 202.079 44.508C202.001 44.5737 201.938 44.6284 201.891 44.705C201.797 44.7925 201.751 44.8691 201.688 44.9457C201.626 45.0223 201.547 45.088 201.485 45.1646L103.938 22.1171C104.422 19.9284 102.61 17.7506 99.5318 17.0283C96.0787 16.2185 92.2975 17.5208 91.1412 19.9284C89.985 22.336 91.8443 24.9844 95.2975 25.7942C98.3756 26.5165 101.735 25.5535 103.235 23.6164L200.782 46.6858C200.782 46.7077 200.782 46.7186 200.782 46.7186C200.751 46.7843 200.719 46.839 200.719 46.9156C200.719 46.9813 200.719 47.0141 200.719 47.0798C200.719 47.1235 200.704 47.1783 200.704 47.222C200.704 47.2549 200.704 47.2986 200.704 47.3315C200.704 47.419 200.704 47.4956 200.704 47.5722C200.704 47.7145 200.719 47.8239 200.751 47.9662C200.782 48.0647 200.782 48.1413 200.813 48.2398C200.844 48.3055 200.844 48.3821 200.876 48.4368C200.922 48.5791 200.985 48.6994 201.032 48.8198C201.094 48.9183 201.126 49.0168 201.172 49.1153C201.204 49.1481 201.235 49.2138 201.266 49.2466C201.344 49.367 201.438 49.4874 201.516 49.5859C201.61 49.6844 201.657 49.8048 201.766 49.9032C201.797 49.947 201.829 49.958 201.86 50.0017C201.969 50.1002 202.079 50.1987 202.204 50.2972L65.9068 158.87C65.8756 158.87 65.8756 158.848 65.8443 158.848C65.8287 158.848 65.8287 158.826 65.7975 158.826C65.735 158.815 65.6725 158.793 65.6256 158.771C65.5631 158.75 65.5162 158.706 65.4537 158.695C65.3912 158.673 65.3443 158.651 65.2506 158.629C65.1725 158.596 65.0631 158.574 64.9693 158.531C64.8912 158.509 64.7818 158.476 64.6881 158.454C64.5787 158.432 64.5006 158.41 64.3756 158.399C64.2975 158.377 64.1881 158.356 64.0943 158.334C64.0475 158.312 63.9537 158.312 63.9068 158.301C63.7662 158.279 63.6412 158.257 63.5006 158.257C63.3912 158.235 63.2506 158.235 63.1412 158.213C63.0162 158.213 62.9381 158.202 62.8287 158.202C62.7975 158.202 62.7975 158.202 62.7662 158.202C62.6256 158.202 62.4537 158.202 62.3131 158.202C62.1725 158.202 62.0631 158.202 61.9225 158.202C61.86 158.202 61.7818 158.202 61.7193 158.202C61.6725 158.202 61.61 158.213 61.5787 158.213C61.4381 158.235 61.2662 158.257 61.1256 158.279C60.985 158.301 60.8756 158.312 60.735 158.334C60.6725 158.356 60.5943 158.356 60.5318 158.377C60.5162 158.377 60.4537 158.399 60.4225 158.399C60.2818 158.432 60.11 158.498 59.9693 158.531C59.8287 158.574 59.7193 158.596 59.5787 158.629C59.5475 158.629 59.5162 158.651 59.5162 158.651C59.485 158.651 59.4693 158.673 59.4381 158.695C59.3756 158.706 59.3443 158.706 59.2975 158.728C59.2037 158.771 59.1256 158.815 59.0162 158.848C58.9537 158.87 58.8756 158.914 58.8131 158.925C58.7037 158.99 58.5631 159.023 58.4381 159.111C58.4225 159.122 58.3912 159.122 58.36 159.144L21.9068 136.238C23.61 134.367 23.1724 131.872 20.7506 130.329C18.0006 128.632 13.8756 128.775 11.3912 130.69C8.96932 132.605 9.15682 135.483 11.9068 137.223C14.36 138.744 17.9224 138.788 20.4381 137.42L56.9225 160.347C56.8912 160.391 56.8287 160.424 56.8131 160.468C56.8131 160.49 56.8131 160.49 56.7818 160.512C56.7818 160.533 56.7506 160.533 56.7506 160.544C56.7193 160.566 56.7193 160.61 56.6881 160.632C56.6725 160.665 56.6412 160.687 56.61 160.73C56.5318 160.862 56.4693 160.982 56.3756 161.124C56.3287 161.201 56.2662 161.278 56.235 161.354C56.2193 161.398 56.2193 161.42 56.2193 161.453C56.1256 161.639 56.0787 161.836 56.0475 162.011C56.0162 162.087 55.985 162.164 55.9537 162.241C55.9537 162.263 55.9537 162.263 55.9537 162.284C55.8443 162.853 55.9068 163.433 56.0943 163.959C56.0943 163.981 56.0943 164.003 56.0943 164.003C56.1256 164.079 56.1881 164.145 56.2193 164.221C56.2662 164.342 56.2975 164.44 56.36 164.539L12.6099 183.395C10.5162 181.731 6.9537 181.326 4.15682 182.53C1.04745 183.887 0.0943214 186.689 2.0162 188.889C3.93807 191.055 8.00057 191.734 11.1099 190.388C13.9068 189.162 14.9537 186.787 13.7662 184.719L57.5475 165.863C57.6568 165.94 57.7662 166.038 57.8756 166.115C57.9381 166.158 58.0006 166.213 58.0475 166.257C58.0787 166.279 58.0787 166.279 58.11 166.29C58.11 166.29 58.1412 166.29 58.1412 166.312C58.2193 166.355 58.2975 166.388 58.36 166.432C58.4225 166.454 58.4381 166.487 58.5006 166.531L9.56307 233.67C6.50057 233.025 3.23495 233.944 1.7037 235.979C0.0630733 238.289 1.3287 241.014 4.5787 242.206C7.8912 243.345 11.7974 242.458 13.4849 240.193C14.9537 238.113 14.0787 235.728 11.5318 234.382L60.485 167.242C60.6256 167.286 60.7662 167.286 60.9381 167.297C61.0943 167.34 61.2975 167.362 61.4693 167.384C61.5318 167.384 61.5475 167.395 61.61 167.395C61.61 167.395 61.61 167.395 61.6412 167.395C61.8131 167.417 61.9537 167.395 62.0943 167.417C62.2662 167.417 62.4225 167.439 62.6256 167.439C62.7193 167.439 62.7662 167.439 62.86 167.439C62.9381 167.439 63.0475 167.417 63.1412 167.417C63.1725 167.417 63.2193 167.417 63.2506 167.395C63.3287 167.395 63.4225 167.395 63.5006 167.384L175.235 397.575C175.188 397.596 175.126 397.618 175.063 397.64C175.016 397.651 174.954 397.673 174.891 397.717C174.751 397.772 174.61 397.848 174.469 397.914C174.422 397.936 174.391 397.969 174.329 397.99C174.251 398.034 174.157 398.089 174.079 398.133C174.079 398.133 174.047 398.133 174.047 398.155C174.016 398.166 174.016 398.166 174.001 398.187C173.86 398.286 173.719 398.363 173.563 398.461C173.563 398.483 173.547 398.483 173.547 398.505C173.407 398.603 173.282 398.702 173.172 398.822C173.141 398.844 173.126 398.877 173.094 398.899C173.032 398.953 172.985 399.019 172.922 399.074C172.891 399.096 172.891 399.118 172.86 399.14C172.719 399.293 172.61 399.435 172.501 399.588C172.469 399.632 172.469 399.654 172.438 399.687C172.407 399.709 172.407 399.73 172.391 399.763C172.36 399.807 172.329 399.851 172.297 399.884C172.188 400.07 172.094 400.267 172.016 400.464C172.016 400.475 171.985 400.497 171.985 400.518V400.54C171.954 400.573 171.954 400.639 171.938 400.672C171.876 400.891 171.813 401.109 171.797 401.328C171.797 401.35 171.797 401.372 171.797 401.372C171.797 401.383 171.797 401.405 171.797 401.427C171.797 401.503 171.797 401.569 171.797 401.646C171.797 401.689 171.797 401.722 171.797 401.766C171.797 401.886 171.813 402.018 171.813 402.138C171.813 402.16 171.813 402.182 171.813 402.193C171.813 402.193 171.813 402.193 171.813 402.215V402.237C171.844 402.357 171.876 402.477 171.907 402.598C171.907 402.609 171.907 402.609 171.907 402.631V402.652C171.954 402.795 171.985 402.926 172.047 403.046C172.047 403.068 172.079 403.09 172.079 403.101C172.126 403.243 172.219 403.364 172.297 403.506C172.297 403.517 172.329 403.517 172.329 403.539C172.407 403.659 172.469 403.758 172.547 403.878C172.579 403.911 172.61 403.933 172.61 403.977C172.688 404.075 172.782 404.152 172.86 404.25C172.891 404.294 172.954 404.327 172.985 404.371C173.001 404.393 173.032 404.425 173.063 404.447L73.5631 478.142C70.9381 476.917 67.3131 477.157 65.0943 478.821C62.5943 480.67 62.6881 483.614 65.3756 485.354C68.0318 487.094 72.235 487.029 74.7193 485.157C76.9537 483.494 77.0943 480.966 75.2037 479.193L174.704 405.498C174.751 405.52 174.813 405.531 174.844 405.553C174.922 405.596 175.016 405.629 175.126 405.673C175.204 405.717 175.297 405.728 175.376 405.771C175.407 405.793 175.469 405.793 175.485 405.815C175.579 405.826 175.641 405.848 175.719 405.87C175.797 405.892 175.891 405.925 175.969 405.947C176.079 405.99 176.204 406.012 176.313 406.023C176.391 406.045 176.485 406.067 176.563 406.089H176.594H176.626C176.735 406.111 176.813 406.133 176.938 406.133C177.016 406.144 177.11 406.144 177.188 406.165C177.329 406.187 177.469 406.187 177.61 406.209C177.704 406.209 177.751 406.231 177.844 406.231C177.891 406.231 177.954 406.242 178.001 406.242C178.126 406.242 178.204 406.242 178.297 406.242C178.344 406.242 178.407 406.242 178.454 406.242C178.626 406.242 178.829 406.231 179.001 406.231C179.032 406.231 179.047 406.231 179.11 406.231C179.172 406.231 179.251 406.231 179.313 406.209L213.11 477.869C210.313 478.919 208.891 481.228 209.907 483.395C211.063 485.825 214.797 487.149 218.282 486.339C221.751 485.529 223.641 482.925 222.485 480.495C221.469 478.328 218.36 477.037 215.219 477.376L181.422 405.695C181.454 405.673 181.485 405.673 181.516 405.651C181.532 405.629 181.594 405.629 181.626 405.618C181.704 405.574 181.797 405.531 181.876 405.498C181.907 405.476 181.938 405.476 181.969 405.454C182.188 405.356 182.391 405.235 182.579 405.137C182.61 405.115 182.641 405.115 182.672 405.104C182.704 405.082 182.704 405.082 182.719 405.06C182.751 405.038 182.782 405.016 182.813 405.005C182.844 404.983 182.86 404.962 182.86 404.962C183.063 404.841 183.235 404.71 183.407 404.568C183.454 404.524 183.485 404.491 183.547 404.447C183.579 404.425 183.579 404.425 183.61 404.414C183.766 404.25 183.938 404.075 184.079 403.878C184.11 403.834 184.141 403.802 184.172 403.78C184.188 403.758 184.188 403.736 184.219 403.714C184.36 403.517 184.485 403.32 184.594 403.123C184.594 403.101 184.626 403.09 184.626 403.068C184.626 403.046 184.641 403.003 184.641 402.992C184.766 402.751 184.813 402.51 184.876 402.28C184.876 402.258 184.876 402.237 184.876 402.237C184.907 402.116 184.938 401.996 184.938 401.886C184.938 401.821 184.938 401.766 184.938 401.689C184.938 401.624 184.938 401.569 184.938 401.481C184.938 401.471 184.938 401.449 184.938 401.427L472.094 357.805C472.094 357.827 472.126 357.849 472.126 357.849C472.266 358.079 472.438 358.319 472.657 358.56C472.688 358.571 472.719 358.615 472.719 358.637C472.938 358.867 473.173 359.075 473.454 359.272C473.469 359.282 473.501 359.304 473.532 359.326C473.626 359.381 473.704 359.447 473.782 359.479L431.704 405.793C428.798 404.94 425.329 405.651 423.579 407.588C421.626 409.744 422.532 412.622 425.61 413.968C428.688 415.325 432.782 414.702 434.735 412.546C436.485 410.63 435.923 408.124 433.579 406.636L475.657 360.333H475.688H475.704C476.11 360.453 476.501 360.53 476.923 360.585H476.954C477.344 360.65 477.751 360.672 478.141 360.672C478.173 360.672 478.219 360.672 478.251 360.672C478.501 360.672 478.782 360.65 479.048 360.629C479.157 360.607 479.235 360.607 479.36 360.585C479.407 360.585 479.469 360.574 479.532 360.574C479.891 360.508 480.235 360.453 480.563 360.355C480.626 360.333 480.688 360.311 480.735 360.289C480.876 360.256 481.016 360.213 481.141 360.158L564.86 439.248C562.688 440.846 562.376 443.352 564.329 445.191C566.501 447.237 570.657 447.675 573.594 446.154C576.532 444.633 577.157 441.733 574.985 439.675C573.032 437.837 569.501 437.311 566.672 438.296L482.938 359.206C483.173 359.031 483.391 358.856 483.594 358.659C483.626 358.637 483.657 358.615 483.657 358.593C483.673 358.571 483.673 358.56 483.673 358.538C483.798 358.44 483.876 358.319 483.954 358.199L589.172 382.987C588.688 385.175 590.501 387.342 593.61 388.075C597.079 388.885 600.813 387.583 602.001 385.175C603.157 382.746 601.282 380.141 597.844 379.309C594.735 378.576 591.391 379.55 589.907 381.498L484.688 356.722C484.719 356.579 484.751 356.448 484.751 356.306C484.751 356.262 484.751 356.24 484.751 356.207C484.782 355.988 484.751 355.748 484.719 355.54C484.719 355.518 484.719 355.474 484.719 355.452C484.719 355.43 484.719 355.419 484.719 355.397C484.688 355.299 484.673 355.2 484.641 355.102C484.579 354.938 484.548 354.785 484.501 354.631C484.438 354.511 484.36 354.391 484.298 354.27C484.219 354.128 484.157 354.019 484.079 353.876C483.985 353.734 483.844 353.614 483.735 353.504C483.657 353.406 483.563 353.307 483.454 353.209C483.313 353.066 483.141 352.946 482.969 352.826C482.891 352.771 482.829 352.694 482.719 352.629L621.751 208.314C621.782 208.314 621.797 208.336 621.829 208.336C622.11 208.412 622.391 208.5 622.688 208.554C622.797 208.576 622.907 208.598 623.047 208.609C623.297 208.653 623.532 208.675 623.782 208.697C623.876 208.697 623.985 208.708 624.063 208.708C624.407 208.73 624.719 208.708 625.047 208.697C625.11 208.697 625.141 208.697 625.204 208.697C625.344 208.675 625.454 208.675 625.594 208.653C625.641 208.653 625.672 208.631 625.735 208.631C626.266 208.554 626.751 208.456 627.235 208.303C627.282 208.281 627.313 208.259 627.344 208.259C627.547 208.193 627.704 208.117 627.876 208.04C627.907 208.018 627.969 208.018 628.001 207.996C628.016 207.996 628.016 207.985 628.047 207.964C628.36 207.821 628.672 207.646 628.954 207.471C629.016 207.427 629.063 207.394 629.126 207.373C629.376 207.187 629.61 206.99 629.829 206.793C629.86 206.76 629.922 206.716 629.938 206.683C630.079 206.519 630.219 206.366 630.344 206.202L720.969 226.086C720.547 228.297 722.376 230.409 725.547 231.12C729.047 231.876 732.719 230.551 733.844 228.1C735.063 225.769 733.172 223.208 729.672 222.431ZM617.985 203.947L458.751 216.456C457.876 214.322 454.907 212.899 451.657 213.14C450.079 213.249 448.688 213.764 447.673 214.497L294.626 140.43L618.047 203.739C618.047 203.75 618.047 203.794 618.047 203.816C618.016 203.849 617.985 203.914 617.985 203.947ZM475.969 351.764C475.938 351.786 475.876 351.786 475.844 351.797L292.829 141.907C292.876 141.863 292.938 141.831 292.985 141.787L293.016 141.765C293.016 141.765 293.016 141.765 293.047 141.743C293.11 141.71 293.157 141.688 293.219 141.645L446.407 215.777C445.891 216.532 445.673 217.364 445.813 218.251C446.173 220.538 448.923 222.256 452.11 222.355L476.298 351.688C476.188 351.698 476.11 351.742 475.969 351.764ZM318.251 320.246C317.969 317.97 315.344 316.219 312.204 316.044L290.188 142.87H290.219C290.251 142.87 290.282 142.859 290.329 142.859C290.391 142.837 290.454 142.837 290.532 142.816C290.532 142.816 290.532 142.816 290.563 142.816C290.594 142.816 290.61 142.794 290.641 142.794C290.704 142.772 290.751 142.772 290.813 142.75C290.813 142.75 290.813 142.75 290.844 142.75C290.907 142.739 290.922 142.739 290.985 142.717L474.016 352.629C473.985 352.651 473.954 352.651 473.954 352.672C473.844 352.749 473.704 352.826 473.594 352.902C473.423 353.023 473.313 353.143 473.173 353.285C473.079 353.362 472.969 353.439 472.876 353.515C472.876 353.537 472.86 353.537 472.86 353.559C472.719 353.712 472.594 353.876 472.485 354.029L318.344 321.253C318.313 320.892 318.313 320.585 318.251 320.246ZM306.016 323.048L182.579 398.067C182.563 398.045 182.532 398.045 182.501 398.034C182.422 397.99 182.36 397.947 182.282 397.936C182.251 397.914 182.219 397.914 182.219 397.892C182.11 397.837 181.985 397.772 181.844 397.717C181.735 397.673 181.657 397.618 181.532 397.575C181.454 397.553 181.376 397.542 181.313 397.498L287.766 142.991C287.844 142.991 287.907 143.012 287.985 143.012L310.001 316.175C306.954 316.755 304.797 318.78 305.11 321.056C305.172 321.789 305.516 322.457 306.016 323.048ZM68.7662 164.101C68.7818 164.024 68.8443 163.926 68.8756 163.849C68.9068 163.784 68.9068 163.729 68.9225 163.663C68.9225 163.63 68.9537 163.587 68.985 163.554C69.0162 163.455 69.0162 163.357 69.0475 163.258C69.0787 163.171 69.0943 163.072 69.0943 162.996C69.0943 162.952 69.0943 162.919 69.0943 162.875C69.0943 162.853 69.0943 162.821 69.0943 162.799L282.219 139.894C282.219 139.894 282.219 139.915 282.251 139.915V139.926C282.251 139.948 282.282 139.97 282.282 139.992C282.282 140.014 282.313 140.014 282.313 140.025C282.313 140.047 282.344 140.069 282.344 140.091C282.344 140.112 282.36 140.123 282.36 140.145C282.454 140.309 282.563 140.463 282.672 140.627C282.704 140.638 282.704 140.66 282.704 140.681C282.735 140.736 282.782 140.78 282.844 140.835C282.844 140.857 282.876 140.857 282.876 140.878L282.907 140.9C282.907 140.922 282.938 140.922 282.954 140.933C282.985 140.977 283.016 140.999 283.047 141.043C283.094 141.119 283.188 141.174 283.266 141.24C283.297 141.251 283.297 141.272 283.329 141.272C283.36 141.294 283.36 141.294 283.36 141.316L195.079 211.75C195.047 211.728 195.016 211.717 194.985 211.717C192.141 210.568 188.626 211.017 186.563 212.724L68.6725 164.342C68.7037 164.265 68.735 164.178 68.7662 164.101ZM212.094 50.4942C212.11 50.4723 212.141 50.4504 212.172 50.4504C212.204 50.4395 212.235 50.4176 212.251 50.3957C212.344 50.341 212.391 50.2534 212.485 50.1987C212.594 50.1002 212.704 49.9799 212.829 49.8814C212.876 49.8485 212.938 49.8048 212.969 49.75L315.547 79.0464C315.344 79.6811 315.313 80.3706 315.547 81.0491C315.938 82.3076 317.063 83.3582 318.532 83.982L289.876 133.907H289.86C289.797 133.907 289.766 133.907 289.719 133.885C289.626 133.864 289.547 133.864 289.454 133.853C289.422 133.853 289.407 133.853 289.376 133.831C289.282 133.831 289.235 133.831 289.141 133.809C289.032 133.809 288.922 133.787 288.813 133.787C288.751 133.787 288.688 133.787 288.641 133.787C288.579 133.787 288.547 133.787 288.501 133.787C288.438 133.787 288.36 133.787 288.297 133.787C288.251 133.787 288.219 133.787 288.157 133.787C288.079 133.787 287.954 133.787 287.876 133.809C287.813 133.809 287.735 133.809 287.672 133.809C287.657 133.809 287.594 133.831 287.563 133.831C287.532 133.831 287.532 133.831 287.501 133.831C287.454 133.831 287.391 133.853 287.344 133.853C287.313 133.853 287.313 133.853 287.282 133.853C287.251 133.853 287.219 133.853 287.204 133.864C287.079 133.885 286.938 133.907 286.829 133.929C286.797 133.929 286.766 133.951 286.751 133.951C286.547 133.984 286.376 134.028 286.172 134.071C286.157 134.071 286.126 134.082 286.094 134.082C286.063 134.082 286.032 134.104 286.016 134.104C286.016 134.104 286.016 134.104 285.985 134.104H285.954L211.688 50.7131C211.86 50.6584 211.969 50.5708 212.094 50.4942ZM293.501 135.385C293.469 135.374 293.438 135.33 293.407 135.308C293.391 135.286 293.36 135.275 293.329 135.253C293.297 135.232 293.266 135.21 293.251 135.188C293.219 135.177 293.157 135.133 293.126 135.111C293.11 135.089 293.079 135.078 293.047 135.056C293.016 135.035 292.969 135.013 292.938 134.98C292.907 134.958 292.907 134.958 292.876 134.936C292.876 134.936 292.876 134.936 292.844 134.914C292.829 134.892 292.829 134.892 292.797 134.892C292.704 134.859 292.657 134.816 292.563 134.761C292.532 134.739 292.516 134.717 292.485 134.717C292.422 134.673 292.376 134.662 292.282 134.619C292.251 134.597 292.251 134.597 292.235 134.575C292.204 134.564 292.172 134.564 292.172 134.564C292.141 134.542 292.11 134.542 292.079 134.52C292.063 134.498 292.001 134.476 291.969 134.465C291.938 134.465 291.938 134.444 291.938 134.444L320.594 84.5183C321.501 84.6605 322.469 84.6605 323.422 84.5183C326.626 84.0258 328.766 81.9903 328.626 79.7796L481.954 56.1412L293.501 135.385ZM192.422 220.286C194.391 220.122 196.235 219.356 197.329 218.054C198.782 216.314 198.438 214.256 196.735 212.823L285.016 142.356C285.016 142.356 285.016 142.356 285.047 142.356C285.047 142.356 285.079 142.356 285.079 142.378C285.141 142.4 285.157 142.422 285.219 142.443C285.329 142.476 285.469 142.542 285.594 142.575L179.985 395.068L192.422 220.286ZM328.141 78.2803C326.954 76.2229 323.766 75.0191 320.594 75.5116C318.797 75.7961 317.329 76.5622 316.422 77.5909L213.844 48.2836C213.844 48.2617 213.844 48.2617 213.844 48.2398V48.2289L479.579 54.9155L328.141 78.2803ZM207.813 51.895C207.907 51.895 207.954 51.8731 208.047 51.8731C208.266 51.8622 208.501 51.8403 208.688 51.7965C208.86 51.7746 209.001 51.7637 209.172 51.7199C209.266 51.698 209.376 51.698 209.454 51.6761C209.579 51.6652 209.688 51.5995 209.829 51.5776C209.86 51.5776 209.86 51.5776 209.876 51.5667L284.141 134.958C284.141 134.958 284.141 134.958 284.11 134.98C284.094 134.991 284.063 135.013 284.032 135.035C283.969 135.078 283.954 135.089 283.891 135.133C283.829 135.177 283.751 135.21 283.688 135.275C283.672 135.308 283.61 135.33 283.579 135.374L283.547 135.385C283.532 135.407 283.532 135.428 283.501 135.428C283.469 135.472 283.407 135.483 283.376 135.527C283.297 135.604 283.219 135.669 283.157 135.746C283.126 135.768 283.094 135.79 283.079 135.801C283.047 135.822 283.047 135.844 283.016 135.866C282.985 135.888 282.954 135.899 282.954 135.921C282.938 135.965 282.876 135.998 282.844 136.063C282.844 136.085 282.813 136.096 282.813 136.096C282.782 136.118 282.782 136.14 282.766 136.162L203.969 116.31C204.547 114.143 202.797 111.932 199.704 111.155C199.563 111.122 199.391 111.101 199.235 111.057L207.813 51.895ZM195.157 119.834C198.235 120.6 201.61 119.691 203.157 117.754L281.938 137.606C281.938 137.639 281.938 137.683 281.907 137.705C281.907 137.716 281.907 137.738 281.907 137.738C281.891 137.935 281.86 138.11 281.86 138.307L69.36 161.157L192.079 118.214C192.844 118.925 193.891 119.494 195.157 119.834ZM65.8756 166.673C65.985 166.629 66.11 166.574 66.2193 166.509C66.36 166.454 66.4693 166.388 66.5787 166.312C66.6725 166.279 66.7193 166.235 66.8131 166.18C66.8912 166.115 66.985 166.06 67.0943 165.994C67.2037 165.918 67.3131 165.863 67.4068 165.775C67.4381 165.764 67.4381 165.764 67.4537 165.743C67.485 165.721 67.485 165.699 67.5162 165.699L67.5475 165.677L185.438 214.059C184.313 216.138 185.438 218.502 188.266 219.695C188.891 219.947 189.516 220.089 190.188 220.188L177.579 397.038C177.501 397.038 177.438 397.06 177.36 397.082L65.6256 166.771C65.7037 166.728 65.7975 166.684 65.8756 166.673ZM203.922 51.2274C203.954 51.2493 203.969 51.2493 204.001 51.2493C204.172 51.3259 204.376 51.4025 204.563 51.4573C204.626 51.4791 204.688 51.4791 204.704 51.501C204.766 51.5229 204.829 51.5448 204.876 51.5667C205.001 51.5995 205.141 51.6214 205.251 51.6433C205.36 51.6652 205.469 51.7199 205.61 51.7418L197.001 110.86C194.454 110.98 192.141 112.129 191.235 113.902C190.719 114.876 190.719 115.894 191.141 116.802L67.86 159.953C67.8287 159.921 67.7662 159.899 67.7506 159.877C67.7193 159.855 67.6881 159.822 67.6568 159.8L203.922 51.2274ZM184.501 399.906C184.485 399.851 184.422 399.807 184.391 399.752C184.313 399.61 184.219 399.49 184.11 399.369C184.079 399.337 184.047 399.293 184.032 399.238L307.454 324.219C308.766 324.941 310.422 325.357 312.235 325.237C314.61 325.105 316.563 324.098 317.579 322.709L471.719 355.496C471.704 355.649 471.673 355.791 471.673 355.945C471.673 356.043 471.673 356.164 471.673 356.262L184.501 399.906ZM481.001 351.863C480.969 351.863 480.938 351.841 480.907 351.841C480.688 351.764 480.423 351.72 480.173 351.666C480.063 351.644 479.923 351.6 479.813 351.589C479.61 351.545 479.376 351.523 479.157 351.501C478.985 351.491 478.813 351.469 478.641 351.469C478.626 351.469 478.594 351.469 478.532 351.469L454.344 222.158C456.969 221.588 458.844 219.925 459.001 218.01L618.251 205.512C618.266 205.589 618.329 205.654 618.36 205.731C618.407 205.873 618.501 206.005 618.579 206.147C618.672 206.267 618.751 206.366 618.844 206.475C618.891 206.563 618.954 206.639 619.001 206.716C619.063 206.782 619.126 206.836 619.172 206.891C619.235 206.957 619.297 206.99 619.313 207.033C619.516 207.23 619.735 207.405 620.001 207.57L481.001 351.863Z" fill="#DCD7E8"/>
</svg>
