<svg width="220" height="56" viewBox="0 0 220 56" fill="none" xmlns="http://www.w3.org/2000/svg">
<path d="M26.0134 49.4846C26.5334 49.4846 26.9363 49.6325 27.2221 49.9282C27.5079 50.2206 27.6508 50.6385 27.6508 51.1819C27.6508 51.7322 27.5079 52.1553 27.2221 52.4511C26.9363 52.7434 26.5334 52.8896 26.0134 52.8896H24.8203V49.4846H26.0134ZM26.0031 52.4253C26.3371 52.4253 26.5971 52.3221 26.783 52.1157C26.9724 51.9059 27.0671 51.5946 27.0671 51.1819C27.0671 50.9068 27.0241 50.678 26.938 50.4957C26.8553 50.3135 26.7331 50.1776 26.5713 50.0882C26.4129 49.9953 26.2235 49.9489 26.0031 49.9489H25.3781V52.4253H26.0031Z" fill="#1A1A1A"/>
<path d="M28.4469 52.8896V49.4846H30.8435V49.954H29.0048V50.9394H30.451V51.3986H29.0048V52.4201H30.9158V52.8896H28.4469Z" fill="#1A1A1A"/>
<path d="M32.1825 52.4201H33.9799V52.8896H31.6247V49.4846H32.1825V52.4201Z" fill="#1A1A1A"/>
<path d="M35.1736 49.4846V52.8896H34.6157V49.4846H35.1736Z" fill="#1A1A1A"/>
<path d="M38.8658 49.4846L37.6417 52.8896H36.9909L35.7616 49.4846H36.3556L37.1252 51.7804L37.3215 52.4253L37.5126 51.7804L38.2822 49.4846H38.8658Z" fill="#1A1A1A"/>
<path d="M39.4529 52.8896V49.4846H41.8495V49.954H40.0108V50.9394H41.457V51.3986H40.0108V52.4201H41.9218V52.8896H39.4529Z" fill="#1A1A1A"/>
<path d="M43.9994 49.4846C44.3575 49.4846 44.6398 49.5757 44.8464 49.758C45.0565 49.9368 45.1615 50.181 45.1615 50.4906C45.1615 50.7038 45.1133 50.8827 45.0169 51.0271C44.9239 51.1716 44.7896 51.2834 44.614 51.3625C44.4384 51.4416 44.2335 51.4897 43.9994 51.5069L43.9477 51.5276H43.1833V52.8896H42.6306V49.4846H43.9994ZM43.9477 51.0736C44.1543 51.0736 44.311 51.0289 44.4178 50.9394C44.5279 50.8466 44.583 50.7038 44.583 50.5112C44.583 50.3152 44.5279 50.1724 44.4178 50.083C44.3076 49.9936 44.1509 49.9489 43.9477 49.9489H43.1833V51.0736H43.9477ZM44.2835 51.1871L45.3526 52.8896H44.7122L43.8083 51.3934L44.2835 51.1871Z" fill="#1A1A1A"/>
<path d="M46.5679 49.4846V52.8896H46.0101V49.4846H46.5679Z" fill="#1A1A1A"/>
<path d="M50.2757 49.4846V52.8896H49.6249L48.3388 50.7073L48.0444 50.1449H48.0392L48.0547 50.6866V52.8896H47.5485V49.4846H48.1942L49.4803 51.6669L49.7798 52.2292H49.785L49.7643 51.6875V49.4846H50.2757Z" fill="#1A1A1A"/>
<path d="M52.5936 52.9412C52.2872 52.9412 52.0186 52.8724 51.7879 52.7348C51.5606 52.5938 51.3833 52.3926 51.2559 52.1312C51.1319 51.8698 51.0699 51.5551 51.0699 51.1871C51.0699 50.8259 51.1354 50.5147 51.2662 50.2533C51.4005 49.9919 51.5864 49.7907 51.824 49.6496C52.0651 49.5052 52.3457 49.433 52.6659 49.433C53.0103 49.433 53.2909 49.5 53.5078 49.6342C53.7248 49.7683 53.8952 49.9764 54.0192 50.2584L53.5027 50.4906C53.4407 50.2945 53.3374 50.1484 53.1928 50.0521C53.0516 49.9558 52.876 49.9076 52.6659 49.9076C52.4628 49.9076 52.2854 49.9592 52.1339 50.0624C51.9824 50.1621 51.8636 50.3083 51.7775 50.5009C51.6915 50.6901 51.6484 50.9188 51.6484 51.1871C51.6484 51.4588 51.688 51.691 51.7672 51.8836C51.8464 52.0762 51.9618 52.2223 52.1133 52.3221C52.2648 52.4218 52.4524 52.4717 52.6763 52.4717C52.8037 52.4717 52.919 52.4545 53.0223 52.4201C53.1291 52.3857 53.2203 52.3341 53.2961 52.2653C53.3753 52.1965 53.4355 52.114 53.4768 52.0177C53.5216 51.9179 53.544 51.8062 53.544 51.6824V51.574H52.5988V51.1355H54.0398V52.8896H53.6318L53.5905 52.1776L53.6938 52.2292C53.6146 52.4528 53.482 52.6282 53.2961 52.7555C53.1136 52.8793 52.8794 52.9412 52.5936 52.9412Z" fill="#1A1A1A"/>
<path d="M56.5268 52.8896V49.4846H57.8646C58.2537 49.4846 58.5395 49.5671 58.722 49.7322C58.9079 49.8938 59.0009 50.1191 59.0009 50.408C59.0009 50.5835 58.951 50.7434 58.8511 50.8878C58.7513 51.0323 58.598 51.1234 58.3914 51.1613V51.1664C58.6118 51.2008 58.7822 51.292 58.9028 51.4399C59.0233 51.5878 59.0835 51.7597 59.0835 51.9558C59.0835 52.2447 58.982 52.4734 58.7788 52.6419C58.5756 52.807 58.2812 52.8896 57.8956 52.8896H56.5268ZM57.0743 52.4407H57.8853C58.0884 52.4407 58.2416 52.396 58.3449 52.3066C58.4482 52.2172 58.4999 52.0899 58.4999 51.9248C58.4999 51.7563 58.4482 51.629 58.3449 51.5431C58.2416 51.4536 58.0884 51.4089 57.8853 51.4089H57.0743V52.4407ZM57.0743 50.9549H57.8026C58.0092 50.9549 58.1624 50.9136 58.2623 50.8311C58.3656 50.7451 58.4173 50.6178 58.4173 50.4493C58.4173 50.2808 58.3656 50.1552 58.2623 50.0727C58.1624 49.9867 58.0092 49.9437 57.8026 49.9437H57.0743V50.9549Z" fill="#1A1A1A"/>
<path d="M59.8559 52.8896V49.4846H62.2525V49.954H60.4137V50.9394H61.8599V51.3986H60.4137V52.4201H62.3248V52.8896H59.8559Z" fill="#1A1A1A"/>
<path d="M65.4973 49.4846L64.3249 51.5895V52.8896H63.767V51.5895L62.5946 49.4846H63.2092L63.7774 50.5628L64.0459 51.1045L64.3197 50.5628L64.8878 49.4846H65.4973Z" fill="#1A1A1A"/>
<path d="M67.3282 49.433C67.6519 49.433 67.9308 49.5035 68.1649 49.6445C68.3991 49.7855 68.5799 49.9867 68.7073 50.2481C68.8347 50.5095 68.8984 50.8225 68.8984 51.1871C68.8984 51.5482 68.8347 51.8612 68.7073 52.126C68.5799 52.3874 68.3991 52.5886 68.1649 52.7297C67.9308 52.8707 67.6519 52.9412 67.3282 52.9412C67.0045 52.9412 66.7256 52.8707 66.4915 52.7297C66.2573 52.5886 66.0765 52.3874 65.9491 52.126C65.8217 51.8612 65.758 51.5482 65.758 51.1871C65.758 50.8225 65.8217 50.5095 65.9491 50.2481C66.0765 49.9867 66.2573 49.7855 66.4915 49.6445C66.7256 49.5035 67.0045 49.433 67.3282 49.433ZM67.3282 49.9076C67.1216 49.9076 66.9443 49.9592 66.7962 50.0624C66.6481 50.1621 66.5345 50.3066 66.4553 50.4957C66.3761 50.6849 66.3365 50.9154 66.3365 51.1871C66.3365 51.4553 66.3761 51.6858 66.4553 51.8784C66.5345 52.0676 66.6481 52.2137 66.7962 52.3169C66.9443 52.4167 67.1216 52.4665 67.3282 52.4665C67.5348 52.4665 67.7104 52.4167 67.855 52.3169C68.0031 52.2137 68.1167 52.0676 68.1959 51.8784C68.2786 51.6858 68.3199 51.4553 68.3199 51.1871C68.3199 50.9154 68.2786 50.6849 68.1959 50.4957C68.1167 50.3066 68.0031 50.1621 67.855 50.0624C67.7104 49.9592 67.5348 49.9076 67.3282 49.9076Z" fill="#1A1A1A"/>
<path d="M72.4188 49.4846V52.8896H71.768L70.4819 50.7073L70.1875 50.1449H70.1823L70.1978 50.6866V52.8896H69.6917V49.4846H70.3373L71.6234 51.6669L71.923 52.2292H71.9281L71.9075 51.6875V49.4846H72.4188Z" fill="#1A1A1A"/>
<path d="M74.5921 49.4846C75.1121 49.4846 75.5149 49.6325 75.8008 49.9282C76.0865 50.2206 76.2294 50.6385 76.2294 51.1819C76.2294 51.7322 76.0865 52.1553 75.8008 52.4511C75.5149 52.7434 75.1121 52.8896 74.5921 52.8896H73.399V49.4846H74.5921ZM74.5818 52.4253C74.9158 52.4253 75.1758 52.3221 75.3617 52.1157C75.5511 51.9059 75.6458 51.5946 75.6458 51.1819C75.6458 50.9068 75.6028 50.678 75.5167 50.4957C75.434 50.3135 75.3118 50.1776 75.1499 50.0882C74.9916 49.9953 74.8022 49.9489 74.5818 49.9489H73.9568V52.4253H74.5818Z" fill="#1A1A1A"/>
<path d="M78.6599 52.8896V49.4846H79.9976C80.3867 49.4846 80.6725 49.5671 80.855 49.7322C81.041 49.8938 81.1339 50.1191 81.1339 50.408C81.1339 50.5835 81.084 50.7434 80.9842 50.8878C80.8843 51.0323 80.7311 51.1234 80.5245 51.1613V51.1664C80.7448 51.2008 80.9153 51.292 81.0358 51.4399C81.1563 51.5878 81.2166 51.7597 81.2166 51.9558C81.2166 52.2447 81.115 52.4734 80.9118 52.6419C80.7087 52.807 80.4143 52.8896 80.0286 52.8896H78.6599ZM79.2074 52.4407H80.0183C80.2215 52.4407 80.3747 52.396 80.478 52.3066C80.5813 52.2172 80.6329 52.0899 80.6329 51.9248C80.6329 51.7563 80.5813 51.629 80.478 51.5431C80.3747 51.4536 80.2215 51.4089 80.0183 51.4089H79.2074V52.4407ZM79.2074 50.9549H79.9356C80.1423 50.9549 80.2955 50.9136 80.3953 50.8311C80.4986 50.7451 80.5503 50.6178 80.5503 50.4493C80.5503 50.2808 80.4986 50.1552 80.3953 50.0727C80.2955 49.9867 80.1423 49.9437 79.9356 49.9437H79.2074V50.9549Z" fill="#1A1A1A"/>
<path d="M83.3732 49.433C83.6968 49.433 83.9757 49.5035 84.2099 49.6445C84.444 49.7855 84.6248 49.9867 84.7522 50.2481C84.8796 50.5095 84.9433 50.8225 84.9433 51.1871C84.9433 51.5482 84.8796 51.8612 84.7522 52.126C84.6248 52.3874 84.444 52.5886 84.2099 52.7297C83.9757 52.8707 83.6968 52.9412 83.3732 52.9412C83.0495 52.9412 82.7706 52.8707 82.5364 52.7297C82.3023 52.5886 82.1215 52.3874 81.9941 52.126C81.8667 51.8612 81.803 51.5482 81.803 51.1871C81.803 50.8225 81.8667 50.5095 81.9941 50.2481C82.1215 49.9867 82.3023 49.7855 82.5364 49.6445C82.7706 49.5035 83.0495 49.433 83.3732 49.433ZM83.3732 49.9076C83.1665 49.9076 82.9892 49.9592 82.8412 50.0624C82.6931 50.1621 82.5795 50.3066 82.5003 50.4957C82.4211 50.6849 82.3815 50.9154 82.3815 51.1871C82.3815 51.4553 82.4211 51.6858 82.5003 51.8784C82.5795 52.0676 82.6931 52.2137 82.8412 52.3169C82.9892 52.4167 83.1665 52.4665 83.3732 52.4665C83.5798 52.4665 83.7554 52.4167 83.9 52.3169C84.048 52.2137 84.1617 52.0676 84.2409 51.8784C84.3235 51.6858 84.3648 51.4553 84.3648 51.1871C84.3648 50.9154 84.3235 50.6849 84.2409 50.4957C84.1617 50.3066 84.048 50.1621 83.9 50.0624C83.7554 49.9592 83.5798 49.9076 83.3732 49.9076Z" fill="#1A1A1A"/>
<path d="M87.1053 49.4846C87.4635 49.4846 87.7458 49.5757 87.9524 49.758C88.1625 49.9368 88.2675 50.181 88.2675 50.4906C88.2675 50.7038 88.2193 50.8827 88.1229 51.0271C88.0299 51.1716 87.8956 51.2834 87.72 51.3625C87.5444 51.4416 87.3395 51.4897 87.1053 51.5069L87.0537 51.5276H86.2893V52.8896H85.7366V49.4846H87.1053ZM87.0537 51.0736C87.2603 51.0736 87.417 51.0289 87.5237 50.9394C87.6339 50.8466 87.689 50.7038 87.689 50.5112C87.689 50.3152 87.6339 50.1724 87.5237 50.083C87.4135 49.9936 87.2569 49.9489 87.0537 49.9489H86.2893V51.0736H87.0537ZM87.3894 51.1871L88.4586 52.8896H87.8181L86.9142 51.3934L87.3894 51.1871Z" fill="#1A1A1A"/>
<path d="M90.3092 49.4846C90.8291 49.4846 91.232 49.6325 91.5178 49.9282C91.8036 50.2206 91.9465 50.6385 91.9465 51.1819C91.9465 51.7322 91.8036 52.1553 91.5178 52.4511C91.232 52.7434 90.8291 52.8896 90.3092 52.8896H89.1161V49.4846H90.3092ZM90.2989 52.4253C90.6329 52.4253 90.8929 52.3221 91.0788 52.1157C91.2682 51.9059 91.3629 51.5946 91.3629 51.1819C91.3629 50.9068 91.3198 50.678 91.2337 50.4957C91.1511 50.3135 91.0289 50.1776 90.867 50.0882C90.7086 49.9953 90.5192 49.9489 90.2989 49.9489H89.6739V52.4253H90.2989Z" fill="#1A1A1A"/>
<path d="M92.7427 52.8896V49.4846H95.1393V49.954H93.3005V50.9394H94.7467V51.3986H93.3005V52.4201H95.2116V52.8896H92.7427Z" fill="#1A1A1A"/>
<path d="M97.2892 49.4846C97.6473 49.4846 97.9296 49.5757 98.1362 49.758C98.3463 49.9368 98.4513 50.181 98.4513 50.4906C98.4513 50.7038 98.4031 50.8827 98.3067 51.0271C98.2137 51.1716 98.0794 51.2834 97.9038 51.3625C97.7282 51.4416 97.5233 51.4897 97.2892 51.5069L97.2375 51.5276H96.4731V52.8896H95.9204V49.4846H97.2892ZM97.2375 51.0736C97.4441 51.0736 97.6008 51.0289 97.7075 50.9394C97.8177 50.8466 97.8728 50.7038 97.8728 50.5112C97.8728 50.3152 97.8177 50.1724 97.7075 50.083C97.5973 49.9936 97.4407 49.9489 97.2375 49.9489H96.4731V51.0736H97.2375ZM97.5732 51.1871L98.6424 52.8896H98.0019L97.0981 51.3934L97.5732 51.1871Z" fill="#1A1A1A"/>
<path d="M100.431 49.433C100.731 49.433 100.989 49.4897 101.206 49.6032C101.426 49.7133 101.612 49.8818 101.764 50.1088L101.412 50.47C101.288 50.2705 101.144 50.126 100.979 50.0366C100.817 49.9472 100.626 49.9024 100.405 49.9024C100.247 49.9024 100.116 49.9248 100.013 49.9695C99.9128 50.0142 99.8371 50.0744 99.7854 50.1501C99.7372 50.2258 99.7131 50.31 99.7131 50.4029C99.7131 50.5164 99.751 50.6127 99.8267 50.6918C99.9059 50.7675 100.042 50.8277 100.235 50.8724L100.875 51.022C101.195 51.0942 101.424 51.2043 101.562 51.3522C101.7 51.4966 101.769 51.6841 101.769 51.9145C101.769 52.1243 101.714 52.3066 101.604 52.4614C101.493 52.6162 101.338 52.7348 101.139 52.8174C100.942 52.8999 100.715 52.9412 100.457 52.9412C100.226 52.9412 100.014 52.9119 99.8216 52.8535C99.6322 52.7916 99.4669 52.7073 99.3257 52.6007C99.188 52.4906 99.0726 52.3668 98.9797 52.2292L99.3361 51.8423C99.4049 51.9661 99.4944 52.0762 99.6046 52.1725C99.7148 52.2653 99.8422 52.3393 99.9868 52.3943C100.135 52.4459 100.293 52.4717 100.462 52.4717C100.614 52.4717 100.743 52.4528 100.849 52.415C100.96 52.3771 101.044 52.3204 101.103 52.2447C101.161 52.169 101.19 52.0796 101.19 51.9764C101.19 51.8732 101.156 51.7838 101.087 51.7081C101.022 51.6325 100.899 51.574 100.72 51.5327L100.023 51.3728C99.8336 51.3281 99.6718 51.2662 99.5375 51.1871C99.4032 51.108 99.3016 51.0099 99.2328 50.893C99.1639 50.7726 99.1294 50.6333 99.1294 50.4751C99.1294 50.2791 99.1811 50.1037 99.2844 49.9489C99.3911 49.7907 99.5409 49.6651 99.7338 49.5723C99.93 49.4794 100.162 49.433 100.431 49.433Z" fill="#1A1A1A"/>
<path d="M106.149 41.1493H115.66H120.252V48.1157V55.0822L106.149 41.1493Z" fill="#FF00E5"/>
<path d="M120.252 14.7152H106.315L120.252 0.782227V14.7152Z" fill="#FF00E5"/>
<path fill-rule="evenodd" clip-rule="evenodd" d="M120.252 14.7152L106.948 27.9322L103.432 31.4252L99.9163 34.9182L92.9692 27.9734L79.7066 14.7152H93.6442L99.9794 21.009L106.315 14.7152H120.252Z" fill="#FF00E5"/>
<path d="M79.7066 41.1493L91.4219 29.5106L98.369 36.4554L93.6442 41.1493H79.7066Z" fill="#1A1A1A"/>
<path fill-rule="evenodd" clip-rule="evenodd" d="M115.66 41.1493H106.149L99.9163 34.9182L103.432 31.4252L109.059 31.1339L115.66 41.1493Z" fill="#FF00E5"/>
<path fill-rule="evenodd" clip-rule="evenodd" d="M106.948 27.9322L103.432 31.4252L109.059 31.1339L106.948 27.9322Z" fill="#99008A"/>
<path d="M11.7644 16.9046C13.9174 16.9046 15.8284 17.2427 17.4975 17.9189C19.1908 18.5952 20.6543 19.6096 21.888 20.9621L18.9126 24.9834C17.8725 23.8965 16.7597 23.0874 15.5744 22.5561C14.4133 22.0006 13.107 21.7229 11.6556 21.7229C10.8089 21.7229 10.1195 21.8195 9.5873 22.0127C9.07931 22.2059 8.70436 22.4716 8.46246 22.8097C8.22055 23.1478 8.0996 23.5342 8.0996 23.969C8.0996 24.5728 8.3536 25.0437 8.8616 25.3819C9.39378 25.6958 10.0953 25.9494 10.9661 26.1426L14.885 27.0483C17.2314 27.5797 18.9489 28.3888 20.0375 29.4756C21.126 30.5383 21.6703 31.9512 21.6703 33.7143C21.6703 35.4049 21.2349 36.8419 20.3641 38.0254C19.5174 39.1847 18.3442 40.0662 16.8444 40.67C15.3446 41.2497 13.6392 41.5395 11.7281 41.5395C10.18 41.5395 8.70436 41.3704 7.30132 41.0323C5.89829 40.67 4.61621 40.1628 3.45508 39.5107C2.31813 38.8586 1.35052 38.1099 0.552246 37.2646L3.52765 33.0984C4.1324 33.7988 4.8702 34.4267 5.74105 34.9822C6.6119 35.5136 7.55532 35.9362 8.57131 36.2502C9.5873 36.5642 10.6154 36.7212 11.6556 36.7212C12.478 36.7212 13.1433 36.6366 13.6513 36.4676C14.1834 36.2985 14.5826 36.0449 14.8487 35.7068C15.1148 35.3687 15.2478 34.9702 15.2478 34.5113C15.2478 34.0041 15.0664 33.5694 14.7035 33.2071C14.3649 32.8448 13.7238 32.555 12.7804 32.3376L8.46246 31.3595C7.27713 31.0938 6.16438 30.7194 5.1242 30.2364C4.08402 29.7292 3.23736 29.0288 2.58423 28.1352C1.93109 27.2416 1.60452 26.0943 1.60452 24.6935C1.60452 23.1961 2.00366 21.8678 2.80194 20.7085C3.62441 19.525 4.79763 18.5952 6.32162 17.9189C7.8456 17.2427 9.65987 16.9046 11.7644 16.9046Z" fill="#1A1A1A"/>
<path d="M46.773 17.2668V41.1772H40.5319V17.2668H46.773ZM31.8234 17.2668V41.1772H25.5823V17.2668H31.8234ZM43.8702 26.7223V31.5406H28.6303V26.7223H43.8702Z" fill="#1A1A1A"/>
<path d="M74.4162 17.2668C77.2465 17.2668 79.4599 17.9672 81.0564 19.368C82.653 20.7689 83.4513 22.7252 83.4513 25.237C83.4513 27.7729 82.653 29.7413 81.0564 31.1421C79.4599 32.5187 77.2465 33.2071 74.4162 33.2071H69.8805V41.1772H63.6395V17.2668H74.4162ZM73.4365 28.5337C74.6702 28.5337 75.6015 28.268 76.2305 27.7367C76.8594 27.1812 77.1739 26.3479 77.1739 25.237C77.1739 24.126 76.8594 23.3048 76.2305 22.7735C75.6015 22.218 74.6702 21.9402 73.4365 21.9402H69.8805V28.5337H73.4365Z" fill="#1A1A1A"/>
<path d="M52.0877 41.1772H58.3288V29.222L52.0877 30.7164V41.1772Z" fill="#1A1A1A"/>
<path fill-rule="evenodd" clip-rule="evenodd" d="M58.3288 17.2668H52.0877V29.222L58.3288 27.7276V17.2668Z" fill="#FF00E5"/>
<path d="M134.271 16.7299C134.771 16.7299 135.167 16.8619 135.459 17.1259C135.757 17.3899 135.906 17.7547 135.906 18.2203C135.906 18.6811 135.757 19.0435 135.459 19.3075C135.167 19.5715 134.771 19.7035 134.271 19.7035H133.263V21.4819H132.486V16.7299H134.271ZM134.156 19.0555C134.473 19.0555 134.708 18.9859 134.862 18.8467C135.02 18.7027 135.099 18.4939 135.099 18.2203C135.099 17.9419 135.02 17.7331 134.862 17.5939C134.708 17.4499 134.473 17.3779 134.156 17.3779H133.263V19.0555H134.156ZM138.824 16.6579C139.275 16.6579 139.664 16.7563 139.99 16.9531C140.317 17.1499 140.569 17.4307 140.746 17.7955C140.924 18.1603 141.013 18.5971 141.013 19.1059C141.013 19.6099 140.924 20.0467 140.746 20.4163C140.569 20.7811 140.317 21.0619 139.99 21.2587C139.664 21.4555 139.275 21.5539 138.824 21.5539C138.373 21.5539 137.984 21.4555 137.658 21.2587C137.331 21.0619 137.079 20.7811 136.902 20.4163C136.724 20.0467 136.635 19.6099 136.635 19.1059C136.635 18.5971 136.724 18.1603 136.902 17.7955C137.079 17.4307 137.331 17.1499 137.658 16.9531C137.984 16.7563 138.373 16.6579 138.824 16.6579ZM138.824 17.3203C138.536 17.3203 138.289 17.3923 138.082 17.5363C137.876 17.6755 137.718 17.8771 137.607 18.1411C137.497 18.4051 137.442 18.7267 137.442 19.1059C137.442 19.4803 137.497 19.8019 137.607 20.0707C137.718 20.3347 137.876 20.5387 138.082 20.6827C138.289 20.8219 138.536 20.8915 138.824 20.8915C139.112 20.8915 139.357 20.8219 139.558 20.6827C139.765 20.5387 139.923 20.3347 140.034 20.0707C140.149 19.8019 140.206 19.4803 140.206 19.1059C140.206 18.7267 140.149 18.4051 140.034 18.1411C139.923 17.8771 139.765 17.6755 139.558 17.5363C139.357 17.3923 139.112 17.3203 138.824 17.3203ZM142.941 21.4819L141.558 16.7299H142.386L143.423 20.8123L144.438 16.7299H145.223L146.246 20.8195L147.275 16.7299H148.067L146.692 21.4819H145.792L145.058 18.6451L144.827 17.5435H144.813L144.582 18.6451L143.855 21.4819H142.941ZM148.939 21.4819V16.7299H152.28V17.3851H149.716V18.7603H151.732V19.4011H149.716V20.8267H152.38V21.4819H148.939ZM155.277 16.7299C155.776 16.7299 156.169 16.8571 156.457 17.1115C156.75 17.3611 156.897 17.7019 156.897 18.1339C156.897 18.4315 156.829 18.6811 156.695 18.8827C156.565 19.0843 156.378 19.2403 156.133 19.3507C155.889 19.4611 155.603 19.5283 155.277 19.5523L155.205 19.5811H154.139V21.4819H153.369V16.7299H155.277ZM155.205 18.9475C155.493 18.9475 155.711 18.8851 155.86 18.7603C156.013 18.6307 156.09 18.4315 156.09 18.1627C156.09 17.8891 156.013 17.6899 155.86 17.5651C155.706 17.4403 155.488 17.3779 155.205 17.3779H154.139V18.9475H155.205ZM155.673 19.1059L157.163 21.4819H156.27L155.01 19.3939L155.673 19.1059ZM158.08 21.4819V16.7299H161.42V17.3851H158.857V18.7603H160.873V19.4011H158.857V20.8267H161.521V21.4819H158.08ZM164.172 16.7299C164.897 16.7299 165.459 16.9363 165.857 17.3491C166.256 17.7571 166.455 18.3403 166.455 19.0987C166.455 19.8667 166.256 20.4571 165.857 20.8699C165.459 21.2779 164.897 21.4819 164.172 21.4819H162.509V16.7299H164.172ZM164.158 20.8339C164.624 20.8339 164.986 20.6899 165.245 20.4019C165.509 20.1091 165.641 19.6747 165.641 19.0987C165.641 18.7147 165.581 18.3955 165.461 18.1411C165.346 17.8867 165.176 17.6971 164.95 17.5723C164.729 17.4427 164.465 17.3779 164.158 17.3779H163.287V20.8339H164.158ZM169.843 21.4819V16.7299H171.708C172.25 16.7299 172.648 16.8451 172.903 17.0755C173.162 17.3011 173.292 17.6155 173.292 18.0187C173.292 18.2635 173.222 18.4867 173.083 18.6883C172.944 18.8899 172.73 19.0171 172.442 19.0699V19.0771C172.749 19.1251 172.987 19.2523 173.155 19.4587C173.323 19.6651 173.407 19.9051 173.407 20.1787C173.407 20.5819 173.265 20.9011 172.982 21.1363C172.699 21.3667 172.288 21.4819 171.751 21.4819H169.843ZM170.606 20.8555H171.736C172.02 20.8555 172.233 20.7931 172.377 20.6683C172.521 20.5435 172.593 20.3659 172.593 20.1355C172.593 19.9003 172.521 19.7227 172.377 19.6027C172.233 19.4779 172.02 19.4155 171.736 19.4155H170.606V20.8555ZM170.606 18.7819H171.621C171.909 18.7819 172.123 18.7243 172.262 18.6091C172.406 18.4891 172.478 18.3115 172.478 18.0763C172.478 17.8411 172.406 17.6659 172.262 17.5507C172.123 17.4307 171.909 17.3707 171.621 17.3707H170.606V18.7819ZM177.777 16.7299L176.143 19.6675V21.4819H175.365V19.6675L173.731 16.7299H174.588L175.38 18.2347L175.754 18.9907L176.136 18.2347L176.928 16.7299H177.777Z" fill="#1A1A1A"/>
<path d="M137.531 30.201L139.654 34.0586L136.214 40.3502L136.034 40.6804H131.802L132.321 39.7292L137.531 30.201ZM150.192 40.6804H145.958L145.778 40.3502L142.611 34.5554L141.059 31.7171L140.997 31.6035L138.874 27.7458L138.882 27.7337L139.051 27.4232L140.432 24.8969L140.594 24.5425H141.404L141.561 24.8954L142.944 27.4232L149.672 39.7292L150.192 40.6804Z" fill="#F58800"/>
<path d="M170.289 24.4834V40.6804H166.915V31.9837L165.125 33.7951L164.436 34.4918L164.25 34.6796L163.632 35.3036L163.185 35.755L160.914 33.4558L159.356 31.8792L155.981 28.4638V24.4819H156.82L160.03 27.7307L163.185 30.925L169.551 24.4819H170.289V24.4834ZM155.981 31.8322L159.356 35.2415V40.6819H155.981V31.8322Z" fill="#F58800"/>
<path d="M179.454 24.5684V40.6805H176.079V24.5684H179.454Z" fill="#F58800"/>
<path d="M197.888 37.265V40.6804H185.244V24.4834H188.619V37.265H197.888Z" fill="#F58800"/>
<path d="M219.509 32.6684C219.509 37.0865 215.957 40.6821 211.593 40.6821C207.228 40.6821 203.678 37.088 203.678 32.6684C203.678 28.2489 207.228 24.6548 211.593 24.6548C215.958 24.6548 219.509 28.2489 219.509 32.6684ZM211.593 27.999C209.05 27.999 206.981 30.0937 206.981 32.6669C206.981 35.2402 209.05 37.3349 211.593 37.3349C214.137 37.3349 216.205 35.2402 216.205 32.6669C216.205 30.0937 214.137 27.999 211.593 27.999Z" fill="#F58800"/>
</svg>
