<svg width="50" height="50" viewBox="0 0 50 50" fill="none" xmlns="http://www.w3.org/2000/svg">
<path d="M35.7203 32.1887C37.2124 32.103 37.9983 33.2185 38.9498 34.1763L41.3674 36.5944C41.9474 37.1776 42.6271 37.7127 43.1328 38.3612C44.4753 40.0823 42.9866 42.7111 40.9421 43.1205L40.4625 43.1804C39.3528 43.2244 38.6074 42.6568 37.8818 41.9058L34.5582 38.5332C33.8581 37.8194 32.7934 37.0774 32.5914 36.0311L32.5396 35.6462C32.4396 33.9201 34.0592 32.2735 35.7203 32.1887Z" fill="#4F378A"/>
<path d="M20.4515 9.36865C26.119 9.40021 31.0326 13.5137 31.6785 19.2261C31.9976 22.0484 31.3038 25.07 29.5128 27.3084C29.732 27.4504 29.8706 27.6384 30.0421 27.8312L31.7599 29.5679C31.9953 29.7976 32.3024 30.0283 32.4805 30.3044L32.5028 30.3404C33.2598 31.5339 32.2501 32.9262 30.6861 32.2692C29.777 31.8873 29.1321 31.04 28.4465 30.3602C28.1132 30.0297 27.7404 29.7297 27.4308 29.3778L25.8671 30.3744C24.8458 30.8924 23.7727 31.3043 22.6388 31.4921C16.454 32.5161 10.6796 28.4233 9.68924 22.1393L9.61346 21.5598C9.55221 21.2045 9.57174 20.8267 9.57205 20.4669C9.57799 14.4499 14.4388 9.431 20.4515 9.36865Z" fill="#4F378A"/>
<path d="M20.3783 12.6189C20.7537 12.6004 21.1551 12.5984 21.5278 12.6414C25.1489 13.059 28.3064 16.3074 28.533 19.9728C28.8149 24.5325 25.6335 28.3286 21.0249 28.5426L20.6143 28.5421C18.5415 28.5143 16.3485 27.4635 14.9092 25.9844C11.102 22.0726 12.6942 15.106 17.7235 13.1283C18.5127 12.818 19.5278 12.6019 20.3783 12.6189Z" fill="#FFD6FA"/>
</svg>
