<svg width="204" height="564" viewBox="0 0 204 564" fill="none" xmlns="http://www.w3.org/2000/svg">
<mask id="mask0_128_11830" style="mask-type:alpha" maskUnits="userSpaceOnUse" x="0" y="0" width="206" height="564">
<path d="M29.8415 2.23828H176.064C191.308 2.23828 203.667 14.5966 203.667 29.8415V534.159C203.667 549.403 191.308 561.762 176.064 561.762H29.8415C14.5966 561.762 2.23828 549.403 2.23828 534.159V29.8415C2.23828 14.5966 14.5966 2.23828 29.8415 2.23828Z" fill="#0A090F" stroke="url(#paint0_linear_128_11830)" stroke-width="4.47619"/>
</mask>
<g mask="url(#mask0_128_11830)">
<path d="M78.7135 343.361C83.0642 344.855 84.8859 346.686 85.1158 347.842C85.328 348.873 84.479 351.077 81.384 353.94C78.3244 355.842 75.1056 357.727 71.8338 359.629C63.6347 364.244 55.7153 369.344 48.1171 374.902C-12.0144 420.986 -43.884 482.68 -46.5191 558.259C-46.9966 571.966 -51.2765 576.162 -64.8592 576.198H-68.3963C-84.1721 576.233 -100.478 576.269 -116.502 576.162C-123.063 576.11 -127.909 574.509 -130.438 571.86C-132.967 569.21 -134.152 564.855 -133.957 558.899C-130.951 470.037 -99.2228 394.796 -39.4627 334.721C-31.1032 326.317 -22.2013 318.221 -12.7572 310.434C-7.80518 306.345 -5.09929 306.113 0.454071 309.278C25.4054 323.111 51.6102 334.522 78.7135 343.361Z" fill="url(#paint1_linear_128_11830)"/>
<path d="M-68.1137 204.755L-64.4528 209.218C-57.1363 218.507 -49.3503 227.415 -41.1253 235.903C20.8455 295.748 95.3909 327.271 180.441 329.636C187.003 329.796 191.494 328.623 194.201 325.973L194.307 325.867C196.996 323.163 198.322 318.559 198.358 311.803L198.374 311.322C198.446 293.828 198.482 275.658 198.374 257.986C198.216 247.158 193.246 242.162 182.299 241.824C112.015 239.975 53.1927 211.92 7.40436 158.458C-3.52671 145.38 -13.0255 131.158 -20.9281 116.036C-24.0584 110.222 -25.9863 109.245 -28.5154 109.44C-31.0444 109.636 -31.5928 110.862 -33.5912 116.818C-42.8255 144.685 -54.5395 171.659 -68.5913 197.412C-70.5367 200.932 -70.1653 202.23 -68.1137 204.755Z" fill="url(#paint2_linear_128_11830)"/>
<path d="M198.588 396.806C198.566 391.14 198.56 385.469 198.572 379.79C198.658 377.74 198.321 375.695 197.581 373.782C196.842 371.869 195.716 370.132 194.273 368.679C191.408 366.013 187.517 364.802 181.504 364.91C131.984 364.91 82.5701 386.351 46.0492 423.066C9.43965 459.868 -11.571 509.437 -11.4649 559.112C-11.4826 571.434 -6.88428 576.056 5.46033 576.126C24.1188 576.288 42.4766 576.252 60.0209 576.074C70.8091 575.895 75.3368 571.629 75.9736 560.642C79.5814 498.129 120.718 456.811 183.29 452.757C193.813 452.099 198.394 447.566 198.464 437.502C198.624 424.079 198.694 410.318 198.588 396.806Z" fill="url(#paint3_linear_128_11830)"/>
<path d="M-11.5186 13.5923C-10.1214 58.1291 3.99191 97.5635 30.3614 130.722C69.2345 179.579 120.576 205.128 182.99 206.675C185.071 207.035 187.209 206.896 189.228 206.269C191.248 205.643 193.091 204.546 194.61 203.069C196.128 201.59 197.278 199.774 197.966 197.764C198.654 195.756 198.861 193.614 198.57 191.508C198.836 171.543 198.836 152.128 198.552 133.744C198.394 123.912 193.778 119.094 184.369 119.023C155.552 118.771 127.995 107.119 107.662 86.5917C87.328 66.0642 75.8545 38.312 75.7252 9.34299C75.7252 -1.7868 68.0673 -4.29359 61.7005 -4.3647C49.8708 -4.58596 37.8806 -4.58139 26.0378 -4.57683H26.0306L26.0263 -4.57678L26.0172 -4.57674C22.6404 -4.57542 19.2755 -4.57416 15.9297 -4.57808L2.09946 -4.50695C0.273973 -4.53457 -1.53784 -4.18789 -3.22553 -3.48784C-4.91316 -2.78781 -6.44114 -1.74919 -7.71609 -0.435552C-10.6873 2.72914 -11.8192 6.78282 -11.5186 13.5923Z" fill="url(#paint4_linear_128_11830)"/>
<path d="M189.037 72.9747C174.588 84.2645 150.412 81.6152 134.017 66.8763C118.082 52.564 111.998 35.7449 115.429 15.5122L115.5 15.05L115.783 14.4454C123.565 -3.01378 136.44 -7.74304 145.849 -8.66758C162.668 -10.2855 181.821 -0.809064 192.451 14.3922C207.571 35.9939 206.211 59.5158 189.037 72.9747Z" fill="url(#paint5_linear_128_11830)"/>
<path d="M134.018 504.529C119.674 518.949 113.201 533.919 114.563 548.978C115.236 557.187 118.834 564.876 124.696 570.631C130.558 576.387 138.289 579.822 146.468 580.305C153.905 580.482 161.301 579.133 168.202 576.34C175.103 573.546 181.365 569.367 186.605 564.06C191.845 558.751 195.954 552.425 198.68 545.467C201.408 538.508 202.694 531.064 202.461 523.589C201.936 515.374 198.454 507.631 192.663 501.809C186.872 495.989 179.17 492.487 170.998 491.96C164.302 491.337 157.552 492.133 151.181 494.298C144.811 496.465 138.963 499.949 134.018 504.529Z" fill="url(#paint6_linear_128_11830)"/>
</g>
<defs>
<linearGradient id="paint0_linear_128_11830" x1="105.461" y1="505.007" x2="92.4131" y2="22.4214" gradientUnits="userSpaceOnUse">
<stop stop-color="#D95DB0"/>
<stop offset="1" stop-color="#3344DC"/>
</linearGradient>
<linearGradient id="paint1_linear_128_11830" x1="51.1365" y1="522.389" x2="313.317" y2="112.516" gradientUnits="userSpaceOnUse">
<stop stop-color="#D95DB0"/>
<stop offset="1" stop-color="#3344DC"/>
</linearGradient>
<linearGradient id="paint2_linear_128_11830" x1="51.1362" y1="522.39" x2="313.317" y2="112.516" gradientUnits="userSpaceOnUse">
<stop stop-color="#D95DB0"/>
<stop offset="1" stop-color="#3344DC"/>
</linearGradient>
<linearGradient id="paint3_linear_128_11830" x1="51.1365" y1="522.39" x2="313.317" y2="112.516" gradientUnits="userSpaceOnUse">
<stop stop-color="#D95DB0"/>
<stop offset="1" stop-color="#3344DC"/>
</linearGradient>
<linearGradient id="paint4_linear_128_11830" x1="51.1364" y1="522.39" x2="313.317" y2="112.517" gradientUnits="userSpaceOnUse">
<stop stop-color="#D95DB0"/>
<stop offset="1" stop-color="#3344DC"/>
</linearGradient>
<linearGradient id="paint5_linear_128_11830" x1="51.1362" y1="522.389" x2="313.317" y2="112.516" gradientUnits="userSpaceOnUse">
<stop stop-color="#D95DB0"/>
<stop offset="1" stop-color="#3344DC"/>
</linearGradient>
<linearGradient id="paint6_linear_128_11830" x1="51.1364" y1="522.389" x2="313.317" y2="112.516" gradientUnits="userSpaceOnUse">
<stop stop-color="#D95DB0"/>
<stop offset="1" stop-color="#3344DC"/>
</linearGradient>
</defs>
</svg>
