<svg width="32" height="33" viewBox="0 0 32 33" fill="none" xmlns="http://www.w3.org/2000/svg">
<mask id="mask0_127_5648" style="mask-type:alpha" maskUnits="userSpaceOnUse" x="0" y="0" width="32" height="33">
<circle cx="16" cy="16.5" r="16" fill="#D9D9D9"/>
</mask>
<g mask="url(#mask0_127_5648)">
<path fill-rule="evenodd" clip-rule="evenodd" d="M0 0.5V32.5H42.6667V0.5H0Z" fill="#BF2714"/>
<mask id="mask1_127_5648" style="mask-type:luminance" maskUnits="userSpaceOnUse" x="0" y="0" width="43" height="33">
<path fill-rule="evenodd" clip-rule="evenodd" d="M0 0.5V32.5H42.6667V0.5H0Z" fill="white"/>
</mask>
<g mask="url(#mask1_127_5648)">
<path fill-rule="evenodd" clip-rule="evenodd" d="M0 -2.16699V16.4997H42.6667V-2.16699H0Z" fill="#3D58DB"/>
</g>
<path fill-rule="evenodd" clip-rule="evenodd" d="M0 0.5V32.5L24 16.5L0 0.5Z" fill="#F7FCFF"/>
<mask id="mask2_127_5648" style="mask-type:luminance" maskUnits="userSpaceOnUse" x="0" y="0" width="24" height="33">
<path fill-rule="evenodd" clip-rule="evenodd" d="M0 0.5V32.5L24 16.5L0 0.5Z" fill="white"/>
</mask>
<g mask="url(#mask2_127_5648)">
<path fill-rule="evenodd" clip-rule="evenodd" d="M18.1405 15.0603L19.8417 15.7164L20.8538 14.5253L20.8807 16.1183L22.4464 16.6275L20.7984 17.1869L20.907 18.6508L19.8215 17.5295L18.1154 17.854L19.1227 16.5624L18.1405 15.0603Z" fill="#FECA00"/>
<path fill-rule="evenodd" clip-rule="evenodd" d="M2.14052 23.0603L3.70421 23.7517L4.85384 22.5253L4.7432 24.1536L6.44637 24.6275L4.66088 25.2222L4.90697 26.6508L3.66382 25.63L2.11537 25.854L2.98521 24.5977L2.14052 23.0603Z" fill="#FECA00"/>
<path fill-rule="evenodd" clip-rule="evenodd" d="M2.14052 7.06034L3.87086 7.69797L4.85384 6.52527L4.90985 8.09988L6.44637 8.62755L4.82753 9.16853L4.90697 10.6508L3.83047 9.57631L2.11537 9.85397L3.15185 8.54403L2.14052 7.06034Z" fill="#FECA00"/>
<path fill-rule="evenodd" clip-rule="evenodd" d="M10.8285 19.8771C12.6694 19.8771 14.1618 18.3847 14.1618 16.5438C14.1618 14.7028 12.6694 13.2104 10.8285 13.2104C8.9875 13.2104 7.49512 14.7028 7.49512 16.5438C7.49512 18.3847 8.9875 19.8771 10.8285 19.8771Z" fill="#FECA00"/>
<path d="M11.0233 18.8705C11.1524 18.8922 11.2526 18.9966 11.2697 19.1265L11.4014 21.3727C11.438 21.6509 11.2422 21.9063 10.9641 21.9431C10.9391 21.9464 10.9135 21.9481 10.8884 21.9476C10.6076 21.9427 10.3842 21.7109 10.3891 21.4301C10.3895 21.405 10.3921 21.38 10.3963 21.3552L10.6792 19.1156C10.7064 18.9532 10.8608 18.8433 11.0233 18.8705ZM8.81968 18.128C8.95382 18.0324 9.14006 18.0641 9.23572 18.1982C9.31165 18.3049 9.30917 18.4482 9.22957 18.5522L7.76145 20.3399C7.59051 20.5626 7.27084 20.6048 7.04807 20.4339C7.02812 20.4186 7.00939 20.4011 6.99192 20.383C6.79716 20.181 6.80308 19.8593 7.00497 19.6643C7.02289 19.6471 7.0419 19.6309 7.06216 19.6165L8.81968 18.128ZM10.396 19.0772C10.4839 19.1011 10.531 19.183 10.5093 19.2623L10.2556 20.1883C10.2265 20.2948 10.1195 20.361 10.0111 20.3396C10.004 20.3381 9.99682 20.3365 9.98993 20.3342C9.8998 20.3039 9.85172 20.2063 9.88183 20.1161L10.191 19.194C10.2199 19.1088 10.3079 19.0587 10.396 19.0772ZM11.5196 19.1783C11.6171 19.1612 11.7035 19.2144 11.7293 19.3006L12.0058 20.2324C12.0329 20.3235 11.9811 20.4192 11.89 20.4465C11.883 20.4486 11.8754 20.4506 11.8681 20.4518C11.7591 20.4694 11.6551 20.3997 11.6297 20.2922L11.4092 19.3575C11.3903 19.2775 11.4395 19.1972 11.5196 19.1783ZM12.7621 18.0826C12.8689 18.0064 13.013 18.009 13.1171 18.0888L14.8455 19.5929C15.0682 19.7639 15.1104 20.0835 14.9395 20.3063C14.9242 20.3262 14.9076 20.3451 14.8895 20.3625C14.6875 20.5576 14.365 20.5514 14.1699 20.3494C14.1525 20.3314 14.1367 20.3117 14.1221 20.2913L12.6929 18.4987C12.5973 18.3647 12.6283 18.1784 12.7621 18.0826ZM9.37023 18.7666C9.4512 18.8235 9.47403 18.9227 9.43111 19.0019L8.96803 19.8564C8.92263 19.9398 8.81865 19.9704 8.73512 19.9253C8.72881 19.9219 8.72215 19.9184 8.71632 19.9142C8.62674 19.8496 8.60168 19.7262 8.65968 19.6322L9.16519 18.8149C9.20848 18.7451 9.30033 18.7234 9.37023 18.7666ZM12.4645 18.6717C12.5434 18.6263 12.6344 18.6515 12.6753 18.7226L13.1514 19.5577C13.206 19.6536 13.1776 19.7756 13.0859 19.837C13.0798 19.8411 13.0731 19.8441 13.0665 19.8474C12.9814 19.8897 12.8785 19.8555 12.836 19.7706L12.4025 18.9003C12.3623 18.8196 12.389 18.721 12.4645 18.6717ZM8.41807 17.8376C8.49876 17.7974 8.59735 17.8242 8.64672 17.8996C8.69212 17.9786 8.66706 18.0696 8.59576 18.1104L7.76168 18.5866C7.66579 18.6413 7.54388 18.6127 7.48237 18.521C7.47826 18.5149 7.47429 18.5083 7.471 18.5016C7.4287 18.4164 7.4636 18.3135 7.54879 18.2712L8.41807 17.8376ZM13.5657 17.8882L14.4204 18.3503C14.504 18.3956 14.5353 18.5006 14.4901 18.5842C14.4866 18.5907 14.4824 18.597 14.4781 18.603C14.4135 18.6925 14.2911 18.7167 14.1971 18.6587L13.3797 18.1542C13.3098 18.1109 13.2882 18.0191 13.3314 17.9491C13.3883 17.8682 13.4866 17.8454 13.5657 17.8882ZM7.96085 16.8443C8.04079 16.8254 8.12103 16.8749 8.14011 16.9547C8.15732 17.0523 8.10409 17.1387 8.01776 17.1645L7.08597 17.4419C6.99478 17.4689 6.89902 17.4163 6.87192 17.3252C6.86988 17.3182 6.86769 17.3113 6.86653 17.3042C6.84888 17.1952 6.91869 17.0902 7.0262 17.0648L7.96085 16.8443ZM5.97124 15.8838L8.2037 16.1153C8.36595 16.1427 8.47502 16.296 8.44794 16.4584C8.42629 16.5877 8.32285 16.6877 8.19282 16.7048L5.95375 16.8899C5.67552 16.9263 5.41998 16.7299 5.38333 16.4516C5.38009 16.4269 5.37932 16.4019 5.37974 16.377C5.38464 16.0963 5.61568 15.8729 5.8963 15.8776C5.9213 15.878 5.94658 15.8797 5.97124 15.8838ZM14.7532 17.0628C14.8597 17.0919 14.9259 17.1989 14.9045 17.3073C14.903 17.3144 14.9014 17.3216 14.8991 17.3285C14.8688 17.4185 14.7711 17.4666 14.681 17.4366L13.7589 17.1273C13.6736 17.0985 13.6236 17.0106 13.6421 16.9224C13.666 16.8345 13.7479 16.7874 13.8272 16.8091L14.7532 17.0628ZM15.9159 15.8763C16.1942 15.8398 16.4497 16.0363 16.4863 16.3146C16.4896 16.3394 16.4913 16.3644 16.4909 16.3894C16.486 16.6701 16.254 16.8945 15.9733 16.8896C15.9482 16.8892 15.9231 16.8866 15.8984 16.8824L13.6805 16.6392C13.518 16.612 13.4081 16.4576 13.4353 16.2951C13.4571 16.166 13.5606 16.0658 13.6905 16.0487L15.9159 15.8763ZM7.20324 15.317L8.12435 15.6262C8.20972 15.6548 8.26051 15.743 8.24217 15.8312C8.2184 15.9191 8.13629 15.966 8.05705 15.9445L7.13011 15.6907C7.02364 15.6616 6.95744 15.5555 6.97877 15.4472C6.98018 15.44 6.98283 15.433 6.98514 15.4261C7.01542 15.3358 7.11299 15.2867 7.20324 15.317ZM14.7963 15.3125C14.8875 15.2854 14.9842 15.3371 15.0114 15.4283C15.0135 15.4354 15.0145 15.4429 15.0157 15.4502C15.0333 15.5592 14.9636 15.6633 14.8561 15.6887L13.9215 15.9092C13.8414 15.9281 13.7611 15.8788 13.7422 15.7987C13.7251 15.7011 13.7791 15.6147 13.8655 15.589L14.7963 15.3125ZM7.40515 14.1515C7.46978 14.0619 7.59314 14.0368 7.68713 14.0949L8.50444 14.6004C8.57407 14.6437 8.5959 14.7356 8.55276 14.8054C8.49586 14.8865 8.39672 14.9092 8.31747 14.8663L7.46293 14.4032C7.37951 14.3579 7.34815 14.2538 7.39307 14.1702C7.39652 14.1639 7.40093 14.1574 7.40515 14.1515ZM6.82285 12.427C7.02484 12.2319 7.34738 12.2381 7.54244 12.4401C7.55983 12.4581 7.57572 12.4779 7.59026 12.4983L9.19038 14.2548C9.28596 14.3888 9.25499 14.5752 9.12114 14.6709C9.01441 14.747 8.87027 14.7444 8.76622 14.6647L6.86693 13.1966C6.64415 13.0257 6.60198 12.706 6.77291 12.4832C6.78819 12.4633 6.80481 12.4444 6.82285 12.427ZM14.1216 14.1669C14.2174 14.1123 14.3394 14.141 14.4009 14.2325C14.405 14.2386 14.409 14.2453 14.4123 14.2519C14.4547 14.3371 14.4197 14.4409 14.3344 14.4833L13.4642 14.9159C13.3835 14.9558 13.2858 14.9293 13.2366 14.8539C13.1911 14.7748 13.2161 14.6839 13.2875 14.6431L14.1216 14.1669ZM14.1442 12.5562C14.3151 12.3335 14.6338 12.2912 14.8566 12.4621C14.8765 12.4774 14.8954 12.494 14.9128 12.512C15.1079 12.714 15.1026 13.0366 14.9007 13.2317C14.8826 13.2491 14.8629 13.2649 14.8425 13.2795L13.0635 14.6265C12.9294 14.7221 12.7432 14.6904 12.6475 14.5563C12.5714 14.4495 12.5739 14.3054 12.6537 14.2013L14.1442 12.5562ZM8.81675 12.9061C8.90194 12.8639 9.00488 12.8987 9.04724 12.9839L9.48075 13.8541C9.52047 13.9347 9.49393 14.0325 9.41882 14.0818C9.33978 14.1272 9.2488 14.1022 9.20799 14.0309L8.73181 13.1968C8.67709 13.1009 8.70564 12.979 8.79736 12.9175C8.80349 12.9134 8.81014 12.9094 8.81675 12.9061ZM13.1482 12.8282C13.1546 12.8317 13.161 12.836 13.1669 12.8403C13.2564 12.9048 13.2813 13.0273 13.2236 13.1213L12.7181 13.9386C12.6749 14.0086 12.583 14.0301 12.5131 13.9869C12.4322 13.93 12.4093 13.8317 12.4521 13.7526L12.9152 12.898C12.9605 12.8144 13.0645 12.7831 13.1482 12.8282ZM10.9474 10.9122C11.2281 10.9171 11.4525 11.149 11.4476 11.4298C11.4472 11.4549 11.4446 11.4799 11.4404 11.5047L11.2041 13.6389C11.1769 13.8014 11.0225 13.9112 10.86 13.884C10.7309 13.8622 10.6307 13.7587 10.6135 13.6289L10.4343 11.4872C10.3978 11.2088 10.5943 10.9534 10.8726 10.9167C10.8974 10.9135 10.9224 10.9118 10.9474 10.9122ZM11.8722 12.4139C11.8793 12.4154 11.8865 12.417 11.8934 12.4193C11.9835 12.4496 12.0316 12.5472 12.0015 12.6374L11.6923 13.5585C11.6636 13.644 11.5756 13.6948 11.4873 13.6763C11.3994 13.6524 11.3523 13.5705 11.374 13.4912L11.6276 12.5652C11.6568 12.4587 11.7638 12.3925 11.8722 12.4139ZM10.0152 12.3017C10.1241 12.2842 10.2282 12.3539 10.2536 12.4613L10.4741 13.396C10.493 13.476 10.4437 13.5563 10.3637 13.5752C10.2661 13.5924 10.1797 13.5392 10.1539 13.4529L9.87744 12.5212C9.85034 12.43 9.90214 12.3342 9.99324 12.307C10.0003 12.3049 10.0079 12.3029 10.0152 12.3017Z" fill="#FECA00"/>
</g>
</g>
</svg>
