<svg width="40" height="28" viewBox="0 0 40 28" fill="none" xmlns="http://www.w3.org/2000/svg">
<rect y="15.5344" width="39.9916" height="4.20964" rx="2" fill="url(#paint0_linear_703_4396)"/>
<rect x="0.300293" y="15.8352" width="39.3902" height="3.60827" rx="1.80413" fill="#FF99F5"/>
<circle cx="32.3238" cy="8.16757" r="7.66757" fill="#4F378A"/>
<path d="M32.7236 3.63306C33.4771 3.70258 34.0729 3.91583 34.5107 4.27759C35.0527 4.72101 35.3863 5.32141 35.5117 6.07837H34.0811C34.0139 5.72004 33.8162 5.42456 33.4893 5.19165C33.283 5.04191 33.028 4.93831 32.7236 4.88306V7.46313L33.8457 7.85181C34.4996 8.08023 34.9941 8.372 35.3301 8.72583C35.666 9.07968 35.834 9.54313 35.834 10.1165C35.8339 10.5329 35.7064 10.9297 35.4512 11.3059C35.2003 11.6819 34.8152 11.9909 34.2959 12.2327C33.8687 12.4315 33.3445 12.5469 32.7236 12.5823V13.7307H31.6826V12.5608C31.4088 12.5323 31.1419 12.4878 30.8828 12.4211C30.4349 12.3047 30.0359 12.1296 29.6865 11.8967C29.3373 11.6639 29.0619 11.3682 28.8604 11.01C28.6633 10.6517 28.5645 10.2277 28.5645 9.7395H29.9756C29.9756 10.1023 30.072 10.3988 30.2646 10.6272C30.4572 10.851 30.7327 11.0168 31.0908 11.1243C31.2705 11.1759 31.468 11.2137 31.6826 11.2395V8.46899L31.0771 8.26196C30.3293 8.01116 29.7536 7.71323 29.3506 7.36841C28.9522 7.01915 28.753 6.54211 28.7529 5.93774C28.7529 5.24816 29.044 4.688 29.626 4.25806C30.1215 3.88829 30.8075 3.67738 31.6826 3.62231V2.60474H32.7236V3.63306ZM32.7236 11.2629C32.9902 11.2407 33.2189 11.1935 33.4092 11.1174C33.6822 11.0055 33.8838 10.86 34.0137 10.6809C34.148 10.4973 34.2148 10.2973 34.2148 10.0823C34.2148 9.80473 34.123 9.56735 33.9395 9.37036C33.7603 9.1689 33.5004 9.01021 33.1602 8.8938L32.7236 8.73169V11.2629ZM31.6826 4.85962C31.2991 4.90281 30.9943 5.00402 30.7686 5.16431C30.464 5.3793 30.3115 5.65553 30.3115 5.99146C30.3116 6.24208 30.3878 6.44611 30.54 6.60278C30.6968 6.75949 30.9435 6.89554 31.2793 7.01196L31.6826 7.17407V4.85962Z" fill="white"/>
<circle cx="8.26913" cy="8.16757" r="7.66757" fill="#4F378A"/>
<path d="M8.66895 3.63306C9.42235 3.70261 10.0183 3.91579 10.4561 4.27759C10.998 4.72101 11.3316 5.32144 11.457 6.07837H10.0264C9.95919 5.72007 9.7615 5.42455 9.43457 5.19165C9.22829 5.04189 8.97327 4.93834 8.66895 4.88306V7.46313L9.79102 7.85181C10.4447 8.08016 10.9395 8.37119 11.2754 8.72485C11.6113 9.0787 11.7793 9.54313 11.7793 10.1165C11.7792 10.5328 11.6516 10.9289 11.3965 11.3049C11.1457 11.6812 10.7607 11.9908 10.2412 12.2327C9.81411 12.4315 9.28976 12.5459 8.66895 12.5813V13.7307H7.62695V12.5598C7.35343 12.5313 7.08698 12.4868 6.82812 12.4202C6.38022 12.3037 5.9812 12.1296 5.63184 11.8967C5.28258 11.6639 5.00721 11.3682 4.80566 11.01C4.60859 10.6517 4.50977 10.2277 4.50977 9.7395H5.9209C5.9209 10.1022 6.01745 10.3978 6.20996 10.6262C6.40256 10.8502 6.67781 11.0168 7.03613 11.1243C7.2156 11.1759 7.41265 11.2138 7.62695 11.2395V8.46899L7.02246 8.26196C6.27457 8.01116 5.69898 7.71325 5.2959 7.36841C4.89726 7.01904 4.69824 6.54144 4.69824 5.93677C4.69832 5.24712 4.98909 4.68701 5.57129 4.25708C6.06672 3.88742 6.75215 3.67648 7.62695 3.62134V2.60474H8.66895V3.63306ZM8.66895 11.262C8.93539 11.2397 9.16431 11.1935 9.35449 11.1174C9.62761 11.0055 9.82912 10.859 9.95898 10.6799C10.0932 10.4964 10.1602 10.2971 10.1602 10.0823C10.1601 9.80464 10.0684 9.5674 9.88477 9.37036C9.7056 9.1688 9.44588 9.00928 9.10547 8.89282L8.66895 8.73169V11.262ZM7.62695 4.85962C7.24387 4.90286 6.93948 5.00415 6.71387 5.16431C6.40939 5.37923 6.25693 5.6547 6.25684 5.99048C6.25684 6.24122 6.33316 6.44506 6.48535 6.60181C6.64212 6.75857 6.88868 6.89551 7.22461 7.01196L7.62695 7.17407V4.85962Z" fill="white"/>
<path d="M19.4459 19.705C19.8069 19.2601 20.4859 19.2601 20.8469 19.705L25.7238 25.7154C26.2022 26.305 25.7826 27.1859 25.0233 27.1859H15.2695C14.5102 27.1859 14.0906 26.305 14.569 25.7154L19.4459 19.705Z" fill="#4F378A"/>
<defs>
<linearGradient id="paint0_linear_703_4396" x1="19.6029" y1="15.4375" x2="19.6304" y2="19.8357" gradientUnits="userSpaceOnUse">
<stop stop-color="#FF00E5" stop-opacity="0.4"/>
<stop offset="1" stop-color="white"/>
</linearGradient>
</defs>
</svg>
