<svg width="32" height="33" viewBox="0 0 32 33" fill="none" xmlns="http://www.w3.org/2000/svg">
<mask id="mask0_127_5592" style="mask-type:alpha" maskUnits="userSpaceOnUse" x="0" y="0" width="32" height="33">
<circle cx="16" cy="16.5" r="16" fill="#D9D9D9"/>
</mask>
<g mask="url(#mask0_127_5592)">
<path fill-rule="evenodd" clip-rule="evenodd" d="M0 0.5V32.5H42.6667V0.5H0Z" fill="#F7FCFF"/>
<mask id="mask1_127_5592" style="mask-type:luminance" maskUnits="userSpaceOnUse" x="0" y="0" width="43" height="33">
<path fill-rule="evenodd" clip-rule="evenodd" d="M0 0.5V32.5H42.6667V0.5H0Z" fill="white"/>
</mask>
<g mask="url(#mask1_127_5592)">
<path fill-rule="evenodd" clip-rule="evenodd" d="M0 0.5V16.5H42.6667V0.5H0Z" fill="#E31D1C"/>
<path d="M5.13477 8.99854C5.13477 3.3782 9.99279 2.96288 11.8242 3.42627C11.7818 3.4429 8.05664 4.91646 8.05664 8.99854C8.05691 13.0782 11.7782 14.6 11.8242 14.6187C9.91957 15.6784 5.13502 14.6186 5.13477 8.99854ZM14.3867 11.6626H15.6025L14.7051 12.6665L14.9756 13.9399L13.8711 13.2876L12.79 13.9399L13.0361 12.6665L12.1367 11.7144L13.3555 11.6626L13.8711 10.4731L14.3867 11.6626ZM18.3145 11.5894H19.5312L18.6338 12.5942L18.9043 13.8677L17.7988 13.2153L16.7188 13.8677L16.9648 12.5942L16.0645 11.6411L17.2832 11.5894L17.7988 10.4009L18.3145 11.5894ZM13.0088 8.50439H14.2256L13.3271 9.50928L13.5977 10.7827L12.4932 10.1294L11.4121 10.7827L11.6582 9.50928L10.7588 8.55615L11.9775 8.50439L12.4932 7.31592L13.0088 8.50439ZM20.1533 8.44678H21.3701L20.4717 9.45166L20.7422 10.7241L19.6377 10.0718L18.5566 10.7241L18.8027 9.45166L17.9033 8.49854L19.1221 8.44678L19.6377 7.2583L20.1533 8.44678ZM16.6465 5.91553H17.8623L16.9648 6.92041L17.2354 8.19287L16.1309 7.54053L15.0498 8.19287L15.2959 6.92041L14.3965 5.96729L15.6152 5.91553L16.1309 4.72705L16.6465 5.91553Z" fill="#F1F9FF"/>
</g>
</g>
</svg>
