<svg width="50" height="50" viewBox="0 0 50 50" fill="none" xmlns="http://www.w3.org/2000/svg">
<path d="M28.9157 15.334L38.6494 15.3335C40.5281 15.3377 42.1881 16.5187 42.388 18.4811C42.4462 19.0524 42.4068 19.6631 42.407 20.2381L42.3966 31.1642C42.3448 32.2868 41.7829 33.3813 40.7873 33.9455C39.6828 34.5713 38.3264 34.4083 37.108 34.4081L11.905 34.4095C11.3335 34.4096 10.6842 34.4735 10.1322 34.3235C8.73949 33.9445 7.83183 32.7239 7.68398 31.3174C7.63458 30.8475 7.67124 30.3384 7.67201 29.8648L7.67158 19.8074C7.67148 19.1328 7.62333 18.464 7.80877 17.8082C8.20183 16.4182 9.49668 15.5117 10.8889 15.3517C11.2454 15.3108 11.6203 15.3323 11.9796 15.3324L20.2083 15.3341L28.9157 15.334Z" fill="url(#paint0_linear_125_5343)"/>
<path d="M11.219 16.1973L37.8371 16.1973C39.5147 16.1986 41.0249 16.2774 41.4639 18.2603C41.5353 18.5828 41.5131 18.9191 41.5134 19.2478L41.5208 25.2397C41.5221 25.5176 41.5799 25.7877 41.5834 26.0613L41.5839 29.4706C41.5908 31.2799 41.6888 33.1137 39.5146 33.5894L38.7901 33.6812L12.6065 33.678C10.6008 33.6784 8.60268 33.5427 8.50807 31.0477L8.50635 18.9862C8.52268 17.2986 9.50752 16.2861 11.219 16.1973Z" fill="#FFD6FA"/>
<path d="M36.0259 21.1041L36.0797 21.1012C37.9077 21.0384 39.4609 22.8279 39.5017 24.5794C39.5479 26.57 38.0741 28.2533 36.0468 28.2997C35.1795 28.2918 34.3624 28.0088 33.7035 27.4345C31.2616 25.3064 32.7742 21.3037 36.0259 21.1041Z" fill="#4F378A"/>
<path d="M13.8981 21.104C16.7934 20.9842 18.7258 24.5592 16.8861 26.8959C16.2192 27.7429 15.3713 28.1718 14.3129 28.2924C9.54552 28.3838 9.37388 21.4433 13.8981 21.104Z" fill="#4F378A"/>
<path d="M24.8225 18.8338C28.0183 18.7308 30.7787 21.0986 30.9727 24.3333C31.1714 27.6441 28.6356 30.3448 25.3479 30.5407C22.1947 30.6776 19.286 28.3047 19.1083 25.1023C18.921 21.7285 21.4887 19.0171 24.8225 18.8338Z" fill="#4F378A"/>
<path d="M24.8527 20.2926C25.4855 20.2665 25.6397 20.7015 25.6246 21.2261C27.5982 22.0179 27.2693 24.0096 26.2108 23.739C25.8234 23.64 25.9422 22.6154 25.3198 22.4925C24.4576 22.3224 23.724 23.0072 24.2892 23.7086C24.5769 24.0657 25.2265 23.9533 25.634 24.0111L25.6715 24.0166C27.402 24.2563 27.7962 26.971 25.8371 27.7453L25.8045 27.758C25.814 28.144 25.7985 28.4311 25.427 28.623C24.4851 28.8745 24.5472 28.3764 24.3889 27.8362L24.3165 27.8267C24.0927 27.7993 23.8944 27.5972 23.7422 27.4407C23.1983 26.8818 22.7209 25.4415 23.8404 25.5385C24.2555 25.5745 24.2 26.106 24.4389 26.3842C25.1604 27.2243 26.525 26.0539 25.7143 25.3777L25.6857 25.3543C25.4865 25.1836 24.6739 25.2677 24.3659 25.2183C22.434 24.9087 22.5251 21.8099 24.1621 21.3509C24.7926 21.1742 23.9936 20.484 24.8527 20.2926Z" fill="#FFD6FA"/>
<defs>
<linearGradient id="paint0_linear_125_5343" x1="24.6975" y1="14.8868" x2="25.3467" y2="34.8229" gradientUnits="userSpaceOnUse">
<stop stop-color="#FF00E5"/>
<stop offset="1" stop-color="#FFD6FA"/>
</linearGradient>
</defs>
</svg>
