<svg width="51" height="51" viewBox="0 0 51 51" fill="none" xmlns="http://www.w3.org/2000/svg">
<path d="M25.8913 24.9773C25.621 23.1875 26.843 23.032 28.2309 22.8092L35.2352 21.6867C37.7104 21.3593 37.9264 22.3314 39.6021 23.9903L40.8376 25.2073C41.5082 25.8639 42.3908 26.6726 41.5892 27.6635C41.1089 28.2573 40.3847 28.2342 39.6897 28.3265L37.4818 28.6128C37.3299 28.6574 37.1415 28.6689 36.9837 28.6925L31.8286 29.3824C29.935 29.634 29.3018 29.9342 28.0722 28.1173L26.268 25.5378C26.1426 25.3635 26.045 25.1512 25.9049 24.9921L25.8913 24.9773Z" fill="#4F378A"/>
<path d="M12.9598 28.6477L10.9245 28.3673C10.2301 28.2772 9.34187 28.3249 8.86929 27.706C7.96439 26.5214 9.14585 25.6967 9.8503 24.9647L11.7831 22.9665C13.2954 21.4731 13.7559 21.4863 15.7513 21.7945L22.7922 22.8901C23.9738 23.0876 24.7835 23.5232 24.5751 24.866C24.3984 25.2547 24.1459 25.5702 23.8901 25.9082L22.2402 28.2463C21.8727 28.747 21.5355 29.2292 20.9259 29.4533L20.6223 29.5361C20.2861 29.6107 19.8142 29.567 19.4741 29.5097L12.9598 28.6477Z" fill="#4F378A"/>
<path d="M25.1013 5.29026C25.2307 5.26726 25.4141 5.26971 25.5419 5.29744L25.5785 5.30605C26.1697 5.44002 26.4707 5.89414 26.8728 6.29309L29.5397 8.96169C30.2357 9.64419 31.0457 10.3381 30.4986 11.4052C30.3369 11.7204 29.9986 12.0563 29.6546 12.1648L29.6209 12.1749C29.4804 12.2184 29.3368 12.2188 29.1918 12.2351C28.0182 12.3668 28.3211 13.8663 28.321 14.6845L28.3207 17.7872C28.3204 18.8143 28.4357 19.6419 27.6862 20.4536C27.0651 21.1263 26.2936 21.2275 25.4243 21.2659C23.7298 21.3034 22.1232 20.8436 22.1181 18.8795L22.1139 13.4629C22.1132 13.2244 22.1211 12.9853 22.0832 12.7491C21.8058 12.42 21.6353 12.2925 21.2157 12.2688C19.9767 12.1988 19.3734 10.7801 20.0994 9.82325C20.2965 9.56348 20.5447 9.33684 20.7745 9.10622L23.4347 6.42305C23.9404 5.92091 24.3544 5.39386 25.1013 5.29026Z" fill="#4F378A"/>
<path d="M24.5752 24.866L24.5833 24.8932C24.7219 25.3782 24.6897 25.936 24.6894 26.4361L24.6878 38.946C24.6883 39.3195 24.6478 39.7589 24.7191 40.1235C24.829 40.6846 25.3077 40.965 25.694 40.4803C25.7743 40.1638 25.7044 39.8099 25.7008 39.4838L25.7007 30.8857L25.764 26.1115C25.7682 25.8658 25.7653 25.6157 25.8254 25.3762L25.8915 24.9772L25.9051 24.9921C26.0451 25.1511 26.1428 25.3635 26.2682 25.5377L28.0724 28.1172C29.3019 29.9342 29.9351 29.6339 31.8287 29.3823L36.9839 28.6925C37.1417 28.6689 37.3301 28.6573 37.482 28.6128L37.4937 36.547C37.4931 37.657 37.4545 38.4292 36.6012 39.2859L36.3573 39.5109C35.5818 40.1344 34.555 40.2123 33.6033 40.3066L28.6591 40.9335C27.3079 41.1285 25.9683 41.4362 24.5954 41.2957L17.1069 40.2945C16.1233 40.2023 15.0642 40.1754 14.226 39.5877L14.1858 39.5599C12.8621 38.6319 12.9512 37.3672 12.9501 35.9671L12.9548 28.6477L19.4741 29.5097C19.8143 29.567 20.2862 29.6107 20.6223 29.5361L20.9259 29.4533C21.5356 29.2292 21.8727 28.747 22.2403 28.2463L23.8901 25.9082C24.146 25.5702 24.3984 25.2547 24.5752 24.866Z" fill="#FF99F5"/>
</svg>
