<svg width="132" height="45" viewBox="0 0 132 45" fill="none" xmlns="http://www.w3.org/2000/svg">
<path d="M4.36598 0.112295C5.14456 0.112295 5.76219 0.31817 6.21885 0.72992C6.68301 1.14167 6.91508 1.71063 6.91508 2.43681C6.91508 3.1555 6.68301 3.72072 6.21885 4.13247C5.76219 4.54422 5.14456 4.75009 4.36598 4.75009H2.79384V7.52379H1.58105V0.112295H4.36598ZM4.18631 3.73944C4.68041 3.73944 5.04724 3.63088 5.2868 3.41378C5.53385 3.18919 5.65738 2.86353 5.65738 2.43681C5.65738 2.0026 5.53385 1.67694 5.2868 1.45984C5.04724 1.23525 4.68041 1.12295 4.18631 1.12295H2.79384V3.73944H4.18631Z" fill="white"/>
<path d="M11.4665 0C12.1702 0 12.7766 0.15347 13.2857 0.460411C13.7947 0.767352 14.1878 1.2053 14.4648 1.77427C14.7417 2.34323 14.8802 3.02449 14.8802 3.81804C14.8802 4.60411 14.7417 5.28537 14.4648 5.86182C14.1878 6.43078 13.7947 6.86873 13.2857 7.17567C12.7766 7.48261 12.1702 7.63608 11.4665 7.63608C10.7627 7.63608 10.1564 7.48261 9.64728 7.17567C9.13821 6.86873 8.74518 6.43078 8.46818 5.86182C8.19119 5.28537 8.05269 4.60411 8.05269 3.81804C8.05269 3.02449 8.19119 2.34323 8.46818 1.77427C8.74518 1.2053 9.13821 0.767352 9.64728 0.460411C10.1564 0.15347 10.7627 0 11.4665 0ZM11.4665 1.03312C11.0173 1.03312 10.6317 1.14541 10.3098 1.37C9.98791 1.58711 9.74086 1.90153 9.56868 2.31328C9.39649 2.72503 9.3104 3.22662 9.3104 3.81804C9.3104 4.40198 9.39649 4.90356 9.56868 5.3228C9.74086 5.73455 9.98791 6.05272 10.3098 6.27731C10.6317 6.49441 11.0173 6.60297 11.4665 6.60297C11.9156 6.60297 12.2975 6.49441 12.6119 6.27731C12.9338 6.05272 13.1808 5.73455 13.353 5.3228C13.5327 4.90356 13.6225 4.40198 13.6225 3.81804C13.6225 3.22662 13.5327 2.72503 13.353 2.31328C13.1808 1.90153 12.9338 1.58711 12.6119 1.37C12.2975 1.14541 11.9156 1.03312 11.4665 1.03312Z" fill="white"/>
<path d="M17.8872 7.52379L15.7311 0.112295H17.0225L18.6396 6.47944L20.223 0.112295H21.447L23.0416 6.49067L24.6474 0.112295H25.8826L23.7378 7.52379H22.3341L21.1887 3.09935L20.8294 1.38123H20.8069L20.4476 3.09935L19.3134 7.52379H17.8872Z" fill="white"/>
<path d="M27.2423 7.52379V0.112295H32.4528V1.13418H28.4551V3.27902H31.5994V4.27845H28.4551V6.5019H32.61V7.52379H27.2423Z" fill="white"/>
<path d="M37.1269 0.112295C37.9055 0.112295 38.5194 0.310684 38.9686 0.70746C39.4252 1.09675 39.6536 1.62828 39.6536 2.30205C39.6536 2.76621 39.5488 3.1555 39.3391 3.46993C39.137 3.78435 38.845 4.02766 38.4632 4.19985C38.0814 4.37203 37.636 4.47684 37.1269 4.51427L37.0146 4.55919H35.3527V7.52379H34.1511V0.112295H37.1269ZM37.0146 3.57099C37.4638 3.57099 37.8044 3.47367 38.0365 3.27902C38.2761 3.07689 38.3959 2.76621 38.3959 2.34697C38.3959 1.92025 38.2761 1.60957 38.0365 1.41492C37.797 1.22028 37.4563 1.12295 37.0146 1.12295H35.3527V3.57099H37.0146ZM37.7445 3.81804L40.0691 7.52379H38.6766L36.7114 4.26722L37.7445 3.81804Z" fill="white"/>
<path d="M41.4985 7.52379V0.112295H46.709V1.13418H42.7113V3.27902H45.8556V4.27845H42.7113V6.5019H46.8663V7.52379H41.4985Z" fill="white"/>
<path d="M51.0014 0.112295C52.1318 0.112295 53.0077 0.434209 53.6291 1.07804C54.2504 1.71438 54.5611 2.62397 54.5611 3.80681C54.5611 5.00463 54.2504 5.92545 53.6291 6.56928C53.0077 7.20562 52.1318 7.52379 51.0014 7.52379H48.4073V0.112295H51.0014ZM50.9789 6.51313C51.7051 6.51313 52.2703 6.28854 52.6746 5.83936C53.0863 5.38269 53.2922 4.70518 53.2922 3.80681C53.2922 3.2079 53.1986 2.71006 53.0114 2.31328C52.8318 1.91651 52.566 1.6208 52.2142 1.42615C51.8698 1.22402 51.458 1.12295 50.9789 1.12295H49.6201V6.51313H50.9789Z" fill="white"/>
<path d="M59.8452 7.52379V0.112295H62.7537C63.5996 0.112295 64.221 0.291968 64.6178 0.651313C65.0221 1.00317 65.2242 1.49353 65.2242 2.12238C65.2242 2.50419 65.1156 2.8523 64.8985 3.16673C64.6814 3.48116 64.3483 3.67954 63.8991 3.76189V3.77312C64.3782 3.84799 64.7488 4.04638 65.0108 4.36829C65.2728 4.6902 65.4039 5.06452 65.4039 5.49124C65.4039 6.1201 65.183 6.61794 64.7413 6.98477C64.2996 7.34412 63.6595 7.52379 62.8211 7.52379H59.8452ZM61.0356 6.54682H62.7986C63.2403 6.54682 63.5734 6.4495 63.798 6.25485C64.0226 6.06021 64.1349 5.78321 64.1349 5.42387C64.1349 5.05703 64.0226 4.78004 63.798 4.59288C63.5734 4.39823 63.2403 4.30091 62.7986 4.30091H61.0356V6.54682ZM61.0356 3.31271H62.6189C63.0681 3.31271 63.4013 3.22288 63.6184 3.0432C63.8429 2.85605 63.9552 2.57905 63.9552 2.21222C63.9552 1.84539 63.8429 1.57213 63.6184 1.39246C63.4013 1.2053 63.0681 1.11172 62.6189 1.11172H61.0356V3.31271Z" fill="white"/>
<path d="M72.2202 0.112295L69.6711 4.69395V7.52379H68.4583V4.69395L65.9092 0.112295H67.2455L68.4808 2.45927L69.0647 3.63837L69.6599 2.45927L70.8951 0.112295H72.2202Z" fill="white"/>
<path d="M74.5693 31.7726H73.1431L71.4026 28.9203L69.662 31.7726H68.2695L70.7513 28.0107L68.4604 24.3611H69.8866L71.5036 27.0674L73.1207 24.3611H74.457L72.155 27.9658L74.5693 31.7726Z" fill="white"/>
<path fill-rule="evenodd" clip-rule="evenodd" d="M0.400391 32.0649L4.71331 24.1991C4.71331 24.1991 4.04392 23.7872 3.66776 23.4562C3.33303 23.1616 3.15745 22.9781 2.88359 22.6259C2.58747 22.2451 2.43683 22.0133 2.23012 21.5771C2.05914 21.2163 1.98688 21.001 1.8816 20.6157C1.73594 20.0827 1.7198 19.7672 1.66377 19.2174C1.55652 18.1648 1.56549 17.5615 1.66377 16.508C1.72632 15.8376 1.73564 15.4497 1.92516 14.8038C2.07591 14.2899 2.1857 14.003 2.44794 13.5365C2.83953 12.8398 3.15209 12.4866 3.75489 11.9633C4.24729 11.5358 5.14896 11.0456 5.14896 11.0456L6.28165 10.5649H56.6862L61.1298 18.6056V18.7367H60.0843L60.2585 24.9419L60.1278 27.3891L59.5615 28.8749L58.4288 30.3169L62.0447 30.2295L62.8724 30.3169V30.4043L55.2486 37.1777L55.1179 37.3962L55.4664 37.7021L58.7338 40.9795L59.4308 41.6787L60.8249 43.0771L61.1734 43.4267L61.5219 43.7762L62.611 44.9998H55.0743H55.0307H54.9001L49.803 39.9307L47.9732 39.9744L48.0168 44.9998H47.7554H47.7118H47.6247H47.5376H47.4069H47.3198H47.2326H47.1019H47.0584H46.7534H46.7099H46.2306H46.1435H46.0564H45.9692H45.6643H45.6207H45.4465H45.4029H45.3158H45.2722H44.0524H43.9217H43.4861H43.4425H43.2682H43.2247H42.8761H42.8326H42.7454H42.6583H42.5712H42.5276H41.9613H41.9177H41.8306H41.787H41.6128H41.5692H41.4821H41.3949H41.3078H41.2207H41.09H41.0029H40.9157H40.8286H40.7415H40.6543H40.5672H40.4801H40.3494H40.3058H40.1316H40.088H40.0009H39.9137H39.783H39.7395H39.086H38.9989H38.8682H38.8246L27.8898 37.7895L27.8027 44.9561L1.70734 44.8687L1.7509 32.1523H0.400391V32.0649ZM3.84202 22.32H3.79845L3.92915 22.4511L4.01628 22.5385L4.05984 22.6259H4.14697H4.05984L4.84401 23.194H4.88757L5.19253 23.4125L6.93512 24.068H6.97869L8.89554 24.7671L5.27966 24.7234L1.79447 31.2346L2.57863 31.3657L2.53507 44.0384L2.75289 43.951L26.975 44.1258V36.26L28.4997 37.134L29.2403 37.6584L29.8067 38.0517L29.9809 38.1828L30.0245 38.0954V38.1828L30.1988 38.3139L30.2859 38.3576H30.3295L30.6344 38.5761L31.2443 38.9693L31.3314 39.0567H31.375V39.1004L31.68 39.2752L32.0285 39.4937H32.0721V39.5374L32.1592 39.5811L32.377 39.7559H32.4206L32.7255 39.9744L32.9869 40.1492H33.074V40.1929L33.9889 40.8047L34.1196 40.9358L34.2939 40.8921L34.2503 41.0232L34.6859 41.2417L34.8166 41.3291H34.8602L35.4265 41.7224L36.2543 42.2905L36.8206 42.6401L37.8226 43.2956L37.9533 43.383L38.8246 43.9947L38.9553 43.951L38.9989 44.1258L47.1891 44.1695L47.1455 39.1441L50.1079 39.1004L50.4564 39.4063L50.8485 39.7996L52.1119 41.0232L52.1555 40.9358V41.0232L52.5911 41.5039H52.6347V41.5476L52.8961 41.7661L53.2882 42.2031H53.3317L53.3753 42.2468L53.506 42.3779L53.6367 42.5527L53.8545 42.7275L55.2921 44.1695L55.4228 44.0821L60.6506 44.2132L53.8981 37.3525L60.7813 31.1909L55.8585 31.1472L57.9932 29.574L58.7773 28.569L59.213 27.6076L59.4308 26.6025L59.2565 17.9064H59.7793L56.1199 11.2641L33.2483 11.133L31.8107 11.3952V11.133L11.858 11.0019H8.37276L7.19651 11.1767C7.19651 11.1767 6.09552 11.4897 5.45392 11.8322C4.96659 12.0924 4.69553 12.2569 4.27766 12.6188C3.94066 12.9107 3.76001 13.0912 3.4935 13.4491C3.11553 13.9566 2.9517 14.2898 2.75289 14.8912C2.57328 15.4344 2.56076 15.7651 2.4915 16.3332C2.34697 17.519 2.30234 18.2127 2.4915 19.3922C2.60031 20.0705 2.64261 20.4715 2.92715 21.0964C3.08232 21.4372 3.16864 21.6377 3.40637 21.9267C3.5442 22.0942 3.79845 22.32 3.79845 22.32H3.84202ZM34.8602 25.4663L35.7315 25.7285L35.9058 25.6411L38.2147 25.8159H51.1535C51.1535 25.8159 51.6914 25.7379 52.0248 25.6411C52.2677 25.5706 52.4112 25.5415 52.6347 25.4226C52.9234 25.2691 53.1194 25.179 53.2882 24.8982C53.355 24.7869 53.3861 24.7181 53.4188 24.5923C53.4878 24.3277 53.3753 23.8932 53.3753 23.8932H45.8386L48.3218 19.1737H58.3852L58.5595 26.5588L58.211 27.7824L57.6446 28.7001L56.6426 29.6177L55.205 30.3169L53.9416 30.6228C53.9416 30.6228 42.0678 31.3189 34.5117 30.6228C33.6772 30.5459 33.1863 30.6225 32.377 30.4043C31.6047 30.1961 31.1613 30.0308 30.5037 29.574C29.9399 29.1824 29.6403 28.9094 29.2403 28.3505C29.0225 28.0461 28.9043 27.8663 28.7611 27.5202C28.5998 27.1302 28.5735 26.8871 28.4997 26.4714C28.3119 25.4129 28.4997 23.7184 28.4997 23.7184L28.2383 23.5873L27.2364 23.5436L27.1492 23.6747L27.367 24.2865L27.3235 24.5923L26.4522 24.4176L26.1472 24.1554L25.7987 23.5436H21.0066L21.4858 25.6848L28.1948 25.7722C28.1948 25.7722 28.2186 26.6413 28.369 27.1706C28.5069 27.6555 28.6228 27.9245 28.8918 28.3505C29.1693 28.7899 29.3661 29.021 29.7631 29.3555C30.0449 29.593 30.5473 29.8799 30.5473 29.8799L30.5037 30.011C30.5037 30.011 29.9866 30.2865 29.6324 30.4043C29.2365 30.536 28.5869 30.6228 28.5869 30.6228L3.23211 30.5354L5.88956 25.6411L17.26 25.5974L19.0897 25.7722L18.959 25.4226L17.7828 25.3352L17.3907 24.8982V24.1991L17.6085 23.8932L18.0442 23.7621L18.0006 23.4999L7.67572 23.4125L5.88956 22.9318L5.23609 22.5822L4.32123 21.7519C4.32123 21.7519 3.9293 21.2455 3.75489 20.8779C3.549 20.444 3.50684 20.1679 3.40637 19.698C3.14946 18.4966 3.2258 17.7728 3.3628 16.5517C3.42067 16.0359 3.41882 15.7337 3.58063 15.2407C3.71628 14.8275 3.82277 14.6 4.05984 14.2357C4.34947 13.7906 4.5668 13.5698 4.9747 13.2306C5.47347 12.8158 5.81644 12.6552 6.41234 12.4003C6.87262 12.2034 7.63216 12.007 7.63216 12.007L8.59059 11.8759H12.8164L31.9849 12.0944L32.0285 12.1818C32.0285 12.1818 31.0524 12.3966 30.5037 12.7062C29.9873 12.9976 29.718 13.2205 29.3275 13.6676C28.9448 14.1056 28.7869 14.4061 28.5433 14.9348C28.2247 15.6264 28.0205 16.8139 28.0205 16.8139L21.4422 16.7702L21.0501 18.9989L25.7116 19.0426L26.1908 18.4308L26.5829 18.1249L27.0185 17.9938L27.3235 18.2123L27.1492 18.9989L28.0205 18.9115L27.977 18.9989L29.7196 19.2174C29.7196 19.2174 30.4021 19.3815 30.8087 19.567C31.2257 19.7571 31.4508 19.8944 31.8107 20.1787C32.2836 20.5523 32.5353 20.804 32.8562 21.3149C33.1325 21.7547 33.379 22.5385 33.379 22.5385L33.5097 23.9806L33.9889 24.8545L34.2067 25.1167L34.8602 25.4663ZM58.6902 15.6777H58.7338V15.634H58.6902V15.6777ZM4.84401 23.2377H4.88757V23.194H4.84401V23.2377ZM5.14896 23.4562H5.19253V23.4125H5.14896V23.4562ZM4.19053 23.7621H4.2341V23.7184H4.19053V23.7621ZM6.93512 24.1117H6.97869V24.068H6.93512V24.1117ZM38.1711 40.1055L38.9117 40.6736L38.8682 32.0212L41.2642 31.9775L41.3078 43.3393L39.2167 43.2956L26.1037 34.6868V43.2956H23.7076V31.9338L25.7551 31.8901L26.3215 32.2834L27.1492 32.8515L27.4542 32.9389V33.07L28.4126 33.6818L29.7631 34.5557L29.9809 34.6868L30.8522 35.2986L30.9394 35.3423L30.9829 35.386H31.0265L31.3314 35.6045L31.375 35.6482V35.6045L32.4206 36.3037L33.074 36.7407L33.4226 37.0029H33.4661L33.9889 37.3525L34.8166 37.8769L35.5572 38.4013L36.8206 39.2315L37.6484 39.7559V39.7996H37.6919L37.8662 39.9307L38.1711 40.1055ZM28.369 37.134H28.4126V37.0903H28.369V37.134ZM28.4562 37.1777H28.4997V37.134H28.4562V37.1777ZM28.4997 37.2214H28.5433V37.1777H28.4997V37.2214ZM29.9809 38.2265H30.0245V38.1828H29.9809V38.2265ZM30.2859 38.4013H30.3295V38.3576H30.2859V38.4013ZM29.9374 39.1004H29.9809V39.0567H29.9374V39.1004ZM31.3314 39.1004H31.375V39.0567H31.3314V39.1004ZM32.0285 39.5374H32.0721V39.4937H32.0285V39.5374ZM32.377 39.7996H32.4206V39.7559H32.377V39.7996ZM57.5139 42.2031L58.5595 43.383H55.5971L50.5436 38.3576L46.3178 38.3139V43.383L43.791 43.3393L43.7474 32.0212L45.9257 31.9338L46.2742 32.0212L46.3613 36.5222L50.2386 36.6096H50.6307L55.4228 32.0649L57.1654 31.9775L58.4288 32.0649L52.6347 37.3088L53.201 37.7895L53.2882 37.8769L53.4624 38.0517L53.5495 38.1391L53.6367 38.2265L53.8981 38.5324L53.9852 38.5761L54.508 39.1004L54.5951 39.2315L54.8565 39.45L54.9436 39.5811L55.2921 39.9307L55.5535 40.1929L55.6406 40.2803L55.7278 40.3677L57.5139 42.2031ZM56.4248 39.7996H56.4684V39.7559H56.4248V39.7996ZM49.803 39.887H49.8465V39.8433H49.803V39.887ZM50.1515 40.1055H50.195V40.0618H50.1515V40.1055ZM50.1515 40.1055L50.0643 40.1492H50.1515V40.1055ZM33.074 40.1492H32.9869L33.074 40.1929V40.1492ZM50.1515 40.1929H50.195V40.1492H50.1515V40.1929ZM57.1219 40.4988H57.1654V40.4551H57.1219V40.4988ZM32.377 40.6736H32.4206V40.6299H32.377V40.6736ZM50.805 40.8484H50.8485V40.8047H50.805V40.8484ZM52.1119 41.0669H52.1555V41.0232H52.1119V41.0669ZM34.8166 41.3728H34.8602V41.3291H34.8166V41.3728ZM52.5911 41.5476H52.6347V41.5039H52.5911V41.5476ZM53.2882 42.2468H53.3317V42.2031H53.2882V42.2468ZM34.8166 42.2905H34.8602V42.2468H34.8166V42.2905ZM53.3317 42.2905H53.3753V42.2468H53.3317V42.2905ZM37.6048 43.9947H37.6484V43.951H37.6048V43.9947ZM37.6048 44.1258H37.6484V44.0821H37.6048V44.1258ZM54.8129 44.6939H54.8565V44.6502H54.8129V44.6939ZM47.7118 44.9998H47.7554V44.9561H47.7118V44.9998ZM55.0307 44.9998H55.0743V44.9561H55.0307V44.9998ZM55.4664 37.6584H55.51V37.7021H55.4664V37.6584ZM29.9809 38.1828L30.0245 38.0954V38.1828H29.9809ZM52.1119 41.0232L52.1555 40.9358V41.0232H52.1119ZM58.7338 40.9358H58.7773V40.9795H58.7338V40.9358ZM59.4308 41.635H59.4744V41.6787H59.4308V41.635ZM60.8249 43.0334H60.8684V43.0771H60.8249V43.0334ZM61.1734 43.383H61.217V43.4267H61.1734V43.383ZM8.02424 11.8759H8.06781V11.9196H8.02424V11.8759ZM57.9932 16.3769L58.2981 17.0761L39.0424 16.945L35.383 17.0324L34.2067 17.5568L33.6404 18.3434L33.4226 19.567V22.0141C33.4226 22.0141 33.0641 21.1253 32.682 20.6594C32.3138 20.2106 32.0447 19.9995 31.5493 19.698C31.1061 19.4284 30.8209 19.3386 30.3295 19.1737C29.6048 18.9305 28.4126 18.7804 28.4126 18.7804L28.2383 16.9013C28.2383 16.9013 28.3162 16.1685 28.4562 15.7214C28.5726 15.3494 28.6604 15.1451 28.8483 14.8038C29.049 14.439 29.1844 14.2431 29.4582 13.9298C29.7041 13.6483 29.8632 13.5073 30.1552 13.2743C30.8044 12.7561 31.2369 12.5183 32.0285 12.2692C32.4106 12.149 32.6346 12.111 33.0305 12.0507C33.6034 11.9635 34.5117 11.9633 34.5117 11.9633L53.2882 12.0944L55.51 12.1381L55.7713 12.3129L55.902 12.6188L56.4248 13.5365L56.904 14.4105L57.2526 14.9785V15.0659L57.9932 16.3769ZM13.3827 21.883L14.2105 22.0141L16.6937 21.9267L17.7392 22.1015L18.0877 22.5822L18.5669 23.8495L18.4362 24.068L17.7828 24.3302V24.7234L17.9135 24.8982H18.7412L19.264 25.073L19.961 26.2966L20.9194 28.2194L21.3987 28.7875L21.7036 28.8312L20.3095 22.32L20.3531 22.0578L22.7056 22.0141L24.8403 21.7956L25.1888 22.0141L25.7551 22.8007L26.5829 24.0243L26.8878 24.1554L26.3215 21.9704L26.5829 21.5771L27.2364 21.3586L26.5393 21.0527L26.3215 20.7905L26.8443 18.5182L26.2779 18.9552L25.4502 20.2224L24.8403 20.7905L20.3095 20.4409L21.66 13.7113L21.268 13.755L20.9194 14.1483L19.2204 17.4694L17.7828 17.7316V18.256L18.3491 18.4308L18.5234 18.8678L17.6085 20.5283L13.4263 20.572L12.5114 20.9216L12.2936 21.2712L12.4243 21.4023L13.3827 21.883ZM12.4243 18.9989L17.0857 18.8678L18.0006 18.9989L18.0442 18.8241L17.7392 18.7804L17.4343 18.5182L17.3907 17.6005L17.565 17.3383L17.8699 17.2072L18.9155 17.1635L19.1333 16.8576L19.0897 16.7265L11.7708 16.6828H8.3292L8.37276 18.8241L12.4243 18.9989ZM8.3292 18.8678H8.37276V18.8241H8.3292V18.8678ZM20.5274 20.2661H20.5709V20.2224H20.5274V20.2661ZM15.0382 20.3098H15.0818V20.2661H15.0382V20.3098ZM24.0561 20.5283H24.0997V20.4846H24.0561V20.5283ZM26.7136 20.9216H26.7571V20.8779H26.7136V20.9216ZM4.49549 21.6645H4.53905V21.6208H4.49549V21.6645ZM4.71331 22.0141H4.75688V21.9704H4.71331V22.0141ZM5.7153 22.6696H5.75887V22.6259H5.7153V22.6696ZM5.93313 22.7133H5.97669V22.6696H5.93313V22.7133ZM6.93512 23.0629H6.97869V23.0192H6.93512V23.0629ZM34.1632 25.1604H34.2067V25.1167H34.1632V25.1604ZM30.9829 29.6614H31.0265V29.6177H30.9829V29.6614ZM30.8958 29.7051H30.9394V29.6614H30.8958V29.7051ZM54.0287 30.4043H54.0723V30.3606H54.0287V30.4043ZM57.0783 12.881H57.1219V12.8373H57.0783V12.881ZM56.3813 13.5802H56.4248V13.5365H56.3813V13.5802ZM55.902 12.5751H55.9456V12.6188H55.902V12.5751ZM56.8605 14.2357H56.904V14.2794H56.8605V14.2357ZM57.9932 16.3332H58.0367V16.3769H57.9932V16.3332ZM3.79845 22.2763H3.84202V22.32H3.79845V22.2763ZM3.84202 22.32H3.88558V22.3637H3.84202V22.32ZM3.92915 22.4074H3.97271V22.4511H3.92915V22.4074ZM4.01628 22.4948H4.05984V22.5385H4.01628V22.4948ZM4.14697 22.6259H4.19053V22.6696H4.14697V22.6259ZM4.75688 23.1066H4.80044V23.1503H4.75688V23.1066ZM4.84401 23.1503H4.88757V23.194H4.84401V23.1503ZM5.23609 23.3251H5.27966V23.3688H5.23609V23.3251ZM6.93512 24.0243H6.97869V24.068H6.93512V24.0243ZM7.28364 24.1117H7.32721V24.1554H7.28364V24.1117ZM33.9889 24.8108H34.0325V24.8545H33.9889V24.8108ZM5.19253 31.759L5.97669 31.8464V41.4165L9.37475 41.5476L16.4323 41.5039L16.7372 41.635V41.9846L16.6937 43.2956L3.40637 43.2519V31.8901L5.19253 31.759ZM19.8739 31.8464L21.2244 31.9338V42.9897L21.1808 43.2956L18.6541 43.2519V31.9775L19.8739 31.8464ZM28.1948 37.0466H28.2383V37.0029H28.1948V37.0466ZM29.7196 34.5994H29.7631V34.5557H29.7196V34.5994ZM26.4522 34.6868H26.4958V34.6431H26.4522V34.6868ZM29.9374 34.7305H29.9809V34.6868H29.9374V34.7305ZM27.4977 35.2986H27.5413V35.2549H27.4977V35.2986ZM30.9829 35.4297H31.0265V35.386H30.9829V35.4297ZM27.8463 35.6482H27.8898V35.6045H27.8463V35.6482ZM27.9334 35.6482H27.977V35.6045H27.9334V35.6482ZM31.375 35.6919H31.4186V35.6482H31.375V35.6919ZM31.5493 35.823H31.5928V35.7793H31.5493V35.823ZM28.3255 35.9978H28.369V35.9541H28.3255V35.9978ZM28.7611 36.3037H28.8047V36.26H28.7611V36.3037ZM28.8918 36.3037H28.9354V36.26H28.8918V36.3037ZM32.377 36.3474H32.4206V36.3037H32.377V36.3474ZM33.4226 37.0466H33.4661V37.0029H33.4226V37.0466ZM30.5473 37.3962H30.5908V37.3525H30.5473V37.3962ZM33.9453 37.3962H33.9889V37.3525H33.9453V37.3962ZM30.5473 37.5273H30.5908V37.4836H30.5473V37.5273ZM34.7731 37.9206H34.8166V37.8769H34.7731V37.9206ZM31.3314 37.9643H31.375V37.9206H31.3314V37.9643ZM31.5057 38.0954H31.5493V38.0517H31.5057V38.0954ZM34.9909 38.0954H35.0345V38.0517H34.9909V38.0954ZM35.5137 38.445H35.5572V38.4013H35.5137V38.445ZM32.7255 38.7945H32.7691V38.7508H32.7255V38.7945ZM32.7255 38.9256H32.7691V38.8819H32.7255V38.9256ZM36.7771 39.2752H36.8206V39.2315H36.7771V39.2752ZM33.7711 39.4937H33.8146V39.45H33.7711V39.4937ZM37.6048 39.7996H37.6484V39.7559H37.6048V39.7996ZM34.1632 39.8433H34.2067V39.7996H34.1632V39.8433ZM37.6484 39.8433H37.6919V39.7996H37.6484V39.8433ZM37.8226 39.9744H37.8662V39.9307H37.8226V39.9744ZM34.381 40.0181H34.4246V39.9744H34.381V40.0181ZM34.8166 40.1492H34.8602V40.1055H34.8166V40.1492ZM38.1276 40.1492H38.1711V40.1055H38.1276V40.1492ZM34.7295 40.1929H34.7731V40.1492H34.7295V40.1929ZM35.5137 40.4988H35.5572V40.4551H35.5137V40.4988ZM35.1652 40.5425H35.2087V40.4988H35.1652V40.5425ZM35.5137 40.6299H35.5572V40.5862H35.5137V40.6299ZM36.9078 41.5913H36.9513V41.5476H36.9078V41.5913ZM37.082 41.7224H37.1256V41.6787H37.082V41.7224ZM37.6048 42.072H37.6484V42.0283H37.6048V42.072ZM37.9533 42.2468H37.9969V42.2031H37.9533V42.2468ZM38.5632 42.7712H38.6068V42.7275H38.5632V42.7712ZM49.7158 39.7996H49.7594V39.7559H49.7158V39.7996ZM53.1575 37.8332H53.201V37.7895H53.1575V37.8332ZM53.2446 37.9206H53.2882V37.8769H53.2446V37.9206ZM53.4188 38.0954H53.4624V38.0517H53.4188V38.0954ZM53.506 38.1828H53.5495V38.1391H53.506V38.1828ZM53.5931 38.2702H53.6367V38.2265H53.5931V38.2702ZM53.8545 38.5761H53.8981V38.5324H53.8545V38.5761ZM54.5515 39.2752H54.5951V39.2315H54.5515V39.2752ZM54.9001 39.6248H54.9436V39.5811H54.9001V39.6248ZM55.2486 39.9744H55.2921V39.9307H55.2486V39.9744ZM55.51 40.2366H55.5535V40.1929H55.51V40.2366ZM55.5971 40.324H55.6406V40.2803H55.5971V40.324ZM55.6842 40.4114H55.7278V40.3677H55.6842V40.4114ZM57.4704 42.2468H57.5139V42.2031H57.4704V42.2468ZM27.1492 32.8078H27.1928V32.8515H27.1492V32.8078ZM30.8522 35.2549H30.8958V35.2986H30.8522V35.2549ZM30.9394 35.3423L31.0265 35.386H30.9829L30.9394 35.3423ZM31.3314 35.5608H31.375V35.6045H31.3314V35.5608ZM33.074 36.697H33.1176V36.7407H33.074V36.697ZM33.4226 36.9592H33.4661V37.0029H33.4226V36.9592ZM29.2403 37.6147H29.2839V37.6584H29.2403V37.6147ZM29.5889 37.8332H29.6324V37.8769H29.5889V37.8332ZM30.1988 38.2702H30.2423V38.3139H30.1988V38.2702ZM30.2859 38.3139H30.3295V38.3576H30.2859V38.3139ZM30.6344 38.5324H30.678V38.5761H30.6344V38.5324ZM30.9829 38.7508H31.0265V38.7945H30.9829V38.7508ZM31.0265 38.7945H31.0701V38.8382H31.0265V38.7945ZM31.2443 38.9256H31.2879V38.9693H31.2443V38.9256ZM31.3314 39.013H31.375V39.0567H31.3314V39.013ZM31.375 39.0567H31.4186V39.1004H31.375V39.0567ZM54.508 39.0567H54.5515V39.1004H54.508V39.0567ZM31.5057 39.1004H31.5493V39.1441H31.5057V39.1004ZM31.68 39.2315H31.7235V39.2752H31.68V39.2315ZM50.3693 39.2315H50.4129V39.2752H50.3693V39.2315ZM50.4564 39.3626H50.5V39.4063H50.4564V39.3626ZM54.8565 39.4063H54.9001V39.45H54.8565V39.4063ZM32.0285 39.45H32.0721V39.4937H32.0285V39.45ZM32.0721 39.4937H32.1156V39.5374H32.0721V39.4937ZM32.1592 39.5374H32.2027V39.5811H32.1592V39.5374ZM50.7178 39.5374H50.7614V39.5811H50.7178V39.5374ZM32.2463 39.5811H32.2899V39.6248H32.2463V39.5811ZM32.377 39.7122H32.4206V39.7559H32.377V39.7122ZM37.6484 39.7559H37.6919V39.7996H37.6484V39.7559ZM50.8485 39.7559H50.8921V39.7996H50.8485V39.7559ZM32.7255 39.9307H32.7691V39.9744H32.7255V39.9307ZM33.074 40.1492H33.1176V40.1929H33.074V40.1492ZM33.4226 40.3677H33.4661V40.4114H33.4226V40.3677ZM55.9456 40.5425H55.9892V40.5862H55.9456V40.5425ZM55.9892 40.5862H56.0327V40.6299H55.9892V40.5862ZM33.9889 40.761H34.0325V40.8047H33.9889V40.761ZM34.381 40.9795H34.4246V41.0232H34.381V40.9795ZM34.6859 41.198H34.7295V41.2417H34.6859V41.198ZM34.8166 41.2854H34.8602V41.3291H34.8166V41.2854ZM52.5911 41.4602H52.6347V41.5039H52.5911V41.4602ZM52.6347 41.5039H52.6782V41.5476H52.6347V41.5039ZM52.8089 41.635H52.8525V41.6787H52.8089V41.635ZM35.4265 41.6787H35.4701V41.7224H35.4265V41.6787ZM52.8961 41.7224H52.9396V41.7661H52.8961V41.7224ZM35.8622 41.9409H35.9058V41.9846H35.8622V41.9409ZM53.1575 41.9846H53.201V42.0283H53.1575V41.9846ZM53.2882 42.1594H53.3317V42.2031H53.2882V42.1594ZM53.3317 42.2031H53.3753V42.2468H53.3317V42.2031ZM36.2543 42.2468H36.2978V42.2905H36.2543V42.2468ZM53.506 42.3342H53.5495V42.3779H53.506V42.3342ZM53.6367 42.509H53.6802V42.5527H53.6367V42.509ZM36.8206 42.5964H36.8642V42.6401H36.8206V42.5964ZM36.9078 42.6401H36.9513V42.6838H36.9078V42.6401ZM53.8545 42.6838H53.8981V42.7275H53.8545V42.6838ZM54.203 42.9897H54.2466V43.0334H54.203V42.9897ZM37.5177 43.0334H37.5612V43.0771H37.5177V43.0334ZM37.8226 43.2519H37.8662V43.2956H37.8226V43.2519ZM37.9533 43.3393H37.9969V43.383H37.9533V43.3393ZM54.5515 43.3393H54.5951V43.383H54.5515V43.3393ZM54.9001 43.6888H54.9436V43.7325H54.9001V43.6888ZM2.70933 43.9073H2.75289V43.951H2.70933V43.9073ZM38.9989 43.9947H39.0424V44.0384H38.9989V43.9947ZM55.2486 43.9947H55.2921V44.0384H55.2486V43.9947ZM13.4699 21.7956H13.5134V21.8393H13.4699V21.7956ZM25.7551 22.757H25.7987V22.8007H25.7551V22.757ZM19.961 26.2529H20.0046V26.2966H19.961V26.2529ZM20.266 26.821H20.3095V26.8647H20.266V26.821Z" fill="white"/>
<path d="M126.092 17.061C133.495 24.681 132.266 33.1902 125.945 39.3322C119.777 45.3254 110.897 46.0238 103.801 38.7199L107.954 34.6849C112.747 39.6175 118.135 39.1147 122.044 35.3173C126.075 31.401 126.763 25.9993 121.97 21.0667C117.177 16.1342 111.79 16.698 107.759 20.6151L103.827 16.5683C110.147 10.4255 119.026 9.78895 126.092 17.061Z" fill="white"/>
<path d="M90.1965 17.7375L90.9535 15.5987H98.4464L95.2654 10.6553H87.8277H87.78C86.885 10.6553 86.0879 11.219 85.7893 12.0622L74.1719 44.8458H81.2047L83.0516 39.3061L90.5445 39.1873L91.1149 38.2672H91.13L93.2621 34.8286H84.5363L90.1965 17.7375Z" fill="white"/>
<path d="M102.627 12.5731C101.855 11.3837 100.535 10.666 99.1168 10.666H95.4356H94.0137L104.649 27.8324L94.0137 44.9996H99.1168C100.537 44.9996 101.861 44.2786 102.631 43.085L111.762 28.934C112.208 28.2423 112.207 27.3531 111.76 26.6631L102.627 12.5731Z" fill="white"/>
<path d="M106.502 26.4205L104.241 22.9325L100.624 17.3534V17.3542C100.623 17.3517 100.622 17.3501 100.621 17.3475L100.249 16.7746L97.5258 12.5731C96.7546 11.3837 95.4339 10.666 94.0161 10.666H90.3341H88.9121L99.5475 27.8324L88.9121 44.9996H94.0153C94.1817 44.9996 94.3473 44.9888 94.5113 44.9695C95.2281 44.8758 96.5748 44.5078 97.53 43.085L106.554 29.0988L106.661 28.934C106.707 28.8621 106.748 28.7876 106.784 28.7115C106.984 28.2607 107.149 27.4443 106.502 26.4205Z" fill="white"/>
</svg>
