<svg width="162" height="75" viewBox="0 0 162 75" fill="none" xmlns="http://www.w3.org/2000/svg">
<path d="M142.913 55.198H155.785H162V64.724V74.25L142.913 55.198Z" fill="#FF00E5"/>
<path d="M162 19.052H143.137L162 0V19.052Z" fill="#FF00E5"/>
<path fill-rule="evenodd" clip-rule="evenodd" d="M162 19.052L143.995 37.125L139.236 41.9013L134.478 46.6776L125.076 37.1813L107.126 19.052H125.989L134.563 27.6582L143.137 19.052H162Z" fill="#FF00E5"/>
<path d="M107.126 55.198L122.981 39.2833L132.384 48.7796L125.989 55.198H107.126Z" fill="#1A1A1A"/>
<path fill-rule="evenodd" clip-rule="evenodd" d="M155.785 55.198H142.913L134.478 46.6776L139.236 41.9013L146.851 41.503L155.785 55.198Z" fill="#FF00E5"/>
<path fill-rule="evenodd" clip-rule="evenodd" d="M143.995 37.125L139.236 41.9013L146.851 41.503L143.995 37.125Z" fill="#99008A"/>
<path d="M15.1744 22.0457C18.0881 22.0457 20.6745 22.5081 22.9334 23.4328C25.2252 24.3575 27.2058 25.7446 28.8755 27.594L24.8487 33.0927C23.4409 31.6066 21.9349 30.5002 20.3307 29.7737C18.7593 29.0141 16.9914 28.6343 15.0271 28.6343C13.8812 28.6343 12.9481 28.7664 12.2279 29.0306C11.5404 29.2948 11.0329 29.6581 10.7055 30.1204C10.3782 30.5828 10.2145 31.1112 10.2145 31.7056C10.2145 32.5313 10.5582 33.1753 11.2457 33.6376C11.966 34.067 12.9154 34.4137 14.094 34.6779L19.3977 35.9164C22.5733 36.6429 24.8978 37.7493 26.371 39.2354C27.8442 40.6885 28.5809 42.6205 28.5809 45.0314C28.5809 47.3432 27.9916 49.3082 26.813 50.9264C25.6671 52.5116 24.0793 53.717 22.0495 54.5427C20.0197 55.3353 17.7116 55.7316 15.1253 55.7316C13.03 55.7316 11.0329 55.5004 9.13409 55.0381C7.23525 54.5427 5.5001 53.8492 3.92864 52.9575C2.38992 52.0658 1.08038 51.042 0 49.8861L4.02686 44.1892C4.84532 45.147 5.84385 46.0056 7.02245 46.7652C8.20104 47.4918 9.47785 48.0697 10.8529 48.499C12.2279 48.9284 13.6193 49.143 15.0271 49.143C16.1402 49.143 17.0405 49.0274 17.728 48.7963C18.4482 48.5651 18.9884 48.2183 19.3486 47.756C19.7087 47.2936 19.8888 46.7487 19.8888 46.1212C19.8888 45.4277 19.6432 44.8332 19.1521 44.3378C18.6938 43.8425 17.8262 43.4462 16.5494 43.1489L10.7055 41.8114C9.10135 41.4481 7.59537 40.9362 6.18761 40.2757C4.77985 39.5822 3.63399 38.6245 2.75005 37.4025C1.8661 36.1806 1.42413 34.6119 1.42413 32.6964C1.42413 30.6488 1.96432 28.8324 3.0447 27.2472C4.15781 25.629 5.74564 24.3575 7.80817 23.4328C9.87071 22.5081 12.3261 22.0457 15.1744 22.0457Z" fill="#1A1A1A"/>
<path d="M62.5544 22.5411V55.2362H54.1078V22.5411H62.5544ZM42.3219 22.5411V55.2362H33.8753V22.5411H42.3219ZM58.6258 35.4705V42.0591H38.0004V35.4705H58.6258Z" fill="#1A1A1A"/>
<path d="M99.9663 22.5411C103.797 22.5411 106.792 23.4988 108.953 25.4143C111.114 27.3298 112.194 30.0048 112.194 33.4395C112.194 36.9071 111.114 39.5987 108.953 41.5142C106.792 43.3966 103.797 44.3378 99.9663 44.3378H93.8278V55.2362H85.3812V22.5411H99.9663ZM98.6404 37.9474C100.31 37.9474 101.57 37.5842 102.422 36.8576C103.273 36.098 103.698 34.9586 103.698 33.4395C103.698 31.9203 103.273 30.7974 102.422 30.0709C101.57 29.3113 100.31 28.9315 98.6404 28.9315H93.8278V37.9474H98.6404Z" fill="#1A1A1A"/>
<path d="M69.7472 55.2362H78.1938V38.8887L69.7472 40.9321V55.2362Z" fill="#1A1A1A"/>
<path fill-rule="evenodd" clip-rule="evenodd" d="M78.1938 22.5411H69.7472V38.8887L78.1938 36.8452V22.5411Z" fill="#FF00E5"/>
</svg>
