<svg width="159" height="72" viewBox="0 0 159 72" fill="none" xmlns="http://www.w3.org/2000/svg">
<path d="M139.738 53.5254H152.323H158.4V62.7627V72L139.738 53.5254Z" fill="white"/>
<path d="M158.4 18.4746H139.956L158.4 0V18.4746Z" fill="white"/>
<path fill-rule="evenodd" clip-rule="evenodd" d="M158.4 18.4746L140.795 36L136.142 40.6316L131.489 45.2631L122.296 36.0546L104.746 18.4746H123.189L131.573 26.8201L139.956 18.4746H158.4Z" fill="white"/>
<path d="M104.746 53.5254L120.249 38.0928L129.442 47.3014L123.189 53.5254H104.746Z" fill="white"/>
<path fill-rule="evenodd" clip-rule="evenodd" d="M152.323 53.5254H139.738L131.489 45.2631L136.142 40.6316L143.587 40.2453L152.323 53.5254Z" fill="white"/>
<path fill-rule="evenodd" clip-rule="evenodd" d="M140.795 36L136.142 40.6316L143.587 40.2453L140.795 36Z" fill="#99008A"/>
<path d="M14.8372 21.3777C17.6862 21.3777 20.215 21.826 22.4238 22.7227C24.6646 23.6194 26.6013 24.9644 28.2338 26.7578L24.2965 32.0899C22.92 30.6488 21.4475 29.576 19.8789 28.8714C18.3424 28.1349 16.6138 27.7666 14.6931 27.7666C13.5727 27.7666 12.6604 27.8947 11.9562 28.1509C11.2839 28.4071 10.7878 28.7593 10.4676 29.2077C10.1475 29.656 9.98748 30.1684 9.98748 30.7449C9.98748 31.5455 10.3236 32.17 10.9958 32.6183C11.7001 33.0346 12.6284 33.3709 13.7808 33.6271L18.9666 34.828C22.0717 35.5325 24.3445 36.6054 25.785 38.0465C27.2255 39.4556 27.9457 41.329 27.9457 43.6668C27.9457 45.9085 27.3695 47.814 26.2171 49.3832C25.0967 50.9204 23.5442 52.0893 21.5595 52.8899C19.5748 53.6585 17.318 54.0428 14.7892 54.0428C12.7404 54.0428 10.7878 53.8186 8.93111 53.3702C7.07446 52.8899 5.37787 52.2174 3.84134 51.3527C2.33681 50.488 1.05637 49.4953 0 48.3744L3.93737 42.8502C4.73765 43.7789 5.71399 44.6115 6.86639 45.3481C8.01879 46.0526 9.26723 46.613 10.6117 47.0294C11.9562 47.4457 13.3166 47.6538 14.6931 47.6538C15.7815 47.6538 16.6618 47.5418 17.334 47.3176C18.0383 47.0934 18.5665 46.7572 18.9186 46.3088C19.2707 45.8605 19.4468 45.3321 19.4468 44.7236C19.4468 44.0511 19.2067 43.4746 18.7265 42.9943C18.2784 42.5139 17.4301 42.1296 16.1816 41.8414L10.4676 40.5444C8.8991 40.1921 7.42659 39.6957 6.05011 39.0552C4.67363 38.3827 3.55324 37.454 2.68894 36.2691C1.82464 35.0842 1.39248 33.563 1.39248 31.7056C1.39248 29.7201 1.92067 27.9587 2.97704 26.4215C4.06542 24.8523 5.61796 23.6194 7.63466 22.7227C9.65136 21.826 12.0522 21.3777 14.8372 21.3777Z" fill="white"/>
<path d="M61.1643 21.858V53.5624H52.9054V21.858H61.1643ZM41.3814 21.858V53.5624H33.1225V21.858H41.3814ZM57.323 34.3957V40.7846H37.1559V34.3957H57.323Z" fill="white"/>
<path d="M97.7448 21.858C101.49 21.858 104.419 22.7868 106.532 24.6442C108.645 26.5016 109.701 29.0956 109.701 32.4262C109.701 35.7887 108.645 38.3987 106.532 40.2562C104.419 42.0816 101.49 42.9943 97.7448 42.9943H91.7427V53.5624H83.4838V21.858H97.7448ZM96.4483 36.7975C98.0809 36.7975 99.3133 36.4452 100.146 35.7407C100.978 35.0041 101.394 33.8993 101.394 32.4262C101.394 30.953 100.978 29.8642 100.146 29.1596C99.3133 28.4231 98.0809 28.0548 96.4483 28.0548H91.7427V36.7975H96.4483Z" fill="white"/>
<path d="M68.1973 53.5624H76.4561V37.7102L68.1973 39.6917V53.5624Z" fill="white"/>
<path fill-rule="evenodd" clip-rule="evenodd" d="M76.4561 21.858H68.1973V37.7102L76.4561 35.7287V21.858Z" fill="white"/>
</svg>
